<?xml version="1.0" encoding="UTF-8"?>
<!DOCTYPE svg PUBLIC "-//W3C//DTD SVG 1.1//EN" "http://www.w3.org/Graphics/SVG/1.1/DTD/svg11.dtd">
<svg version="1.2" width="211.9mm" height="92.9mm" viewBox="0 0 21190 9290" preserveAspectRatio="xMidYMid" fill-rule="evenodd" stroke-width="28.222" stroke-linejoin="round" xmlns="http://www.w3.org/2000/svg" xmlns:ooo="http://xml.openoffice.org/svg/export" xmlns:xlink="http://www.w3.org/1999/xlink" xmlns:presentation="http://sun.com/xmlns/staroffice/presentation" xmlns:smil="http://www.w3.org/2001/SMIL20/" xmlns:anim="urn:oasis:names:tc:opendocument:xmlns:animation:1.0" xmlns:svg="urn:oasis:names:tc:opendocument:xmlns:svg-compatible:1.0" xml:space="preserve">
 <defs class="ClipPathGroup">
  <clipPath id="presentation_clip_path" clipPathUnits="userSpaceOnUse">
   <rect x="0" y="0" width="21190" height="9290"/>
  </clipPath>
  <clipPath id="presentation_clip_path_shrink" clipPathUnits="userSpaceOnUse">
   <rect x="21" y="9" width="21148" height="9272"/>
  </clipPath>
 </defs>
 <defs class="TextShapeIndex">
  <g ooo:slide="id1" ooo:id-list="id3 id4 id5 id6 id7 id8 id9 id10 id11 id12 id13 id14 id15 id16 id17 id18 id19 id20 id21 id22 id23 id24 id25 id26 id27 id28 id29 id30 id31 id32 id33 id34 id35 id36 id37 id38 id39 id40 id41 id42 id43 id44 id45 id46 id47 id48 id49 id50 id51 id52 id53 id54 id55 id56 id57 id58 id59 id60 id61 id62 id63 id64 id65 id66 id67 id68 id69 id70 id71 id72 id73 id74 id75 id76 id77 id78"/>
 </defs>
 <defs class="EmbeddedBulletChars">
  <g id="bullet-char-template-57356" transform="scale(0.00048828125,-0.00048828125)">
   <path d="M 580,1141 L 1163,571 580,0 -4,571 580,1141 Z"/>
  </g>
  <g id="bullet-char-template-57354" transform="scale(0.00048828125,-0.00048828125)">
   <path d="M 8,1128 L 1137,1128 1137,0 8,0 8,1128 Z"/>
  </g>
  <g id="bullet-char-template-10146" transform="scale(0.00048828125,-0.00048828125)">
   <path d="M 174,0 L 602,739 174,1481 1456,739 174,0 Z M 1358,739 L 309,1346 659,739 1358,739 Z"/>
  </g>
  <g id="bullet-char-template-10132" transform="scale(0.00048828125,-0.00048828125)">
   <path d="M 2015,739 L 1276,0 717,0 1260,543 174,543 174,936 1260,936 717,1481 1274,1481 2015,739 Z"/>
  </g>
  <g id="bullet-char-template-10007" transform="scale(0.00048828125,-0.00048828125)">
   <path d="M 0,-2 C -7,14 -16,27 -25,37 L 356,567 C 262,823 215,952 215,954 215,979 228,992 255,992 264,992 276,990 289,987 310,991 331,999 354,1012 L 381,999 492,748 772,1049 836,1024 860,1049 C 881,1039 901,1025 922,1006 886,937 835,863 770,784 769,783 710,716 594,584 L 774,223 C 774,196 753,168 711,139 L 727,119 C 717,90 699,76 672,76 641,76 570,178 457,381 L 164,-76 C 142,-110 111,-127 72,-127 30,-127 9,-110 8,-76 1,-67 -2,-52 -2,-32 -2,-23 -1,-13 0,-2 Z"/>
  </g>
  <g id="bullet-char-template-10004" transform="scale(0.00048828125,-0.00048828125)">
   <path d="M 285,-33 C 182,-33 111,30 74,156 52,228 41,333 41,471 41,549 55,616 82,672 116,743 169,778 240,778 293,778 328,747 346,684 L 369,508 C 377,444 397,411 428,410 L 1163,1116 C 1174,1127 1196,1133 1229,1133 1271,1133 1292,1118 1292,1087 L 1292,965 C 1292,929 1282,901 1262,881 L 442,47 C 390,-6 338,-33 285,-33 Z"/>
  </g>
  <g id="bullet-char-template-9679" transform="scale(0.00048828125,-0.00048828125)">
   <path d="M 813,0 C 632,0 489,54 383,161 276,268 223,411 223,592 223,773 276,916 383,1023 489,1130 632,1184 813,1184 992,1184 1136,1130 1245,1023 1353,916 1407,772 1407,592 1407,412 1353,268 1245,161 1136,54 992,0 813,0 Z"/>
  </g>
  <g id="bullet-char-template-8226" transform="scale(0.00048828125,-0.00048828125)">
   <path d="M 346,457 C 273,457 209,483 155,535 101,586 74,649 74,723 74,796 101,859 155,911 209,963 273,989 346,989 419,989 480,963 531,910 582,859 608,796 608,723 608,648 583,586 532,535 482,483 420,457 346,457 Z"/>
  </g>
  <g id="bullet-char-template-8211" transform="scale(0.00048828125,-0.00048828125)">
   <path d="M -4,459 L 1135,459 1135,606 -4,606 -4,459 Z"/>
  </g>
  <g id="bullet-char-template-61548" transform="scale(0.00048828125,-0.00048828125)">
   <path d="M 173,740 C 173,903 231,1043 346,1159 462,1274 601,1332 765,1332 928,1332 1067,1274 1183,1159 1299,1043 1357,903 1357,740 1357,577 1299,437 1183,322 1067,206 928,148 765,148 601,148 462,206 346,322 231,437 173,577 173,740 Z"/>
  </g>
 </defs>
 <g>
  <g id="id2" class="Master_Slide">
   <g id="bg-id2" class="Background"/>
   <g id="bo-id2" class="BackgroundObjects"/>
  </g>
 </g>
 <g class="SlideGroup">
  <g>
   <g id="container-id1">
    <g id="id1" class="Slide" clip-path="url(#presentation_clip_path)">
     <g class="Page">
      <g class="com.sun.star.drawing.ClosedBezierShape">
       <g id="id3">
        <rect class="BoundingBox" stroke="none" fill="none" x="20180" y="3068" width="770" height="108"/>
        <path fill="rgb(190,190,190)" stroke="none" d="M 20895,3175 L 20233,3175 C 20204,3175 20180,3151 20180,3122 20180,3093 20204,3069 20233,3069 L 20895,3069 C 20924,3069 20948,3093 20948,3122 20948,3151 20924,3175 20895,3175 Z"/>
       </g>
      </g>
      <g class="com.sun.star.drawing.ClosedBezierShape">
       <g id="id4">
        <rect class="BoundingBox" stroke="none" fill="none" x="1438" y="3068" width="18316" height="108"/>
        <path fill="rgb(190,190,190)" stroke="none" d="M 19699,3175 L 18360,3175 C 18331,3175 18307,3151 18307,3122 18307,3093 18331,3069 18360,3069 L 19699,3069 C 19728,3069 19752,3093 19752,3122 19752,3151 19728,3175 19699,3175 Z M 17826,3175 L 16487,3175 C 16458,3175 16434,3151 16434,3122 16434,3093 16458,3069 16487,3069 L 17826,3069 C 17855,3069 17879,3093 17879,3122 17879,3151 17855,3175 17826,3175 Z M 15950,3175 L 14611,3175 C 14582,3175 14558,3151 14558,3122 14558,3093 14582,3069 14611,3069 L 15950,3069 C 15979,3069 16003,3093 16003,3122 16003,3151 15979,3175 15950,3175 Z M 14077,3175 L 12738,3175 C 12709,3175 12685,3151 12685,3122 12685,3093 12709,3069 12738,3069 L 14077,3069 C 14106,3069 14130,3093 14130,3122 14130,3151 14106,3175 14077,3175 Z M 12201,3175 L 10862,3175 C 10833,3175 10809,3151 10809,3122 10809,3093 10833,3069 10862,3069 L 12201,3069 C 12230,3069 12254,3093 12254,3122 12254,3151 12230,3175 12201,3175 Z M 10329,3175 L 8990,3175 C 8961,3175 8937,3151 8937,3122 8937,3093 8961,3069 8990,3069 L 10329,3069 C 10358,3069 10382,3093 10382,3122 10382,3151 10358,3175 10329,3175 Z M 8453,3175 L 7114,3175 C 7085,3175 7061,3151 7061,3122 7061,3093 7085,3069 7114,3069 L 8453,3069 C 8482,3069 8506,3093 8506,3122 8506,3151 8482,3175 8453,3175 Z M 6580,3175 L 5241,3175 C 5212,3175 5188,3151 5188,3122 5188,3093 5212,3069 5241,3069 L 6580,3069 C 6609,3069 6633,3093 6633,3122 6633,3151 6609,3175 6580,3175 Z M 4707,3175 L 3368,3175 C 3339,3175 3315,3151 3315,3122 3315,3093 3339,3069 3368,3069 L 4707,3069 C 4736,3069 4760,3093 4760,3122 4760,3151 4736,3175 4707,3175 Z M 2831,3175 L 1492,3175 C 1463,3175 1439,3151 1439,3122 1439,3093 1463,3069 1492,3069 L 2831,3069 C 2860,3069 2884,3093 2884,3122 2884,3151 2860,3175 2831,3175 Z"/>
       </g>
      </g>
      <g class="com.sun.star.drawing.ClosedBezierShape">
       <g id="id5">
        <rect class="BoundingBox" stroke="none" fill="none" x="242" y="3068" width="770" height="108"/>
        <path fill="rgb(190,190,190)" stroke="none" d="M 958,3175 L 296,3175 C 267,3175 243,3151 243,3122 243,3093 267,3069 296,3069 L 958,3069 C 987,3069 1011,3093 1011,3122 1011,3151 987,3175 958,3175 Z"/>
       </g>
      </g>
      <g class="com.sun.star.drawing.ClosedBezierShape">
       <g id="id6">
        <rect class="BoundingBox" stroke="none" fill="none" x="20180" y="6110" width="770" height="108"/>
        <path fill="rgb(190,190,190)" stroke="none" d="M 20895,6216 L 20233,6216 C 20204,6216 20180,6192 20180,6163 20180,6134 20204,6110 20233,6110 L 20895,6110 C 20924,6110 20948,6134 20948,6163 20948,6192 20924,6216 20895,6216 Z"/>
       </g>
      </g>
      <g class="com.sun.star.drawing.ClosedBezierShape">
       <g id="id7">
        <rect class="BoundingBox" stroke="none" fill="none" x="1438" y="6110" width="18316" height="108"/>
        <path fill="rgb(190,190,190)" stroke="none" d="M 19699,6216 L 18360,6216 C 18331,6216 18307,6192 18307,6163 18307,6134 18331,6110 18360,6110 L 19699,6110 C 19728,6110 19752,6134 19752,6163 19752,6192 19728,6216 19699,6216 Z M 17826,6216 L 16487,6216 C 16458,6216 16434,6192 16434,6163 16434,6134 16458,6110 16487,6110 L 17826,6110 C 17855,6110 17879,6134 17879,6163 17879,6192 17855,6216 17826,6216 Z M 15950,6216 L 14611,6216 C 14582,6216 14558,6192 14558,6163 14558,6134 14582,6110 14611,6110 L 15950,6110 C 15979,6110 16003,6134 16003,6163 16003,6192 15979,6216 15950,6216 Z M 14077,6216 L 12738,6216 C 12709,6216 12685,6192 12685,6163 12685,6134 12709,6110 12738,6110 L 14077,6110 C 14106,6110 14130,6134 14130,6163 14130,6192 14106,6216 14077,6216 Z M 12201,6216 L 10862,6216 C 10833,6216 10809,6192 10809,6163 10809,6134 10833,6110 10862,6110 L 12201,6110 C 12230,6110 12254,6134 12254,6163 12254,6192 12230,6216 12201,6216 Z M 10329,6216 L 8990,6216 C 8961,6216 8937,6192 8937,6163 8937,6134 8961,6110 8990,6110 L 10329,6110 C 10358,6110 10382,6134 10382,6163 10382,6192 10358,6216 10329,6216 Z M 8453,6216 L 7114,6216 C 7085,6216 7061,6192 7061,6163 7061,6134 7085,6110 7114,6110 L 8453,6110 C 8482,6110 8506,6134 8506,6163 8506,6192 8482,6216 8453,6216 Z M 6580,6216 L 5241,6216 C 5212,6216 5188,6192 5188,6163 5188,6134 5212,6110 5241,6110 L 6580,6110 C 6609,6110 6633,6134 6633,6163 6633,6192 6609,6216 6580,6216 Z M 4707,6216 L 3368,6216 C 3339,6216 3315,6192 3315,6163 3315,6134 3339,6110 3368,6110 L 4707,6110 C 4736,6110 4760,6134 4760,6163 4760,6192 4736,6216 4707,6216 Z M 2831,6216 L 1492,6216 C 1463,6216 1439,6192 1439,6163 1439,6134 1463,6110 1492,6110 L 2831,6110 C 2860,6110 2884,6134 2884,6163 2884,6192 2860,6216 2831,6216 Z"/>
       </g>
      </g>
      <g class="com.sun.star.drawing.ClosedBezierShape">
       <g id="id8">
        <rect class="BoundingBox" stroke="none" fill="none" x="242" y="6110" width="770" height="108"/>
        <path fill="rgb(190,190,190)" stroke="none" d="M 958,6216 L 296,6216 C 267,6216 243,6192 243,6163 243,6134 267,6110 296,6110 L 958,6110 C 987,6110 1011,6134 1011,6163 1011,6192 987,6216 958,6216 Z"/>
       </g>
      </g>
      <g class="com.sun.star.drawing.ClosedBezierShape">
       <g id="id9">
        <rect class="BoundingBox" stroke="none" fill="none" x="242" y="9153" width="20708" height="108"/>
        <path fill="rgb(190,190,190)" stroke="none" d="M 20895,9259 L 296,9259 C 267,9259 243,9235 243,9206 243,9177 267,9153 296,9153 L 20895,9153 C 20924,9153 20948,9177 20948,9206 20948,9235 20924,9259 20895,9259 Z"/>
       </g>
      </g>
      <g class="com.sun.star.drawing.ClosedBezierShape">
       <g id="id10">
        <rect class="BoundingBox" stroke="none" fill="none" x="242" y="25" width="20708" height="108"/>
        <path fill="rgb(190,190,190)" stroke="none" d="M 20895,132 L 296,132 C 267,132 243,108 243,79 243,50 267,26 296,26 L 20895,26 C 20924,26 20948,50 20948,79 20948,108 20924,132 20895,132 Z"/>
       </g>
      </g>
      <g class="com.sun.star.drawing.PolyPolygonShape">
       <g id="id11">
        <rect class="BoundingBox" stroke="none" fill="none" x="1867" y="3332" width="5838" height="2630"/>
        <path fill="rgb(255,255,255)" stroke="none" d="M 7704,4640 L 7670,4281 7593,3945 7434,3714 6987,3558 5916,3558 5913,3458 5842,3333 5736,3333 5736,3558 2876,3558 2058,3688 1905,3958 1868,4640 1905,5319 2058,5592 2876,5721 5739,5721 5736,5960 5842,5960 5905,5819 5905,5721 6987,5721 7434,5563 7593,5332 7670,4997 7704,4640 Z"/>
       </g>
      </g>
      <g class="com.sun.star.drawing.PolyPolygonShape">
       <g id="id12">
        <rect class="BoundingBox" stroke="none" fill="none" x="2549" y="3907" width="852" height="1470"/>
        <path fill="rgb(35,31,32)" stroke="none" d="M 2627,5375 L 2577,5084 2550,4643 2577,4199 2627,3908 3400,4019 3363,4643 3400,5264 2627,5375 Z M 2603,4201 L 2577,4640 2603,5079 2648,5343 3371,5237 3336,4638 3371,4037 2648,3931 2603,4201 Z"/>
       </g>
      </g>
      <g class="com.sun.star.drawing.PolyPolygonShape">
       <g id="id13">
        <rect class="BoundingBox" stroke="none" fill="none" x="5269" y="3803" width="838" height="1680"/>
        <path fill="rgb(35,31,32)" stroke="none" d="M 5995,5481 L 5270,5293 5315,4643 5270,3992 5995,3804 6077,4281 6106,4643 6077,5004 5995,5481 Z M 5297,5272 L 5971,5446 6048,4997 6077,4638 6048,4281 5971,3833 5297,4008 5339,4638 5297,5272 Z"/>
       </g>
      </g>
      <g class="com.sun.star.drawing.PolyPolygonShape">
       <g id="id14">
        <rect class="BoundingBox" stroke="none" fill="none" x="4494" y="5367" width="1272" height="266"/>
        <path fill="rgb(35,31,32)" stroke="none" d="M 4635,5631 L 4495,5367 5246,5417 5765,5624 4635,5631 Z M 4540,5396 L 4651,5605 5630,5597 5238,5441 4540,5396 Z"/>
       </g>
      </g>
      <g class="com.sun.star.drawing.PolyPolygonShape">
       <g id="id15">
        <rect class="BoundingBox" stroke="none" fill="none" x="3216" y="5364" width="1251" height="277"/>
        <path fill="rgb(35,31,32)" stroke="none" d="M 3680,5639 L 3217,5610 3217,5534 3651,5364 4373,5364 4466,5634 3680,5639 Z M 3244,5584 L 3680,5613 4429,5608 4352,5391 3651,5391 3241,5552 3241,5584 3241,5584 3244,5584 Z"/>
       </g>
      </g>
      <g class="com.sun.star.drawing.PolyPolygonShape">
       <g id="id16">
        <rect class="BoundingBox" stroke="none" fill="none" x="4494" y="3650" width="1272" height="266"/>
        <path fill="rgb(35,31,32)" stroke="none" d="M 4495,3915 L 4635,3651 5765,3659 5244,3868 4495,3915 Z M 4651,3677 L 4540,3886 5236,3841 5627,3685 4651,3677 Z"/>
       </g>
      </g>
      <g class="com.sun.star.drawing.PolyPolygonShape">
       <g id="id17">
        <rect class="BoundingBox" stroke="none" fill="none" x="3214" y="3647" width="1250" height="275"/>
        <path fill="rgb(35,31,32)" stroke="none" d="M 4371,3921 L 3643,3921 3215,3754 3215,3677 3678,3648 4463,3654 4371,3921 Z M 3651,3894 L 4352,3894 4429,3677 3680,3672 3244,3701 3244,3736 3651,3894 Z"/>
       </g>
      </g>
      <g class="com.sun.star.drawing.PolyPolygonShape">
       <g id="id18">
        <rect class="BoundingBox" stroke="none" fill="none" x="7272" y="5118" width="309" height="436"/>
        <path fill="rgb(35,31,32)" stroke="none" d="M 7273,5552 L 7450,5126 7580,5118 7519,5391 7421,5515 7273,5552 Z M 7469,5153 L 7318,5515 7405,5494 7495,5380 7546,5150 7469,5150 7469,5153 Z"/>
       </g>
      </g>
      <g class="com.sun.star.drawing.PolyPolygonShape">
       <g id="id19">
        <rect class="BoundingBox" stroke="none" fill="none" x="7269" y="3724" width="309" height="436"/>
        <path fill="rgb(35,31,32)" stroke="none" d="M 7577,4159 L 7448,4151 7270,3725 7419,3762 7519,3889 7577,4159 Z M 7469,4127 L 7546,4132 7495,3902 7405,3788 7318,3767 7469,4127 Z"/>
       </g>
      </g>
      <g class="com.sun.star.drawing.PolyPolygonShape">
       <g id="id20">
        <rect class="BoundingBox" stroke="none" fill="none" x="7687" y="4322" width="63" height="639"/>
        <path fill="rgb(35,31,32)" stroke="none" d="M 7688,4323 L 7749,4323 7749,4959 7688,4959 7688,4323 Z"/>
       </g>
      </g>
      <g class="com.sun.star.drawing.PolyPolygonShape">
       <g id="id21">
        <rect class="BoundingBox" stroke="none" fill="none" x="5711" y="3301" width="224" height="375"/>
        <path fill="rgb(35,31,32)" stroke="none" d="M 5876,3675 L 5881,3595 5881,3460 5823,3349 5765,3349 5765,3661 5712,3661 5712,3302 5858,3302 5934,3450 5934,3611 5876,3675 Z"/>
       </g>
      </g>
      <g class="com.sun.star.drawing.PolyPolygonShape">
       <g id="id22">
        <rect class="BoundingBox" stroke="none" fill="none" x="5711" y="5608" width="224" height="377"/>
        <path fill="rgb(35,31,32)" stroke="none" d="M 5858,5983 L 5712,5983 5712,5621 5765,5621 5765,5936 5823,5936 5881,5822 5881,5687 5876,5608 5934,5671 5934,5833 5858,5983 Z"/>
       </g>
      </g>
      <g class="com.sun.star.drawing.PolyPolygonShape">
       <g id="id23">
        <rect class="BoundingBox" stroke="none" fill="none" x="1843" y="3534" width="3904" height="2216"/>
        <path fill="rgb(35,31,32)" stroke="none" d="M 5746,5695 L 2881,5695 2077,5568 1931,5314 1897,4640 1931,3968 2077,3714 2881,3587 5746,3587 5746,3535 2879,3535 2042,3664 1881,3953 1844,4640 1844,4640 1881,5330 2042,5618 2873,5748 5746,5748 5746,5695 Z"/>
       </g>
      </g>
      <g class="com.sun.star.drawing.PolyPolygonShape">
       <g id="id24">
        <rect class="BoundingBox" stroke="none" fill="none" x="5894" y="3534" width="1838" height="2216"/>
        <path fill="rgb(35,31,32)" stroke="none" d="M 7696,4281 L 7620,3937 7453,3693 6995,3535 5895,3535 5895,3587 6985,3587 7421,3738 7569,3958 7646,4286 7678,4640 7646,4994 7569,5325 7421,5544 6985,5695 5895,5695 5895,5748 6995,5748 7453,5586 7620,5346 7696,5004 7731,4640 7696,4281 Z"/>
       </g>
      </g>
      <g class="com.sun.star.drawing.PolyPolygonShape">
       <g id="id25">
        <rect class="BoundingBox" stroke="none" fill="none" x="1867" y="6375" width="5838" height="2629"/>
        <path fill="rgb(255,255,255)" stroke="none" d="M 7704,7682 L 7670,7322 7593,6986 7434,6756 6987,6600 5916,6600 5913,6499 5842,6375 5736,6375 5736,6600 2876,6600 2058,6729 1905,6999 1868,7682 1905,8362 2058,8634 2876,8764 5739,8764 5736,9002 5842,9002 5905,8862 5905,8764 6987,8764 7434,8605 7593,8375 7670,8039 7704,7682 Z"/>
       </g>
      </g>
      <g class="com.sun.star.drawing.PolyPolygonShape">
       <g id="id26">
        <rect class="BoundingBox" stroke="none" fill="none" x="2549" y="6949" width="852" height="1470"/>
        <path fill="rgb(35,31,32)" stroke="none" d="M 2627,8417 L 2577,8126 2550,7684 2577,7240 2627,6949 3400,7060 3363,7684 3400,8306 2627,8417 Z M 2603,7243 L 2577,7682 2603,8121 2648,8386 3371,8280 3336,7679 3371,7079 2648,6973 2603,7243 Z"/>
       </g>
      </g>
      <g class="com.sun.star.drawing.PolyPolygonShape">
       <g id="id27">
        <rect class="BoundingBox" stroke="none" fill="none" x="5269" y="6846" width="838" height="1679"/>
        <path fill="rgb(35,31,32)" stroke="none" d="M 5995,8523 L 5270,8335 5315,7684 5270,7034 5995,6846 6077,7322 6106,7684 6077,8047 5995,8523 Z M 5297,8314 L 5971,8489 6048,8039 6077,7679 6048,7322 5971,6875 5297,7049 5339,7679 5297,8314 Z"/>
       </g>
      </g>
      <g class="com.sun.star.drawing.PolyPolygonShape">
       <g id="id28">
        <rect class="BoundingBox" stroke="none" fill="none" x="4494" y="8409" width="1272" height="267"/>
        <path fill="rgb(35,31,32)" stroke="none" d="M 4635,8674 L 4495,8409 5246,8460 5765,8666 4635,8674 Z M 4540,8438 L 4651,8647 5630,8639 5238,8483 4540,8438 Z"/>
       </g>
      </g>
      <g class="com.sun.star.drawing.PolyPolygonShape">
       <g id="id29">
        <rect class="BoundingBox" stroke="none" fill="none" x="3216" y="8407" width="1251" height="277"/>
        <path fill="rgb(35,31,32)" stroke="none" d="M 3680,8682 L 3217,8653 3217,8576 3651,8407 4373,8407 4466,8677 3680,8682 Z M 3244,8626 L 3680,8655 4429,8650 4352,8433 3651,8433 3241,8595 3241,8626 3241,8626 3244,8626 Z"/>
       </g>
      </g>
      <g class="com.sun.star.drawing.PolyPolygonShape">
       <g id="id30">
        <rect class="BoundingBox" stroke="none" fill="none" x="4494" y="6692" width="1272" height="267"/>
        <path fill="rgb(35,31,32)" stroke="none" d="M 4495,6957 L 4635,6692 5765,6700 5244,6909 4495,6957 Z M 4651,6719 L 4540,6928 5236,6883 5627,6727 4651,6719 Z"/>
       </g>
      </g>
      <g class="com.sun.star.drawing.PolyPolygonShape">
       <g id="id31">
        <rect class="BoundingBox" stroke="none" fill="none" x="3214" y="6690" width="1250" height="274"/>
        <path fill="rgb(35,31,32)" stroke="none" d="M 4371,6962 L 3643,6962 3215,6796 3215,6719 3678,6690 4463,6695 4371,6962 Z M 3651,6936 L 4352,6936 4429,6719 3680,6713 3244,6743 3244,6777 3651,6936 Z"/>
       </g>
      </g>
      <g class="com.sun.star.drawing.PolyPolygonShape">
       <g id="id32">
        <rect class="BoundingBox" stroke="none" fill="none" x="7272" y="8161" width="309" height="436"/>
        <path fill="rgb(35,31,32)" stroke="none" d="M 7273,8595 L 7450,8169 7580,8161 7519,8433 7421,8557 7273,8595 Z M 7469,8195 L 7318,8557 7405,8536 7495,8423 7546,8192 7469,8192 7469,8195 Z"/>
       </g>
      </g>
      <g class="com.sun.star.drawing.PolyPolygonShape">
       <g id="id33">
        <rect class="BoundingBox" stroke="none" fill="none" x="7269" y="6766" width="309" height="436"/>
        <path fill="rgb(35,31,32)" stroke="none" d="M 7577,7200 L 7448,7192 7270,6766 7419,6803 7519,6930 7577,7200 Z M 7469,7169 L 7546,7174 7495,6944 7405,6830 7318,6809 7469,7169 Z"/>
       </g>
      </g>
      <g class="com.sun.star.drawing.PolyPolygonShape">
       <g id="id34">
        <rect class="BoundingBox" stroke="none" fill="none" x="7687" y="7364" width="63" height="640"/>
        <path fill="rgb(35,31,32)" stroke="none" d="M 7688,7364 L 7749,7364 7749,8002 7688,8002 7688,7364 Z"/>
       </g>
      </g>
      <g class="com.sun.star.drawing.PolyPolygonShape">
       <g id="id35">
        <rect class="BoundingBox" stroke="none" fill="none" x="5711" y="6343" width="224" height="375"/>
        <path fill="rgb(35,31,32)" stroke="none" d="M 5876,6716 L 5881,6637 5881,6502 5823,6391 5765,6391 5765,6703 5712,6703 5712,6343 5858,6343 5934,6491 5934,6653 5876,6716 Z"/>
       </g>
      </g>
      <g class="com.sun.star.drawing.PolyPolygonShape">
       <g id="id36">
        <rect class="BoundingBox" stroke="none" fill="none" x="5711" y="8650" width="224" height="378"/>
        <path fill="rgb(35,31,32)" stroke="none" d="M 5858,9026 L 5712,9026 5712,8663 5765,8663 5765,8978 5823,8978 5881,8864 5881,8729 5876,8650 5934,8714 5934,8875 5858,9026 Z"/>
       </g>
      </g>
      <g class="com.sun.star.drawing.PolyPolygonShape">
       <g id="id37">
        <rect class="BoundingBox" stroke="none" fill="none" x="1843" y="6576" width="3904" height="2216"/>
        <path fill="rgb(35,31,32)" stroke="none" d="M 5746,8737 L 2881,8737 2077,8610 1931,8356 1897,7682 1931,7010 2077,6756 2881,6629 5746,6629 5746,6576 2879,6576 2042,6706 1881,6994 1844,7682 1844,7682 1881,8372 2042,8661 2873,8790 5746,8790 5746,8737 Z"/>
       </g>
      </g>
      <g class="com.sun.star.drawing.PolyPolygonShape">
       <g id="id38">
        <rect class="BoundingBox" stroke="none" fill="none" x="5894" y="6576" width="1838" height="2216"/>
        <path fill="rgb(35,31,32)" stroke="none" d="M 7696,7322 L 7620,6978 7453,6735 6995,6576 5895,6576 5895,6629 6985,6629 7421,6780 7569,6999 7646,7327 7678,7682 7646,8036 7569,8367 7421,8587 6985,8737 5895,8737 5895,8790 6995,8790 7453,8629 7620,8388 7696,8047 7731,7682 7696,7322 Z"/>
       </g>
      </g>
      <g class="com.sun.star.drawing.PolyPolygonShape">
       <g id="id39">
        <rect class="BoundingBox" stroke="none" fill="none" x="1867" y="290" width="5838" height="2629"/>
        <path fill="rgb(255,255,255)" stroke="none" d="M 7704,1598 L 7670,1238 7593,902 7434,672 6987,516 5916,516 5913,415 5842,291 5736,291 5736,516 2876,516 2058,646 1905,915 1868,1598 1905,2278 2058,2550 2876,2680 5739,2680 5736,2918 5842,2918 5905,2778 5905,2680 6987,2680 7434,2521 7593,2291 7670,1955 7704,1598 Z"/>
       </g>
      </g>
      <g class="com.sun.star.drawing.PolyPolygonShape">
       <g id="id40">
        <rect class="BoundingBox" stroke="none" fill="none" x="2549" y="864" width="852" height="1470"/>
        <path fill="rgb(35,31,32)" stroke="none" d="M 2627,2333 L 2577,2042 2550,1601 2577,1156 2627,865 3400,976 3363,1601 3400,2222 2627,2333 Z M 2603,1159 L 2577,1598 2603,2037 2648,2302 3371,2196 3336,1601 3371,1000 2648,894 2603,1159 Z"/>
       </g>
      </g>
      <g class="com.sun.star.drawing.PolyPolygonShape">
       <g id="id41">
        <rect class="BoundingBox" stroke="none" fill="none" x="5269" y="761" width="838" height="1679"/>
        <path fill="rgb(35,31,32)" stroke="none" d="M 5995,2439 L 5270,2251 5315,1601 5270,950 5995,762 6077,1238 6106,1601 6077,1963 5995,2439 Z M 5297,2230 L 5971,2405 6048,1955 6077,1595 6048,1238 5971,791 5297,966 5339,1595 5297,2230 Z"/>
       </g>
      </g>
      <g class="com.sun.star.drawing.PolyPolygonShape">
       <g id="id42">
        <rect class="BoundingBox" stroke="none" fill="none" x="4494" y="2324" width="1272" height="267"/>
        <path fill="rgb(35,31,32)" stroke="none" d="M 4635,2590 L 4495,2325 5246,2376 5765,2582 4635,2590 Z M 4540,2355 L 4651,2564 5630,2556 5238,2400 4540,2355 Z"/>
       </g>
      </g>
      <g class="com.sun.star.drawing.PolyPolygonShape">
       <g id="id43">
        <rect class="BoundingBox" stroke="none" fill="none" x="3216" y="2322" width="1251" height="277"/>
        <path fill="rgb(35,31,32)" stroke="none" d="M 3680,2598 L 3217,2569 3217,2492 3651,2323 4373,2323 4466,2593 3680,2598 Z M 3244,2542 L 3680,2572 4429,2566 4352,2349 3651,2349 3241,2511 3241,2542 3241,2542 3244,2542 Z"/>
       </g>
      </g>
      <g class="com.sun.star.drawing.PolyPolygonShape">
       <g id="id44">
        <rect class="BoundingBox" stroke="none" fill="none" x="4494" y="607" width="1272" height="267"/>
        <path fill="rgb(35,31,32)" stroke="none" d="M 4495,873 L 4635,608 5765,616 5244,825 4495,873 Z M 4651,635 L 4540,844 5236,799 5627,643 4651,635 Z"/>
       </g>
      </g>
      <g class="com.sun.star.drawing.PolyPolygonShape">
       <g id="id45">
        <rect class="BoundingBox" stroke="none" fill="none" x="3214" y="605" width="1250" height="274"/>
        <path fill="rgb(35,31,32)" stroke="none" d="M 4371,878 L 3643,878 3215,712 3215,635 3678,606 4463,611 4371,878 Z M 3651,852 L 4352,852 4429,635 3680,630 3244,659 3244,693 3651,852 Z"/>
       </g>
      </g>
      <g class="com.sun.star.drawing.PolyPolygonShape">
       <g id="id46">
        <rect class="BoundingBox" stroke="none" fill="none" x="7272" y="2076" width="309" height="436"/>
        <path fill="rgb(35,31,32)" stroke="none" d="M 7273,2511 L 7450,2085 7580,2077 7519,2349 7421,2474 7273,2511 Z M 7469,2111 L 7318,2474 7405,2452 7495,2339 7546,2109 7469,2109 7469,2111 Z"/>
       </g>
      </g>
      <g class="com.sun.star.drawing.PolyPolygonShape">
       <g id="id47">
        <rect class="BoundingBox" stroke="none" fill="none" x="7269" y="682" width="309" height="435"/>
        <path fill="rgb(35,31,32)" stroke="none" d="M 7577,1116 L 7448,1108 7270,683 7419,720 7519,847 7577,1116 Z M 7469,1085 L 7546,1090 7495,860 7405,746 7318,725 7469,1085 Z"/>
       </g>
      </g>
      <g class="com.sun.star.drawing.PolyPolygonShape">
       <g id="id48">
        <rect class="BoundingBox" stroke="none" fill="none" x="7687" y="1279" width="63" height="640"/>
        <path fill="rgb(35,31,32)" stroke="none" d="M 7688,1280 L 7749,1280 7749,1918 7688,1918 7688,1280 Z"/>
       </g>
      </g>
      <g class="com.sun.star.drawing.PolyPolygonShape">
       <g id="id49">
        <rect class="BoundingBox" stroke="none" fill="none" x="5711" y="258" width="224" height="375"/>
        <path fill="rgb(35,31,32)" stroke="none" d="M 5876,632 L 5881,553 5881,418 5823,307 5765,307 5765,619 5712,619 5712,259 5858,259 5934,407 5934,569 5876,632 Z"/>
       </g>
      </g>
      <g class="com.sun.star.drawing.PolyPolygonShape">
       <g id="id50">
        <rect class="BoundingBox" stroke="none" fill="none" x="5711" y="2565" width="224" height="378"/>
        <path fill="rgb(35,31,32)" stroke="none" d="M 5858,2942 L 5712,2942 5712,2579 5765,2579 5765,2894 5823,2894 5881,2781 5881,2646 5876,2566 5934,2630 5934,2791 5858,2942 Z"/>
       </g>
      </g>
      <g class="com.sun.star.drawing.PolyPolygonShape">
       <g id="id51">
        <rect class="BoundingBox" stroke="none" fill="none" x="1843" y="491" width="3904" height="2216"/>
        <path fill="rgb(35,31,32)" stroke="none" d="M 5746,2654 L 2881,2654 2077,2527 1931,2273 1897,1598 1931,926 2077,672 2881,545 5746,545 5746,492 2879,492 2042,622 1881,910 1844,1598 1844,1598 1881,2288 2042,2577 2873,2706 5746,2706 5746,2654 Z"/>
       </g>
      </g>
      <g class="com.sun.star.drawing.PolyPolygonShape">
       <g id="id52">
        <rect class="BoundingBox" stroke="none" fill="none" x="5894" y="491" width="1838" height="2216"/>
        <path fill="rgb(35,31,32)" stroke="none" d="M 7696,1238 L 7620,894 7453,651 6995,492 5895,492 5895,545 6985,545 7421,696 7569,915 7646,1243 7678,1598 7646,1952 7569,2283 7421,2503 6985,2654 5895,2654 5895,2706 6995,2706 7453,2545 7620,2304 7696,1963 7731,1598 7696,1238 Z"/>
       </g>
      </g>
      <g class="com.sun.star.drawing.ClosedBezierShape">
       <g id="id53">
        <rect class="BoundingBox" stroke="none" fill="none" x="18066" y="4507" width="283" height="283"/>
        <path fill="rgb(89,194,232)" stroke="none" d="M 18347,4647 C 18347,4672 18340,4696 18328,4717 18316,4739 18299,4757 18277,4769 18256,4782 18232,4788 18207,4788 18183,4788 18159,4782 18137,4769 18116,4757 18098,4739 18085,4717 18073,4696 18066,4672 18066,4647 18066,4624 18073,4599 18085,4578 18098,4557 18116,4539 18137,4527 18159,4515 18182,4508 18207,4508 18231,4508 18256,4515 18277,4527 18299,4539 18316,4557 18328,4578 18340,4599 18347,4624 18347,4647 Z"/>
       </g>
      </g>
      <g class="com.sun.star.drawing.PolyPolygonShape">
       <g id="id54">
        <rect class="BoundingBox" stroke="none" fill="none" x="5822" y="258" width="12466" height="8770"/>
        <path fill="rgb(89,194,232)" stroke="none" d="M 5823,259 L 8927,1331 12024,2426 18215,4619 18286,4643 18215,4666 12024,6859 8927,7954 5823,9026 8911,7904 12005,6809 18199,4619 18199,4666 12005,2476 8911,1381 5823,259 Z"/>
       </g>
      </g>
      <g class="com.sun.star.drawing.PolyPolygonShape">
       <g id="id55">
        <rect class="BoundingBox" stroke="none" fill="none" x="7767" y="951" width="18" height="267"/>
        <path fill="rgb(89,194,232)" stroke="none" d="M 7776,952 L 7784,1217 7768,1217 7776,952 Z"/>
       </g>
      </g>
      <g class="com.sun.star.drawing.PolyPolygonShape">
       <g id="id56">
        <rect class="BoundingBox" stroke="none" fill="none" x="7756" y="1348" width="42" height="267"/>
        <path fill="rgb(89,194,232)" stroke="none" d="M 7789,1349 L 7797,1614 7757,1614 7762,1349 7789,1349 Z"/>
       </g>
      </g>
      <g class="com.sun.star.drawing.ClosedBezierShape">
       <g id="id57">
        <rect class="BoundingBox" stroke="none" fill="none" x="7748" y="1745" width="55" height="267"/>
        <path fill="rgb(89,194,232)" stroke="none" d="M 7800,1746 L 7800,1878 C 7802,1923 7802,1966 7802,2011 L 7749,2011 7749,1746 7800,1746 Z"/>
       </g>
      </g>
      <g class="com.sun.star.drawing.PolyPolygonShape">
       <g id="id58">
        <rect class="BoundingBox" stroke="none" fill="none" x="7748" y="2142" width="55" height="266"/>
        <path fill="rgb(89,194,232)" stroke="none" d="M 7749,2143 L 7802,2143 7802,2407 7749,2407 7749,2143 Z"/>
       </g>
      </g>
      <g class="com.sun.star.drawing.PolyPolygonShape">
       <g id="id59">
        <rect class="BoundingBox" stroke="none" fill="none" x="7748" y="2539" width="55" height="266"/>
        <path fill="rgb(89,194,232)" stroke="none" d="M 7749,2540 L 7802,2540 7802,2804 7749,2804 7749,2540 Z"/>
       </g>
      </g>
      <g class="com.sun.star.drawing.PolyPolygonShape">
       <g id="id60">
        <rect class="BoundingBox" stroke="none" fill="none" x="7748" y="2936" width="55" height="266"/>
        <path fill="rgb(89,194,232)" stroke="none" d="M 7749,2937 L 7802,2937 7802,3201 7749,3201 7749,2937 Z"/>
       </g>
      </g>
      <g class="com.sun.star.drawing.PolyPolygonShape">
       <g id="id61">
        <rect class="BoundingBox" stroke="none" fill="none" x="7748" y="3332" width="55" height="267"/>
        <path fill="rgb(89,194,232)" stroke="none" d="M 7749,3333 L 7802,3333 7802,3598 7749,3598 7749,3333 Z"/>
       </g>
      </g>
      <g class="com.sun.star.drawing.PolyPolygonShape">
       <g id="id62">
        <rect class="BoundingBox" stroke="none" fill="none" x="7748" y="3729" width="55" height="267"/>
        <path fill="rgb(89,194,232)" stroke="none" d="M 7749,3730 L 7802,3730 7802,3995 7749,3995 7749,3730 Z"/>
       </g>
      </g>
      <g class="com.sun.star.drawing.PolyPolygonShape">
       <g id="id63">
        <rect class="BoundingBox" stroke="none" fill="none" x="7748" y="4126" width="55" height="267"/>
        <path fill="rgb(89,194,232)" stroke="none" d="M 7749,4127 L 7802,4127 7802,4392 7749,4392 7749,4127 Z"/>
       </g>
      </g>
      <g class="com.sun.star.drawing.PolyPolygonShape">
       <g id="id64">
        <rect class="BoundingBox" stroke="none" fill="none" x="7748" y="4523" width="55" height="267"/>
        <path fill="rgb(89,194,232)" stroke="none" d="M 7749,4524 L 7802,4524 7802,4788 7749,4788 7749,4524 Z"/>
       </g>
      </g>
      <g class="com.sun.star.drawing.PolyPolygonShape">
       <g id="id65">
        <rect class="BoundingBox" stroke="none" fill="none" x="7748" y="4920" width="55" height="266"/>
        <path fill="rgb(89,194,232)" stroke="none" d="M 7749,4920 L 7802,4920 7802,5184 7749,5184 7749,4920 Z"/>
       </g>
      </g>
      <g class="com.sun.star.drawing.PolyPolygonShape">
       <g id="id66">
        <rect class="BoundingBox" stroke="none" fill="none" x="7748" y="5317" width="55" height="266"/>
        <path fill="rgb(89,194,232)" stroke="none" d="M 7749,5317 L 7802,5317 7802,5581 7749,5581 7749,5317 Z"/>
       </g>
      </g>
      <g class="com.sun.star.drawing.PolyPolygonShape">
       <g id="id67">
        <rect class="BoundingBox" stroke="none" fill="none" x="7748" y="5713" width="55" height="267"/>
        <path fill="rgb(89,194,232)" stroke="none" d="M 7749,5713 L 7802,5713 7802,5978 7749,5978 7749,5713 Z"/>
       </g>
      </g>
      <g class="com.sun.star.drawing.PolyPolygonShape">
       <g id="id68">
        <rect class="BoundingBox" stroke="none" fill="none" x="7748" y="6110" width="55" height="267"/>
        <path fill="rgb(89,194,232)" stroke="none" d="M 7749,6110 L 7802,6110 7802,6375 7749,6375 7749,6110 Z"/>
       </g>
      </g>
      <g class="com.sun.star.drawing.PolyPolygonShape">
       <g id="id69">
        <rect class="BoundingBox" stroke="none" fill="none" x="7748" y="6507" width="55" height="267"/>
        <path fill="rgb(89,194,232)" stroke="none" d="M 7749,6507 L 7802,6507 7802,6772 7749,6772 7749,6507 Z"/>
       </g>
      </g>
      <g class="com.sun.star.drawing.PolyPolygonShape">
       <g id="id70">
        <rect class="BoundingBox" stroke="none" fill="none" x="7748" y="6904" width="55" height="267"/>
        <path fill="rgb(89,194,232)" stroke="none" d="M 7749,6904 L 7802,6904 7802,7169 7749,7169 7749,6904 Z"/>
       </g>
      </g>
      <g class="com.sun.star.drawing.ClosedBezierShape">
       <g id="id71">
        <rect class="BoundingBox" stroke="none" fill="none" x="7749" y="7301" width="54" height="266"/>
        <path fill="rgb(89,194,232)" stroke="none" d="M 7802,7301 L 7802,7565 7755,7565 7755,7433 C 7749,7388 7749,7346 7752,7301 L 7802,7301 Z"/>
       </g>
      </g>
      <g class="com.sun.star.drawing.PolyPolygonShape">
       <g id="id72">
        <rect class="BoundingBox" stroke="none" fill="none" x="7756" y="7698" width="39" height="266"/>
        <path fill="rgb(89,194,232)" stroke="none" d="M 7794,7698 L 7786,7962 7765,7962 7757,7698 7794,7698 Z"/>
       </g>
      </g>
      <g class="com.sun.star.drawing.PolyPolygonShape">
       <g id="id73">
        <rect class="BoundingBox" stroke="none" fill="none" x="7767" y="8094" width="18" height="241"/>
        <path fill="rgb(89,194,232)" stroke="none" d="M 7784,8094 L 7776,8333 7768,8094 7784,8094 Z"/>
       </g>
      </g>
      <g class="com.sun.star.drawing.ClosedBezierShape">
       <g id="id74">
        <rect class="BoundingBox" stroke="none" fill="none" x="19135" y="4007" width="272" height="5267"/>
        <path fill="rgb(255,255,255)" stroke="none" d="M 19135,9272 L 19135,4042 C 19135,4042 19151,4008 19270,4008 19389,4008 19405,4042 19405,4042 L 19405,9272 19135,9272 Z"/>
       </g>
      </g>
      <g class="com.sun.star.drawing.ClosedBezierShape">
       <g id="id75">
        <rect class="BoundingBox" stroke="none" fill="none" x="19122" y="3994" width="298" height="5280"/>
        <path fill="rgb(35,31,32)" stroke="none" d="M 19418,9272 L 19392,9272 19392,4048 C 19387,4042 19360,4021 19270,4021 19180,4021 19154,4040 19149,4048 L 19149,9272 19122,9272 19122,4040 19122,4040 C 19122,4029 19149,3995 19270,3995 19392,3995 19413,4029 19418,4037 L 19418,9272 Z"/>
       </g>
      </g>
      <g class="com.sun.star.drawing.PolyPolygonShape">
       <g id="id76">
        <rect class="BoundingBox" stroke="none" fill="none" x="18207" y="4438" width="1375" height="410"/>
        <path fill="rgb(255,255,255)" stroke="none" d="M 18207,4676 L 18223,4740 18254,4780 18289,4790 18355,4790 18357,4822 18392,4843 19580,4846 19580,4442 18400,4439 18373,4450 18357,4503 18278,4508 18228,4537 18207,4603 18207,4676 Z"/>
       </g>
      </g>
      <g class="com.sun.star.drawing.ClosedBezierShape">
       <g id="id77">
        <rect class="BoundingBox" stroke="none" fill="none" x="18336" y="4414" width="1275" height="460"/>
        <path fill="rgb(35,31,32)" stroke="none" d="M 19609,4872 L 18402,4872 C 18365,4872 18336,4843 18336,4806 L 18336,4482 C 18336,4445 18365,4415 18402,4415 L 19609,4415 19609,4872 Z M 18402,4468 C 18397,4468 18389,4476 18389,4482 L 18389,4806 C 18389,4811 18397,4819 18402,4819 L 19556,4819 19556,4468 18402,4468 Z"/>
       </g>
      </g>
      <g class="com.sun.star.drawing.ClosedBezierShape">
       <g id="id78">
        <rect class="BoundingBox" stroke="none" fill="none" x="18183" y="4462" width="182" height="343"/>
        <path fill="rgb(35,31,32)" stroke="none" d="M 18289,4803 C 18278,4803 18254,4801 18230,4780 18199,4750 18183,4703 18183,4632 18183,4466 18291,4463 18291,4463 L 18363,4463 18363,4516 18291,4516 C 18291,4516 18236,4520 18236,4632 18236,4743 18252,4727 18265,4737 18275,4748 18289,4748 18289,4748 L 18363,4748 18363,4801 18291,4801 C 18291,4803 18291,4803 18291,4803 L 18289,4803 Z"/>
       </g>
      </g>
     </g>
    </g>
   </g>
  </g>
 </g>
</svg>