<?xml version="1.0" encoding="UTF-8"?>
<!DOCTYPE svg PUBLIC "-//W3C//DTD SVG 1.1//EN" "http://www.w3.org/Graphics/SVG/1.1/DTD/svg11.dtd">
<svg version="1.2" width="211.9mm" height="92.9mm" viewBox="0 0 21190 9290" preserveAspectRatio="xMidYMid" fill-rule="evenodd" stroke-width="28.222" stroke-linejoin="round" xmlns="http://www.w3.org/2000/svg" xmlns:ooo="http://xml.openoffice.org/svg/export" xmlns:xlink="http://www.w3.org/1999/xlink" xmlns:presentation="http://sun.com/xmlns/staroffice/presentation" xmlns:smil="http://www.w3.org/2001/SMIL20/" xmlns:anim="urn:oasis:names:tc:opendocument:xmlns:animation:1.0" xmlns:svg="urn:oasis:names:tc:opendocument:xmlns:svg-compatible:1.0" xml:space="preserve">
 <defs class="ClipPathGroup">
  <clipPath id="presentation_clip_path" clipPathUnits="userSpaceOnUse">
   <rect x="0" y="0" width="21190" height="9290"/>
  </clipPath>
  <clipPath id="presentation_clip_path_shrink" clipPathUnits="userSpaceOnUse">
   <rect x="21" y="9" width="21148" height="9272"/>
  </clipPath>
 </defs>
 <defs class="TextShapeIndex">
  <g ooo:slide="id1" ooo:id-list="id3 id4 id5 id6 id7 id8 id9 id10 id11 id12 id13 id14 id15 id16 id17 id18 id19 id20 id21 id22 id23 id24 id25 id26 id27 id28 id29 id30 id31 id32 id33 id34 id35 id36 id37 id38 id39 id40 id41 id42"/>
 </defs>
 <defs class="EmbeddedBulletChars">
  <g id="bullet-char-template-57356" transform="scale(0.00048828125,-0.00048828125)">
   <path d="M 580,1141 L 1163,571 580,0 -4,571 580,1141 Z"/>
  </g>
  <g id="bullet-char-template-57354" transform="scale(0.00048828125,-0.00048828125)">
   <path d="M 8,1128 L 1137,1128 1137,0 8,0 8,1128 Z"/>
  </g>
  <g id="bullet-char-template-10146" transform="scale(0.00048828125,-0.00048828125)">
   <path d="M 174,0 L 602,739 174,1481 1456,739 174,0 Z M 1358,739 L 309,1346 659,739 1358,739 Z"/>
  </g>
  <g id="bullet-char-template-10132" transform="scale(0.00048828125,-0.00048828125)">
   <path d="M 2015,739 L 1276,0 717,0 1260,543 174,543 174,936 1260,936 717,1481 1274,1481 2015,739 Z"/>
  </g>
  <g id="bullet-char-template-10007" transform="scale(0.00048828125,-0.00048828125)">
   <path d="M 0,-2 C -7,14 -16,27 -25,37 L 356,567 C 262,823 215,952 215,954 215,979 228,992 255,992 264,992 276,990 289,987 310,991 331,999 354,1012 L 381,999 492,748 772,1049 836,1024 860,1049 C 881,1039 901,1025 922,1006 886,937 835,863 770,784 769,783 710,716 594,584 L 774,223 C 774,196 753,168 711,139 L 727,119 C 717,90 699,76 672,76 641,76 570,178 457,381 L 164,-76 C 142,-110 111,-127 72,-127 30,-127 9,-110 8,-76 1,-67 -2,-52 -2,-32 -2,-23 -1,-13 0,-2 Z"/>
  </g>
  <g id="bullet-char-template-10004" transform="scale(0.00048828125,-0.00048828125)">
   <path d="M 285,-33 C 182,-33 111,30 74,156 52,228 41,333 41,471 41,549 55,616 82,672 116,743 169,778 240,778 293,778 328,747 346,684 L 369,508 C 377,444 397,411 428,410 L 1163,1116 C 1174,1127 1196,1133 1229,1133 1271,1133 1292,1118 1292,1087 L 1292,965 C 1292,929 1282,901 1262,881 L 442,47 C 390,-6 338,-33 285,-33 Z"/>
  </g>
  <g id="bullet-char-template-9679" transform="scale(0.00048828125,-0.00048828125)">
   <path d="M 813,0 C 632,0 489,54 383,161 276,268 223,411 223,592 223,773 276,916 383,1023 489,1130 632,1184 813,1184 992,1184 1136,1130 1245,1023 1353,916 1407,772 1407,592 1407,412 1353,268 1245,161 1136,54 992,0 813,0 Z"/>
  </g>
  <g id="bullet-char-template-8226" transform="scale(0.00048828125,-0.00048828125)">
   <path d="M 346,457 C 273,457 209,483 155,535 101,586 74,649 74,723 74,796 101,859 155,911 209,963 273,989 346,989 419,989 480,963 531,910 582,859 608,796 608,723 608,648 583,586 532,535 482,483 420,457 346,457 Z"/>
  </g>
  <g id="bullet-char-template-8211" transform="scale(0.00048828125,-0.00048828125)">
   <path d="M -4,459 L 1135,459 1135,606 -4,606 -4,459 Z"/>
  </g>
  <g id="bullet-char-template-61548" transform="scale(0.00048828125,-0.00048828125)">
   <path d="M 173,740 C 173,903 231,1043 346,1159 462,1274 601,1332 765,1332 928,1332 1067,1274 1183,1159 1299,1043 1357,903 1357,740 1357,577 1299,437 1183,322 1067,206 928,148 765,148 601,148 462,206 346,322 231,437 173,577 173,740 Z"/>
  </g>
 </defs>
 <g>
  <g id="id2" class="Master_Slide">
   <g id="bg-id2" class="Background"/>
   <g id="bo-id2" class="BackgroundObjects"/>
  </g>
 </g>
 <g class="SlideGroup">
  <g>
   <g id="container-id1">
    <g id="id1" class="Slide" clip-path="url(#presentation_clip_path)">
     <g class="Page">
      <g class="com.sun.star.drawing.PolyPolygonShape">
       <g id="id3">
        <rect class="BoundingBox" stroke="none" fill="none" x="1867" y="3332" width="5838" height="2630"/>
        <path fill="rgb(255,255,255)" stroke="none" d="M 7704,4640 L 7670,4283 7593,3947 7434,3717 6987,3558 5916,3558 5913,3460 5842,3333 5736,3333 5736,3558 2876,3558 2058,3688 1905,3958 1868,4640 1905,5322 2058,5592 2876,5721 5739,5721 5736,5960 5842,5960 5905,5822 5905,5721 6987,5721 7434,5565 7593,5332 7670,4999 7704,4640 Z"/>
       </g>
      </g>
      <g class="com.sun.star.drawing.PolyPolygonShape">
       <g id="id4">
        <rect class="BoundingBox" stroke="none" fill="none" x="2549" y="3909" width="852" height="1470"/>
        <path fill="rgb(35,31,32)" stroke="none" d="M 2627,5377 L 2577,5086 2550,4645 2577,4201 2627,3910 3400,4021 3363,4645 3400,5266 2627,5377 Z M 2603,4204 L 2577,4643 2603,5081 2648,5346 3371,5240 3336,4640 3371,4040 2648,3934 2603,4204 Z"/>
       </g>
      </g>
      <g class="com.sun.star.drawing.PolyPolygonShape">
       <g id="id5">
        <rect class="BoundingBox" stroke="none" fill="none" x="5269" y="3803" width="838" height="1680"/>
        <path fill="rgb(35,31,32)" stroke="none" d="M 5995,5481 L 5270,5293 5315,4643 5270,3992 5995,3804 6077,4281 6106,4643 6077,5004 5995,5481 Z M 5297,5272 L 5971,5446 6048,4997 6077,4638 6048,4281 5971,3833 5297,4008 5339,4638 5297,5272 Z"/>
       </g>
      </g>
      <g class="com.sun.star.drawing.PolyPolygonShape">
       <g id="id6">
        <rect class="BoundingBox" stroke="none" fill="none" x="4494" y="5370" width="1272" height="266"/>
        <path fill="rgb(35,31,32)" stroke="none" d="M 4635,5634 L 4495,5370 5246,5420 5765,5626 4635,5634 Z M 4540,5399 L 4651,5608 5630,5600 5238,5444 4540,5399 Z"/>
       </g>
      </g>
      <g class="com.sun.star.drawing.PolyPolygonShape">
       <g id="id7">
        <rect class="BoundingBox" stroke="none" fill="none" x="3216" y="5364" width="1251" height="277"/>
        <path fill="rgb(35,31,32)" stroke="none" d="M 3680,5639 L 3217,5610 3217,5534 3651,5364 4373,5364 4466,5634 3680,5639 Z M 3244,5584 L 3680,5613 4429,5608 4352,5391 3651,5391 3241,5552 3241,5584 3241,5584 3244,5584 Z"/>
       </g>
      </g>
      <g class="com.sun.star.drawing.PolyPolygonShape">
       <g id="id8">
        <rect class="BoundingBox" stroke="none" fill="none" x="4494" y="3653" width="1272" height="266"/>
        <path fill="rgb(35,31,32)" stroke="none" d="M 4495,3918 L 4635,3654 5765,3661 5244,3870 4495,3918 Z M 4651,3677 L 4540,3886 5236,3841 5627,3685 4651,3677 Z"/>
       </g>
      </g>
      <g class="com.sun.star.drawing.PolyPolygonShape">
       <g id="id9">
        <rect class="BoundingBox" stroke="none" fill="none" x="3214" y="3647" width="1250" height="275"/>
        <path fill="rgb(35,31,32)" stroke="none" d="M 4371,3921 L 3643,3921 3215,3754 3215,3677 3678,3648 4463,3654 4371,3921 Z M 3651,3894 L 4352,3894 4429,3677 3680,3672 3244,3701 3244,3736 3651,3894 Z"/>
       </g>
      </g>
      <g class="com.sun.star.drawing.PolyPolygonShape">
       <g id="id10">
        <rect class="BoundingBox" stroke="none" fill="none" x="7272" y="5121" width="309" height="436"/>
        <path fill="rgb(35,31,32)" stroke="none" d="M 7273,5555 L 7450,5129 7580,5121 7519,5393 7421,5518 7273,5555 Z M 7469,5155 L 7318,5518 7405,5497 7495,5383 7546,5153 7469,5153 7469,5155 Z"/>
       </g>
      </g>
      <g class="com.sun.star.drawing.PolyPolygonShape">
       <g id="id11">
        <rect class="BoundingBox" stroke="none" fill="none" x="7269" y="3727" width="309" height="436"/>
        <path fill="rgb(35,31,32)" stroke="none" d="M 7577,4162 L 7448,4154 7270,3728 7419,3765 7519,3892 7577,4162 Z M 7469,4130 L 7546,4135 7495,3905 7405,3791 7318,3770 7469,4130 Z"/>
       </g>
      </g>
      <g class="com.sun.star.drawing.PolyPolygonShape">
       <g id="id12">
        <rect class="BoundingBox" stroke="none" fill="none" x="7687" y="4322" width="63" height="639"/>
        <path fill="rgb(35,31,32)" stroke="none" d="M 7688,4323 L 7749,4323 7749,4959 7688,4959 7688,4323 Z"/>
       </g>
      </g>
      <g class="com.sun.star.drawing.PolyPolygonShape">
       <g id="id13">
        <rect class="BoundingBox" stroke="none" fill="none" x="5711" y="3303" width="224" height="375"/>
        <path fill="rgb(35,31,32)" stroke="none" d="M 5876,3677 L 5881,3595 5881,3463 5823,3349 5765,3349 5765,3661 5712,3661 5712,3304 5858,3304 5934,3452 5934,3611 5876,3677 Z"/>
       </g>
      </g>
      <g class="com.sun.star.drawing.PolyPolygonShape">
       <g id="id14">
        <rect class="BoundingBox" stroke="none" fill="none" x="5711" y="5608" width="224" height="377"/>
        <path fill="rgb(35,31,32)" stroke="none" d="M 5858,5983 L 5712,5983 5712,5624 5765,5624 5765,5938 5823,5938 5881,5825 5881,5690 5876,5608 5934,5674 5934,5835 5858,5983 Z"/>
       </g>
      </g>
      <g class="com.sun.star.drawing.PolyPolygonShape">
       <g id="id15">
        <rect class="BoundingBox" stroke="none" fill="none" x="1843" y="3534" width="3904" height="2218"/>
        <path fill="rgb(35,31,32)" stroke="none" d="M 5746,5698 L 2881,5698 2077,5571 1931,5317 1897,4643 1931,3968 2077,3714 2881,3587 5746,3587 5746,3535 2879,3535 2042,3667 1881,3953 1844,4640 1844,4643 1881,5332 2042,5618 2873,5750 5746,5750 5746,5698 Z"/>
       </g>
      </g>
      <g class="com.sun.star.drawing.PolyPolygonShape">
       <g id="id16">
        <rect class="BoundingBox" stroke="none" fill="none" x="5894" y="3534" width="1838" height="2218"/>
        <path fill="rgb(35,31,32)" stroke="none" d="M 7696,4281 L 7620,3939 7453,3696 6995,3535 5895,3535 5895,3587 6985,3587 7421,3741 7569,3960 7646,4288 7678,4643 7646,4997 7569,5325 7421,5544 6985,5698 5895,5698 5895,5750 6995,5750 7453,5589 7620,5346 7696,5007 7731,4643 7696,4281 Z"/>
       </g>
      </g>
      <g class="com.sun.star.drawing.ClosedBezierShape">
       <g id="id17">
        <rect class="BoundingBox" stroke="none" fill="none" x="7775" y="4629" width="10643" height="28"/>
        <path fill="rgb(89,194,232)" stroke="none" d="M 18402,4655 L 7789,4655 C 7781,4655 7776,4650 7776,4643 7776,4635 7781,4630 7789,4630 L 18402,4630 C 18410,4630 18416,4635 18416,4643 18416,4650 18410,4655 18402,4655 Z"/>
       </g>
      </g>
      <g class="com.sun.star.drawing.ClosedBezierShape">
       <g id="id18">
        <rect class="BoundingBox" stroke="none" fill="none" x="7761" y="4327" width="55" height="690"/>
        <path fill="rgb(89,194,232)" stroke="none" d="M 7789,4328 C 7800,4386 7805,4445 7810,4500 7815,4558 7815,4616 7815,4671 7815,4727 7813,4788 7810,4843 7807,4901 7800,4959 7789,5015 7778,4957 7773,4899 7768,4843 7762,4785 7762,4727 7762,4671 7762,4616 7765,4555 7768,4500 7770,4444 7778,4386 7789,4328 Z"/>
       </g>
      </g>
      <g class="com.sun.star.drawing.ClosedBezierShape">
       <g id="id19">
        <rect class="BoundingBox" stroke="none" fill="none" x="7775" y="4614" width="9916" height="3689"/>
        <path fill="rgb(89,194,232)" stroke="none" d="M 17662,8301 C 17662,8301 17656,8301 17654,8298 L 7794,4666 C 7781,4661 7772,4645 7778,4632 7783,4618 7800,4611 7813,4617 L 17672,8248 C 17685,8253 17693,8269 17688,8282 17683,8293 17672,8301 17662,8301 Z"/>
       </g>
      </g>
      <g class="com.sun.star.drawing.ClosedBezierShape">
       <g id="id20">
        <rect class="BoundingBox" stroke="none" fill="none" x="7776" y="985" width="9913" height="3685"/>
        <path fill="rgb(89,194,232)" stroke="none" d="M 7802,4668 C 7792,4668 7781,4663 7778,4650 7773,4638 7781,4622 7794,4617 L 17651,987 C 17664,982 17680,987 17685,1003 17691,1019 17685,1032 17670,1037 L 7813,4666 C 7807,4668 7805,4668 7802,4668 Z"/>
       </g>
      </g>
      <g class="com.sun.star.drawing.ClosedBezierShape">
       <g id="id21">
        <rect class="BoundingBox" stroke="none" fill="none" x="17532" y="869" width="282" height="283"/>
        <path fill="rgb(83,168,211)" stroke="none" d="M 17812,1011 C 17812,1035 17807,1059 17794,1081 17782,1102 17764,1120 17742,1132 17721,1144 17697,1151 17672,1151 17648,1151 17623,1144 17602,1132 17581,1120 17564,1102 17551,1081 17539,1059 17532,1035 17532,1011 17532,986 17538,962 17551,941 17563,919 17581,901 17602,889 17623,877 17648,870 17672,870 17697,870 17721,877 17742,889 17764,901 17781,919 17794,941 17806,962 17812,986 17812,1011 Z"/>
       </g>
      </g>
      <g class="com.sun.star.drawing.ClosedBezierShape">
       <g id="id22">
        <rect class="BoundingBox" stroke="none" fill="none" x="17521" y="8134" width="283" height="283"/>
        <path fill="rgb(83,168,211)" stroke="none" d="M 17802,8274 C 17802,8299 17795,8323 17783,8344 17771,8366 17754,8384 17732,8396 17711,8408 17687,8415 17662,8415 17638,8415 17614,8408 17592,8396 17571,8384 17553,8366 17540,8344 17528,8323 17521,8299 17521,8274 17521,8250 17528,8226 17540,8204 17553,8183 17571,8165 17592,8153 17614,8141 17637,8134 17662,8134 17686,8134 17711,8141 17732,8153 17754,8165 17771,8183 17783,8204 17795,8226 17802,8250 17802,8274 Z"/>
       </g>
      </g>
      <g class="com.sun.star.drawing.ClosedBezierShape">
       <g id="id23">
        <rect class="BoundingBox" stroke="none" fill="none" x="17762" y="1301" width="701" height="6695"/>
        <path fill="rgb(89,194,232)" stroke="none" d="M 17762,7994 L 17820,7994 C 18246,6922 18461,5795 18461,4643 18461,3490 18246,2370 17823,1302 L 17765,1302 C 18191,2370 18408,3492 18408,4643 18408,5793 18191,6922 17762,7994 Z"/>
       </g>
      </g>
      <g class="com.sun.star.drawing.ClosedBezierShape">
       <g id="id24">
        <rect class="BoundingBox" stroke="none" fill="none" x="16558" y="4314" width="3524" height="716"/>
        <path fill="rgb(255,255,255)" stroke="none" d="M 19971,5028 L 16670,5028 C 16609,5028 16558,4978 16558,4917 L 16558,4426 C 16558,4365 16609,4315 16670,4315 L 19969,4315 C 20030,4315 20080,4365 20080,4426 L 20080,4917 C 20080,4981 20032,5028 19971,5028 Z"/>
       </g>
      </g>
      <g class="com.sun.star.drawing.PolyPolygonShape">
       <g id="id25">
        <rect class="BoundingBox" stroke="none" fill="none" x="16823" y="4645" width="132" height="47"/>
        <path fill="rgb(83,168,211)" stroke="none" d="M 16823,4645 L 16953,4645 16953,4690 16823,4690 16823,4645 Z"/>
       </g>
      </g>
      <g class="com.sun.star.drawing.ClosedBezierShape">
       <g id="id26">
        <rect class="BoundingBox" stroke="none" fill="none" x="17003" y="4454" width="229" height="388"/>
        <path fill="rgb(83,168,211)" stroke="none" d="M 17088,4790 C 17119,4790 17141,4786 17154,4772 17168,4759 17175,4743 17175,4721 17175,4700 17175,4698 17167,4687 17159,4676 17154,4671 17146,4666 17138,4661 17127,4655 17114,4655 17101,4653 17090,4653 17077,4653 L 17064,4653 17064,4614 17082,4614 C 17090,4614 17101,4614 17109,4611 17119,4609 17127,4606 17135,4601 17143,4595 17149,4590 17154,4582 17160,4574 17162,4564 17162,4553 17162,4542 17162,4535 17156,4527 17156,4519 17148,4513 17143,4508 17138,4503 17130,4499 17122,4497 17114,4494 17106,4495 17098,4495 17082,4495 17066,4497 17056,4503 17045,4508 17035,4513 17027,4519 L 17008,4482 C 17013,4479 17019,4476 17024,4474 17029,4471 17037,4468 17045,4466 17053,4463 17062,4460 17072,4458 17083,4455 17090,4455 17101,4455 17119,4455 17138,4458 17151,4463 17164,4468 17177,4474 17185,4484 17193,4492 17201,4503 17207,4516 17212,4527 17215,4540 17215,4553 17215,4566 17210,4587 17199,4601 17189,4614 17175,4624 17159,4632 17170,4635 17177,4640 17185,4645 17193,4651 17201,4658 17209,4666 17215,4674 17220,4685 17225,4695 17230,4706 17230,4716 17230,4729 17230,4743 17230,4761 17222,4774 17215,4788 17209,4801 17196,4809 17185,4819 17170,4827 17154,4832 17135,4838 17117,4840 17093,4840 17069,4840 17075,4841 17064,4838 17054,4836 17045,4835 17037,4832 17029,4830 17021,4827 17016,4827 17011,4825 17006,4825 17003,4822 L 17013,4780 C 17019,4782 17030,4785 17043,4790 17057,4795 17066,4790 17088,4790 Z"/>
       </g>
      </g>
      <g class="com.sun.star.drawing.ClosedBezierShape">
       <g id="id27">
        <rect class="BoundingBox" stroke="none" fill="none" x="17291" y="4454" width="246" height="383"/>
        <path fill="rgb(83,168,211)" stroke="none" d="M 17291,4645 C 17291,4585 17302,4536 17323,4505 17344,4473 17376,4455 17413,4455 17450,4455 17482,4470 17503,4505 17524,4539 17535,4585 17535,4645 17535,4706 17524,4753 17503,4785 17482,4817 17450,4835 17413,4835 17376,4835 17344,4820 17323,4785 17302,4751 17291,4705 17291,4645 Z M 17484,4645 C 17484,4624 17484,4605 17484,4587 17484,4568 17479,4553 17474,4540 17469,4527 17461,4516 17453,4508 17445,4500 17431,4497 17418,4497 17405,4497 17394,4500 17384,4508 17376,4516 17369,4527 17363,4540 17358,4553 17352,4569 17352,4587 17352,4606 17352,4624 17352,4645 17352,4667 17352,4685 17352,4703 17352,4722 17358,4737 17363,4750 17369,4764 17376,4774 17384,4782 17392,4790 17405,4793 17418,4793 17431,4793 17442,4790 17453,4782 17461,4774 17469,4764 17474,4750 17479,4737 17484,4722 17484,4703 17484,4685 17484,4663 17484,4645 Z"/>
       </g>
      </g>
      <g class="com.sun.star.drawing.ClosedBezierShape">
       <g id="id28">
        <rect class="BoundingBox" stroke="none" fill="none" x="17580" y="4489" width="150" height="166"/>
        <path fill="rgb(83,168,211)" stroke="none" d="M 17728,4572 C 17728,4585 17728,4595 17722,4606 17722,4617 17715,4624 17707,4632 17699,4640 17691,4645 17683,4647 17675,4653 17665,4653 17654,4653 17644,4653 17633,4650 17625,4647 17617,4643 17606,4637 17601,4632 17596,4626 17590,4617 17585,4606 17585,4595 17580,4585 17580,4572 17580,4558 17580,4547 17585,4537 17590,4526 17593,4519 17601,4511 17609,4503 17617,4497 17625,4495 17633,4490 17644,4490 17654,4490 17665,4490 17675,4492 17683,4495 17691,4500 17702,4505 17707,4511 17713,4516 17717,4526 17722,4537 17728,4547 17728,4558 17728,4572 Z M 17699,4572 C 17699,4553 17693,4539 17685,4529 17678,4518 17667,4513 17651,4513 17635,4513 17627,4519 17617,4529 17609,4540 17603,4553 17603,4572 17603,4590 17609,4603 17617,4614 17625,4624 17635,4630 17651,4630 17667,4630 17675,4624 17685,4614 17696,4603 17699,4590 17699,4572 Z"/>
       </g>
      </g>
      <g class="com.sun.star.drawing.PolyPolygonShape">
       <g id="id29">
        <rect class="BoundingBox" stroke="none" fill="none" x="17897" y="4547" width="243" height="240"/>
        <path fill="rgb(83,168,211)" stroke="none" d="M 17950,4668 L 18138,4745 18125,4785 17897,4687 17897,4645 18125,4548 18138,4587 17950,4668 Z"/>
       </g>
      </g>
      <g class="com.sun.star.drawing.ClosedBezierShape">
       <g id="id30">
        <rect class="BoundingBox" stroke="none" fill="none" x="18252" y="4459" width="306" height="484"/>
        <path fill="rgb(83,168,211)" stroke="none" d="M 18291,4941 L 18252,4941 C 18265,4920 18275,4896 18283,4870 L 18360,4606 C 18371,4569 18381,4539 18389,4521 18397,4502 18410,4487 18426,4476 18442,4466 18461,4460 18482,4460 18503,4460 18522,4466 18535,4479 18549,4492 18556,4508 18556,4527 18556,4572 18529,4603 18474,4624 18508,4640 18524,4666 18524,4700 18524,4735 18514,4764 18490,4790 18466,4817 18437,4832 18400,4832 18363,4832 18382,4833 18371,4830 18361,4828 18350,4822 18339,4811 18320,4870 18305,4914 18291,4941 Z M 18344,4790 C 18355,4811 18374,4819 18395,4819 18417,4819 18442,4804 18458,4772 18474,4741 18482,4711 18482,4687 18482,4663 18474,4643 18455,4630 18445,4632 18437,4632 18432,4632 18421,4632 18416,4630 18416,4622 18416,4614 18421,4611 18429,4611 18437,4611 18447,4614 18458,4619 18474,4611 18487,4595 18500,4574 18511,4553 18516,4531 18516,4513 18516,4494 18516,4490 18506,4484 18500,4476 18490,4474 18479,4474 18469,4474 18458,4479 18447,4487 18437,4495 18430,4508 18424,4527 18419,4545 18408,4577 18392,4624 L 18344,4790 Z"/>
       </g>
      </g>
      <g class="com.sun.star.drawing.PolyPolygonShape">
       <g id="id31">
        <rect class="BoundingBox" stroke="none" fill="none" x="18701" y="4547" width="243" height="240"/>
        <path fill="rgb(83,168,211)" stroke="none" d="M 18754,4668 L 18942,4745 18929,4785 18701,4687 18701,4645 18929,4548 18942,4587 18754,4668 Z"/>
       </g>
      </g>
      <g class="com.sun.star.drawing.ClosedBezierShape">
       <g id="id32">
        <rect class="BoundingBox" stroke="none" fill="none" x="19127" y="4454" width="230" height="388"/>
        <path fill="rgb(83,168,211)" stroke="none" d="M 19212,4790 C 19244,4790 19265,4786 19278,4772 19291,4759 19299,4743 19299,4721 19299,4700 19299,4698 19291,4687 19283,4676 19278,4671 19270,4666 19262,4661 19252,4655 19238,4655 19225,4653 19215,4653 19201,4653 L 19188,4653 19188,4614 19207,4614 C 19215,4614 19225,4614 19233,4611 19244,4609 19252,4606 19260,4601 19268,4595 19273,4590 19278,4582 19283,4574 19286,4564 19286,4553 19286,4542 19286,4535 19281,4527 19281,4519 19274,4513 19268,4508 19263,4503 19254,4499 19246,4497 19238,4494 19231,4495 19223,4495 19207,4495 19191,4497 19180,4503 19170,4508 19159,4513 19151,4519 L 19133,4482 C 19138,4479 19144,4476 19149,4474 19155,4471 19162,4468 19170,4466 19178,4463 19186,4460 19196,4458 19207,4455 19215,4455 19225,4455 19244,4455 19263,4458 19276,4463 19290,4468 19302,4474 19310,4484 19318,4492 19326,4503 19331,4516 19336,4527 19339,4540 19339,4553 19339,4566 19334,4587 19323,4601 19313,4614 19299,4624 19283,4632 19294,4635 19302,4640 19310,4645 19318,4651 19326,4658 19334,4666 19339,4674 19345,4685 19350,4695 19356,4706 19355,4716 19355,4729 19355,4743 19355,4761 19347,4774 19339,4788 19334,4801 19320,4809 19310,4819 19294,4827 19278,4832 19260,4838 19241,4840 19217,4840 19194,4840 19199,4841 19188,4838 19178,4836 19170,4835 19162,4832 19154,4830 19146,4827 19141,4827 19135,4825 19130,4825 19127,4822 L 19138,4780 C 19143,4782 19154,4785 19167,4790 19180,4795 19191,4790 19212,4790 Z"/>
       </g>
      </g>
      <g class="com.sun.star.drawing.ClosedBezierShape">
       <g id="id33">
        <rect class="BoundingBox" stroke="none" fill="none" x="19416" y="4454" width="245" height="383"/>
        <path fill="rgb(83,168,211)" stroke="none" d="M 19416,4645 C 19416,4585 19426,4536 19447,4505 19469,4473 19500,4455 19537,4455 19574,4455 19606,4470 19627,4505 19649,4539 19659,4585 19659,4645 19659,4706 19649,4753 19627,4785 19606,4817 19574,4835 19537,4835 19500,4835 19469,4820 19447,4785 19426,4751 19416,4705 19416,4645 Z M 19609,4645 C 19609,4624 19609,4605 19609,4587 19609,4568 19604,4553 19598,4540 19593,4527 19585,4516 19577,4508 19569,4500 19556,4497 19543,4497 19530,4497 19519,4500 19508,4508 19500,4516 19492,4527 19487,4540 19482,4553 19477,4569 19477,4587 19477,4606 19477,4624 19477,4645 19477,4667 19477,4685 19477,4703 19477,4722 19482,4737 19487,4750 19492,4764 19500,4774 19508,4782 19516,4790 19530,4793 19543,4793 19556,4793 19567,4790 19577,4782 19585,4774 19593,4764 19598,4750 19604,4737 19609,4722 19609,4703 19609,4685 19609,4663 19609,4645 Z"/>
       </g>
      </g>
      <g class="com.sun.star.drawing.ClosedBezierShape">
       <g id="id34">
        <rect class="BoundingBox" stroke="none" fill="none" x="19704" y="4489" width="150" height="166"/>
        <path fill="rgb(83,168,211)" stroke="none" d="M 19852,4572 C 19852,4585 19852,4595 19847,4606 19847,4617 19839,4624 19831,4632 19823,4640 19815,4645 19807,4647 19799,4653 19789,4653 19778,4653 19768,4653 19757,4650 19749,4647 19741,4643 19731,4637 19725,4632 19720,4626 19715,4617 19709,4606 19709,4595 19704,4585 19704,4572 19704,4558 19704,4547 19709,4537 19715,4526 19717,4519 19725,4511 19733,4503 19741,4497 19749,4495 19757,4490 19768,4490 19778,4490 19789,4490 19799,4492 19807,4495 19815,4500 19826,4505 19831,4511 19836,4516 19842,4526 19847,4537 19852,4547 19852,4558 19852,4572 Z M 19823,4572 C 19823,4553 19818,4539 19810,4529 19802,4518 19792,4513 19776,4513 19761,4513 19752,4519 19741,4529 19733,4540 19728,4553 19728,4572 19728,4590 19733,4603 19741,4614 19749,4624 19761,4630 19776,4630 19792,4630 19799,4624 19810,4614 19818,4603 19823,4590 19823,4572 Z"/>
       </g>
      </g>
      <g class="com.sun.star.drawing.PolyPolygonShape">
       <g id="id35">
        <rect class="BoundingBox" stroke="none" fill="none" x="17894" y="4761" width="226" height="120"/>
        <path fill="rgb(83,168,211)" stroke="none" d="M 17894,4791 L 17906,4761 18118,4849 18106,4879 17894,4791 Z"/>
       </g>
      </g>
      <g class="com.sun.star.drawing.PolyPolygonShape">
       <g id="id36">
        <rect class="BoundingBox" stroke="none" fill="none" x="18696" y="4758" width="227" height="119"/>
        <path fill="rgb(83,168,211)" stroke="none" d="M 18696,4787 L 18709,4758 18921,4846 18909,4875 18696,4787 Z"/>
       </g>
      </g>
      <g class="com.sun.star.drawing.PolyPolygonShape">
       <g id="id37">
        <rect class="BoundingBox" stroke="none" fill="none" x="17630" y="8158" width="1372" height="817"/>
        <path fill="rgb(255,255,255)" stroke="none" d="M 17733,8489 L 17733,8531 18852,8973 19000,8597 17887,8158 17852,8187 17778,8174 17720,8182 17683,8214 17640,8298 17630,8380 17648,8420 17683,8444 17736,8465 17733,8489 Z"/>
       </g>
      </g>
      <g class="com.sun.star.drawing.ClosedBezierShape">
       <g id="id38">
        <rect class="BoundingBox" stroke="none" fill="none" x="17602" y="8135" width="1435" height="874"/>
        <path fill="rgb(35,31,32)" stroke="none" d="M 17913,8139 C 17884,8129 17849,8139 17834,8166 L 17789,8147 C 17789,8147 17760,8137 17725,8147 17683,8161 17648,8200 17625,8264 17598,8327 17596,8380 17614,8417 17630,8449 17656,8460 17664,8462 L 17707,8478 17707,8478 C 17701,8494 17701,8512 17707,8528 17715,8544 17728,8557 17744,8563 L 18865,9007 19035,8584 17913,8139 Z M 17685,8412 L 17685,8412 C 17685,8412 17670,8407 17664,8393 17656,8378 17654,8346 17678,8285 17720,8182 17770,8198 17773,8198 L 17815,8214 17730,8430 17685,8412 Z M 18836,8941 L 17762,8518 C 17754,8515 17752,8507 17754,8502 L 17873,8200 C 17873,8195 17881,8192 17887,8192 L 17892,8192 18966,8616 18836,8941 Z"/>
       </g>
      </g>
      <g class="com.sun.star.drawing.PolyPolygonShape">
       <g id="id39">
        <rect class="BoundingBox" stroke="none" fill="none" x="17630" y="303" width="1372" height="814"/>
        <path fill="rgb(255,255,255)" stroke="none" d="M 17662,1032 L 17699,1085 17744,1108 17778,1106 17842,1082 17855,1108 17894,1116 19000,683 18852,304 17754,738 17733,759 17738,812 17664,847 17630,892 17635,963 17662,1032 Z"/>
       </g>
      </g>
      <g class="com.sun.star.drawing.ClosedBezierShape">
       <g id="id40">
        <rect class="BoundingBox" stroke="none" fill="none" x="17604" y="269" width="1433" height="875"/>
        <path fill="rgb(35,31,32)" stroke="none" d="M 18868,270 L 17746,714 C 17712,728 17696,767 17709,799 L 17709,799 17667,815 C 17659,817 17633,828 17617,860 17598,897 17601,950 17627,1013 17670,1116 17728,1135 17762,1135 17797,1135 17791,1130 17791,1130 L 17836,1111 C 17844,1122 17855,1132 17865,1138 17873,1138 17884,1143 17892,1143 17900,1143 17908,1143 17916,1138 L 19035,696 18868,270 Z M 17770,1082 C 17770,1082 17717,1101 17675,995 17651,934 17656,902 17662,886 17670,870 17680,868 17680,868 L 17725,849 17810,1066 17770,1082 Z M 17894,1090 C 17889,1090 17887,1090 17884,1090 17881,1090 17879,1090 17876,1082 L 17757,780 C 17757,773 17757,767 17765,765 L 18839,341 18969,669 17894,1090 Z"/>
       </g>
      </g>
      <g class="com.sun.star.drawing.PolyPolygonShape">
       <g id="id41">
        <rect class="BoundingBox" stroke="none" fill="none" x="17733" y="1160" width="280" height="391"/>
        <path fill="rgb(89,194,232)" stroke="none" d="M 17736,1161 L 18011,1439 17823,1376 17733,1550 17736,1161 Z"/>
       </g>
      </g>
      <g class="com.sun.star.drawing.PolyPolygonShape">
       <g id="id42">
        <rect class="BoundingBox" stroke="none" fill="none" x="17725" y="7756" width="269" height="378"/>
        <path fill="rgb(89,194,232)" stroke="none" d="M 17725,8132 L 17992,7864 17810,7936 17725,7756 17725,8132 Z"/>
       </g>
      </g>
     </g>
    </g>
   </g>
  </g>
 </g>
</svg>