<?xml version="1.0" encoding="UTF-8"?>
<!DOCTYPE svg PUBLIC "-//W3C//DTD SVG 1.1//EN" "http://www.w3.org/Graphics/SVG/1.1/DTD/svg11.dtd">
<svg version="1.2" width="192mm" height="108mm" viewBox="0 0 19200 10800" preserveAspectRatio="xMidYMid" fill-rule="evenodd" stroke-width="28.222" stroke-linejoin="round" xmlns="http://www.w3.org/2000/svg" xmlns:ooo="http://xml.openoffice.org/svg/export" xmlns:xlink="http://www.w3.org/1999/xlink" xmlns:presentation="http://sun.com/xmlns/staroffice/presentation" xmlns:smil="http://www.w3.org/2001/SMIL20/" xmlns:anim="urn:oasis:names:tc:opendocument:xmlns:animation:1.0" xml:space="preserve">
 <defs class="ClipPathGroup">
  <clipPath id="presentation_clip_path" clipPathUnits="userSpaceOnUse">
   <rect x="0" y="0" width="19200" height="10800"/>
  </clipPath>
  <clipPath id="presentation_clip_path_shrink" clipPathUnits="userSpaceOnUse">
   <rect x="19" y="10" width="19162" height="10779"/>
  </clipPath>
 </defs>
 <defs class="TextShapeIndex">
  <g ooo:slide="id1" ooo:id-list="id3 id4"/>
 </defs>
 <defs class="EmbeddedBulletChars">
  <g id="bullet-char-template-57356" transform="scale(0.00048828125,-0.00048828125)">
   <path d="M 580,1141 L 1163,571 580,0 -4,571 580,1141 Z"/>
  </g>
  <g id="bullet-char-template-57354" transform="scale(0.00048828125,-0.00048828125)">
   <path d="M 8,1128 L 1137,1128 1137,0 8,0 8,1128 Z"/>
  </g>
  <g id="bullet-char-template-10146" transform="scale(0.00048828125,-0.00048828125)">
   <path d="M 174,0 L 602,739 174,1481 1456,739 174,0 Z M 1358,739 L 309,1346 659,739 1358,739 Z"/>
  </g>
  <g id="bullet-char-template-10132" transform="scale(0.00048828125,-0.00048828125)">
   <path d="M 2015,739 L 1276,0 717,0 1260,543 174,543 174,936 1260,936 717,1481 1274,1481 2015,739 Z"/>
  </g>
  <g id="bullet-char-template-10007" transform="scale(0.00048828125,-0.00048828125)">
   <path d="M 0,-2 C -7,14 -16,27 -25,37 L 356,567 C 262,823 215,952 215,954 215,979 228,992 255,992 264,992 276,990 289,987 310,991 331,999 354,1012 L 381,999 492,748 772,1049 836,1024 860,1049 C 881,1039 901,1025 922,1006 886,937 835,863 770,784 769,783 710,716 594,584 L 774,223 C 774,196 753,168 711,139 L 727,119 C 717,90 699,76 672,76 641,76 570,178 457,381 L 164,-76 C 142,-110 111,-127 72,-127 30,-127 9,-110 8,-76 1,-67 -2,-52 -2,-32 -2,-23 -1,-13 0,-2 Z"/>
  </g>
  <g id="bullet-char-template-10004" transform="scale(0.00048828125,-0.00048828125)">
   <path d="M 285,-33 C 182,-33 111,30 74,156 52,228 41,333 41,471 41,549 55,616 82,672 116,743 169,778 240,778 293,778 328,747 346,684 L 369,508 C 377,444 397,411 428,410 L 1163,1116 C 1174,1127 1196,1133 1229,1133 1271,1133 1292,1118 1292,1087 L 1292,965 C 1292,929 1282,901 1262,881 L 442,47 C 390,-6 338,-33 285,-33 Z"/>
  </g>
  <g id="bullet-char-template-9679" transform="scale(0.00048828125,-0.00048828125)">
   <path d="M 813,0 C 632,0 489,54 383,161 276,268 223,411 223,592 223,773 276,916 383,1023 489,1130 632,1184 813,1184 992,1184 1136,1130 1245,1023 1353,916 1407,772 1407,592 1407,412 1353,268 1245,161 1136,54 992,0 813,0 Z"/>
  </g>
  <g id="bullet-char-template-8226" transform="scale(0.00048828125,-0.00048828125)">
   <path d="M 346,457 C 273,457 209,483 155,535 101,586 74,649 74,723 74,796 101,859 155,911 209,963 273,989 346,989 419,989 480,963 531,910 582,859 608,796 608,723 608,648 583,586 532,535 482,483 420,457 346,457 Z"/>
  </g>
  <g id="bullet-char-template-8211" transform="scale(0.00048828125,-0.00048828125)">
   <path d="M -4,459 L 1135,459 1135,606 -4,606 -4,459 Z"/>
  </g>
  <g id="bullet-char-template-61548" transform="scale(0.00048828125,-0.00048828125)">
   <path d="M 173,740 C 173,903 231,1043 346,1159 462,1274 601,1332 765,1332 928,1332 1067,1274 1183,1159 1299,1043 1357,903 1357,740 1357,577 1299,437 1183,322 1067,206 928,148 765,148 601,148 462,206 346,322 231,437 173,577 173,740 Z"/>
  </g>
 </defs>
 <g>
  <g id="id2" class="Master_Slide">
   <g id="bg-id2" class="Background"/>
   <g id="bo-id2" class="BackgroundObjects"/>
  </g>
 </g>
 <g class="SlideGroup">
  <g>
   <g id="container-id1">
    <g id="id1" class="Slide" clip-path="url(#presentation_clip_path)">
     <g class="Page">
      <g id="bg-id1" class="Background">
       <path fill="rgb(204,204,204)" stroke="none" d="M 9600,10799 L 0,10799 0,0 19199,0 19199,10799 9600,10799 Z"/>
      </g>
      <g class="Group">
       <g class="com.sun.star.drawing.ClosedBezierShape">
        <g id="id3">
         <rect class="BoundingBox" stroke="none" fill="none" x="6751" y="3338" width="5151" height="3864"/>
         <path fill="rgb(255,255,255)" stroke="none" d="M 11417,3338 L 7234,3338 C 6967,3338 6751,3555 6751,3821 L 6751,6717 C 6751,6984 6967,7200 7234,7200 L 11417,7200 C 11684,7200 11900,6984 11900,6717 L 11900,3821 C 11900,3555 11684,3338 11417,3338 Z M 11357,6717 L 7294,6717 7294,6717 C 7284,6717 7273,6714 7264,6709 7255,6704 7247,6697 7242,6687 7236,6678 7234,6668 7234,6657 L 7234,3881 7234,3881 C 7234,3871 7236,3860 7242,3851 7247,3842 7255,3834 7264,3829 7273,3824 7284,3821 7294,3821 L 11357,3821 11357,3821 C 11367,3821 11378,3824 11387,3829 11396,3834 11404,3842 11409,3851 11415,3860 11417,3871 11417,3881 L 11417,3881 11417,6657 11417,6657 C 11417,6668 11415,6678 11409,6687 11404,6697 11396,6704 11387,6709 11378,6714 11367,6717 11357,6717 Z M 8038,4223 C 7816,4223 7636,4403 7636,4625 7636,4848 7816,5028 8038,5028 8260,5028 8440,4848 8440,4625 8440,4403 8260,4223 8038,4223 Z M 7717,6235 L 10934,6235 10934,5430 10054,4550 C 10007,4503 9931,4503 9884,4550 L 8682,5752 8285,5355 C 8238,5308 8161,5308 8114,5355 L 7717,5752 7717,6235 Z"/>
        </g>
       </g>
       <g class="com.sun.star.drawing.ClosedBezierShape">
        <g id="id4">
         <rect class="BoundingBox" stroke="none" fill="none" x="6699" y="3286" width="5151" height="3865"/>
         <path fill="rgb(128,128,128)" stroke="none" d="M 11366,3287 L 7183,3287 C 6916,3287 6700,3503 6700,3770 L 6700,6666 C 6700,6933 6916,7149 7183,7149 L 11366,7149 C 11633,7149 11849,6933 11849,6666 L 11849,3770 C 11849,3503 11633,3287 11366,3287 Z M 11306,6666 L 7243,6666 7243,6666 C 7233,6666 7222,6663 7213,6658 7204,6653 7196,6646 7191,6636 7185,6627 7183,6617 7183,6606 L 7183,3830 7183,3830 C 7183,3820 7185,3809 7191,3800 7196,3790 7204,3783 7213,3778 7222,3773 7233,3770 7243,3770 L 11306,3770 11306,3770 C 11316,3770 11327,3773 11336,3778 11345,3783 11353,3790 11358,3800 11364,3809 11366,3820 11366,3830 L 11366,3830 11366,6606 11366,6606 C 11366,6617 11364,6627 11358,6636 11353,6646 11345,6653 11336,6658 11327,6663 11316,6666 11306,6666 Z M 7987,4172 C 7765,4172 7585,4352 7585,4574 7585,4796 7765,4977 7987,4977 8209,4977 8389,4796 8389,4574 8389,4352 8209,4172 7987,4172 Z M 7666,6184 L 10883,6184 10883,5379 10003,4499 C 9956,4452 9880,4452 9833,4499 L 8631,5701 8234,5304 C 8187,5256 8110,5256 8063,5304 L 7666,5701 7666,6184 Z"/>
        </g>
       </g>
      </g>
     </g>
    </g>
   </g>
  </g>
 </g>
</svg>