<?xml version="1.0" encoding="UTF-8"?>
<!DOCTYPE svg PUBLIC "-//W3C//DTD SVG 1.1//EN" "http://www.w3.org/Graphics/SVG/1.1/DTD/svg11.dtd">
<svg version="1.2" width="49mm" height="40mm" viewBox="0 0 4900 4000" preserveAspectRatio="xMidYMid" fill-rule="evenodd" stroke-width="28.222" stroke-linejoin="round" xmlns="http://www.w3.org/2000/svg" xmlns:ooo="http://xml.openoffice.org/svg/export" xmlns:xlink="http://www.w3.org/1999/xlink" xmlns:presentation="http://sun.com/xmlns/staroffice/presentation" xmlns:smil="http://www.w3.org/2001/SMIL20/" xmlns:anim="urn:oasis:names:tc:opendocument:xmlns:animation:1.0" xml:space="preserve">
 <defs class="ClipPathGroup">
  <clipPath id="presentation_clip_path" clipPathUnits="userSpaceOnUse">
   <rect x="0" y="0" width="4900" height="4000"/>
  </clipPath>
  <clipPath id="presentation_clip_path_shrink" clipPathUnits="userSpaceOnUse">
   <rect x="4" y="4" width="4891" height="3992"/>
  </clipPath>
 </defs>
 <defs class="TextShapeIndex">
  <g ooo:slide="id1" ooo:id-list="id3 id4 id5 id6 id7 id8 id9 id10 id11 id12"/>
 </defs>
 <defs class="EmbeddedBulletChars">
  <g id="bullet-char-template-57356" transform="scale(0.00048828125,-0.00048828125)">
   <path d="M 580,1141 L 1163,571 580,0 -4,571 580,1141 Z"/>
  </g>
  <g id="bullet-char-template-57354" transform="scale(0.00048828125,-0.00048828125)">
   <path d="M 8,1128 L 1137,1128 1137,0 8,0 8,1128 Z"/>
  </g>
  <g id="bullet-char-template-10146" transform="scale(0.00048828125,-0.00048828125)">
   <path d="M 174,0 L 602,739 174,1481 1456,739 174,0 Z M 1358,739 L 309,1346 659,739 1358,739 Z"/>
  </g>
  <g id="bullet-char-template-10132" transform="scale(0.00048828125,-0.00048828125)">
   <path d="M 2015,739 L 1276,0 717,0 1260,543 174,543 174,936 1260,936 717,1481 1274,1481 2015,739 Z"/>
  </g>
  <g id="bullet-char-template-10007" transform="scale(0.00048828125,-0.00048828125)">
   <path d="M 0,-2 C -7,14 -16,27 -25,37 L 356,567 C 262,823 215,952 215,954 215,979 228,992 255,992 264,992 276,990 289,987 310,991 331,999 354,1012 L 381,999 492,748 772,1049 836,1024 860,1049 C 881,1039 901,1025 922,1006 886,937 835,863 770,784 769,783 710,716 594,584 L 774,223 C 774,196 753,168 711,139 L 727,119 C 717,90 699,76 672,76 641,76 570,178 457,381 L 164,-76 C 142,-110 111,-127 72,-127 30,-127 9,-110 8,-76 1,-67 -2,-52 -2,-32 -2,-23 -1,-13 0,-2 Z"/>
  </g>
  <g id="bullet-char-template-10004" transform="scale(0.00048828125,-0.00048828125)">
   <path d="M 285,-33 C 182,-33 111,30 74,156 52,228 41,333 41,471 41,549 55,616 82,672 116,743 169,778 240,778 293,778 328,747 346,684 L 369,508 C 377,444 397,411 428,410 L 1163,1116 C 1174,1127 1196,1133 1229,1133 1271,1133 1292,1118 1292,1087 L 1292,965 C 1292,929 1282,901 1262,881 L 442,47 C 390,-6 338,-33 285,-33 Z"/>
  </g>
  <g id="bullet-char-template-9679" transform="scale(0.00048828125,-0.00048828125)">
   <path d="M 813,0 C 632,0 489,54 383,161 276,268 223,411 223,592 223,773 276,916 383,1023 489,1130 632,1184 813,1184 992,1184 1136,1130 1245,1023 1353,916 1407,772 1407,592 1407,412 1353,268 1245,161 1136,54 992,0 813,0 Z"/>
  </g>
  <g id="bullet-char-template-8226" transform="scale(0.00048828125,-0.00048828125)">
   <path d="M 346,457 C 273,457 209,483 155,535 101,586 74,649 74,723 74,796 101,859 155,911 209,963 273,989 346,989 419,989 480,963 531,910 582,859 608,796 608,723 608,648 583,586 532,535 482,483 420,457 346,457 Z"/>
  </g>
  <g id="bullet-char-template-8211" transform="scale(0.00048828125,-0.00048828125)">
   <path d="M -4,459 L 1135,459 1135,606 -4,606 -4,459 Z"/>
  </g>
  <g id="bullet-char-template-61548" transform="scale(0.00048828125,-0.00048828125)">
   <path d="M 173,740 C 173,903 231,1043 346,1159 462,1274 601,1332 765,1332 928,1332 1067,1274 1183,1159 1299,1043 1357,903 1357,740 1357,577 1299,437 1183,322 1067,206 928,148 765,148 601,148 462,206 346,322 231,437 173,577 173,740 Z"/>
  </g>
 </defs>
 <g>
  <g id="id2" class="Master_Slide">
   <g id="bg-id2" class="Background"/>
   <g id="bo-id2" class="BackgroundObjects"/>
  </g>
 </g>
 <g class="SlideGroup">
  <g>
   <g id="container-id1">
    <g id="id1" class="Slide" clip-path="url(#presentation_clip_path)">
     <g class="Page">
      <g class="Group">
       <g class="com.sun.star.drawing.ClosedBezierShape">
        <g id="id3">
         <rect class="BoundingBox" stroke="none" fill="none" x="1933" y="797" width="898" height="1193"/>
         <path fill="rgb(17,38,58)" stroke="none" d="M 2815,1114 C 2800,1048 2782,992 2745,945 2709,898 2652,861 2591,835 2536,812 2477,799 2381,797 2285,799 2228,812 2173,835 2112,861 2060,898 2023,945 1987,992 1966,1048 1951,1114 1936,1180 1933,1252 1933,1331 L 1933,1988 2125,1988 2125,1376 C 2125,1304 2132,1243 2142,1192 2151,1142 2168,1100 2191,1069 2213,1038 2250,1015 2287,1001 2312,991 2349,985 2381,982 2445,985 2451,992 2477,1001 2514,1015 2548,1038 2570,1069 2592,1101 2611,1142 2621,1192 2630,1243 2637,1304 2637,1376 L 2637,1988 2829,1988 2829,1331 C 2829,1252 2830,1180 2815,1114 Z"/>
        </g>
       </g>
       <g class="com.sun.star.drawing.ClosedBezierShape">
        <g id="id4">
         <rect class="BoundingBox" stroke="none" fill="none" x="1188" y="200" width="2388" height="2387"/>
         <path fill="rgb(17,38,58)" stroke="none" d="M 2381,200 C 1723,200 1188,734 1188,1393 1188,2051 1723,2585 2381,2585 3040,2585 3574,2051 3574,1393 3574,734 3040,200 2381,200 Z M 2381,392 C 2933,392 3382,841 3382,1393 3382,1944 2933,2393 2381,2393 1829,2393 1380,1944 1380,1393 1380,841 1829,392 2381,392 Z"/>
        </g>
       </g>
       <g class="com.sun.star.drawing.ClosedBezierShape">
        <g id="id5">
         <rect class="BoundingBox" stroke="none" fill="none" x="200" y="3180" width="449" height="598"/>
         <path fill="rgb(17,38,58)" stroke="none" d="M 641,3340 C 633,3306 624,3278 606,3255 588,3232 559,3213 529,3200 501,3188 472,3182 424,3181 376,3182 347,3188 320,3200 289,3213 263,3232 245,3255 227,3278 216,3306 209,3340 201,3372 200,3409 200,3448 L 200,3776 296,3776 296,3470 C 296,3434 299,3404 304,3378 309,3353 317,3333 328,3317 340,3301 358,3290 377,3283 389,3278 408,3275 424,3273 456,3275 459,3278 471,3283 490,3290 507,3302 518,3317 530,3333 539,3353 543,3378 548,3404 552,3434 552,3470 L 552,3776 648,3776 648,3448 C 648,3409 648,3372 641,3340 Z"/>
        </g>
       </g>
       <g class="com.sun.star.drawing.ClosedBezierShape">
        <g id="id6">
         <rect class="BoundingBox" stroke="none" fill="none" x="796" y="3185" width="510" height="612"/>
         <path fill="rgb(17,38,58)" stroke="none" d="M 1196,3435 C 1196,3388 1185,3349 1160,3319 1136,3289 1103,3274 1060,3274 1036,3274 1015,3278 997,3288 979,3297 963,3309 951,3324 938,3339 928,3356 921,3376 914,3395 909,3415 907,3435 L 1196,3435 Z M 796,3492 C 796,3441 804,3396 819,3357 833,3319 853,3287 878,3262 902,3236 931,3217 963,3204 995,3192 1028,3185 1061,3185 1140,3185 1200,3210 1242,3259 1284,3307 1304,3382 1304,3482 L 1304,3499 C 1304,3506 1304,3513 1303,3519 L 905,3519 C 909,3579 927,3626 957,3657 988,3688 1036,3704 1101,3704 1137,3704 1168,3701 1193,3694 1218,3688 1237,3682 1250,3676 L 1264,3763 C 1252,3770 1229,3777 1198,3784 1166,3792 1130,3795 1089,3795 1039,3795 995,3788 958,3772 921,3757 891,3736 867,3709 843,3682 825,3651 813,3614 802,3577 796,3536 796,3492 Z"/>
        </g>
       </g>
       <g class="com.sun.star.drawing.ClosedBezierShape">
        <g id="id7">
         <rect class="BoundingBox" stroke="none" fill="none" x="2497" y="3185" width="548" height="613"/>
         <path fill="rgb(17,38,58)" stroke="none" d="M 2935,3491 C 2935,3425 2920,3373 2890,3335 2861,3296 2821,3277 2770,3277 2719,3277 2679,3297 2650,3335 2620,3373 2606,3425 2606,3491 2606,3557 2620,3609 2650,3647 2679,3686 2719,3705 2770,3705 2821,3705 2861,3686 2890,3647 2920,3609 2935,3557 2935,3491 Z M 3043,3491 C 3043,3537 3037,3579 3023,3616 3010,3654 2991,3686 2967,3713 2942,3739 2913,3760 2880,3775 2846,3789 2810,3797 2770,3797 2731,3797 2694,3789 2660,3775 2627,3760 2598,3739 2574,3713 2549,3686 2530,3654 2517,3616 2504,3579 2497,3537 2497,3491 2497,3446 2504,3404 2517,3366 2530,3328 2549,3296 2574,3269 2598,3242 2627,3222 2660,3207 2694,3193 2731,3185 2770,3185 2809,3185 2846,3192 2880,3207 2913,3222 2942,3242 2967,3269 2991,3296 3010,3329 3023,3366 3037,3404 3043,3446 3043,3491 Z"/>
        </g>
       </g>
       <g class="com.sun.star.drawing.ClosedBezierShape">
        <g id="id8">
         <rect class="BoundingBox" stroke="none" fill="none" x="1470" y="3204" width="450" height="597"/>
         <path fill="rgb(17,38,58)" stroke="none" d="M 1477,3641 C 1485,3674 1494,3702 1512,3726 1530,3749 1559,3768 1589,3781 1617,3793 1646,3799 1694,3800 1742,3799 1771,3793 1798,3781 1829,3768 1855,3749 1873,3726 1891,3702 1902,3674 1909,3641 1917,3609 1918,3572 1918,3533 L 1918,3205 1822,3205 1822,3511 C 1822,3546 1819,3577 1814,3602 1809,3628 1800,3648 1790,3664 1778,3680 1760,3691 1741,3698 1728,3703 1710,3706 1694,3707 1662,3706 1659,3703 1647,3698 1628,3691 1611,3680 1600,3664 1588,3648 1579,3628 1574,3602 1570,3577 1566,3546 1566,3511 L 1566,3205 1470,3205 1470,3533 C 1470,3572 1470,3609 1477,3641 Z"/>
        </g>
       </g>
       <g class="com.sun.star.drawing.ClosedBezierShape">
        <g id="id9">
         <rect class="BoundingBox" stroke="none" fill="none" x="2097" y="3187" width="354" height="597"/>
         <path fill="rgb(17,38,58)" stroke="none" d="M 2324,3188 C 2355,3188 2381,3190 2403,3194 2425,3199 2441,3203 2450,3207 L 2431,3296 C 2422,3292 2409,3287 2393,3283 2376,3279 2356,3277 2332,3277 2284,3277 2250,3291 2230,3317 2211,3343 2201,3379 2201,3424 L 2201,3782 2097,3782 2097,3421 C 2097,3347 2115,3289 2152,3249 2189,3208 2246,3188 2324,3188 Z"/>
        </g>
       </g>
       <g class="com.sun.star.drawing.ClosedBezierShape">
        <g id="id10">
         <rect class="BoundingBox" stroke="none" fill="none" x="3153" y="3187" width="442" height="610"/>
         <path fill="rgb(17,38,58)" stroke="none" d="M 3438,3796 C 3391,3796 3350,3788 3315,3773 3280,3758 3250,3737 3226,3711 3201,3684 3184,3652 3172,3616 3160,3579 3154,3538 3154,3493 3154,3449 3160,3408 3173,3371 3186,3334 3205,3302 3229,3274 3252,3247 3281,3226 3316,3211 3351,3196 3389,3188 3431,3188 3457,3188 3484,3190 3510,3195 3536,3199 3560,3206 3584,3216 L 3561,3304 C 3545,3297 3527,3291 3507,3286 3486,3282 3465,3279 3442,3279 3383,3279 3339,3298 3308,3334 3277,3371 3262,3424 3262,3493 3262,3525 3266,3554 3272,3579 3280,3605 3291,3628 3306,3646 3322,3665 3341,3679 3365,3689 3388,3699 3417,3704 3451,3704 3479,3704 3504,3701 3526,3696 3549,3691 3566,3686 3579,3680 L 3593,3767 C 3587,3770 3579,3774 3567,3777 3557,3780 3544,3783 3530,3786 3516,3789 3500,3791 3485,3793 3469,3794 3453,3796 3438,3796 Z"/>
        </g>
       </g>
       <g class="com.sun.star.drawing.ClosedBezierShape">
        <g id="id11">
         <rect class="BoundingBox" stroke="none" fill="none" x="3699" y="3187" width="453" height="609"/>
         <path fill="rgb(17,38,58)" stroke="none" d="M 3928,3188 C 3969,3188 4005,3193 4033,3204 4062,3215 4085,3230 4102,3250 4120,3270 4132,3293 4140,3320 4147,3347 4151,3377 4151,3410 L 4151,3772 C 4142,3773 4130,3776 4113,3778 4097,3781 4079,3783 4060,3785 4040,3788 4018,3790 3994,3792 3971,3794 3948,3795 3924,3795 3892,3795 3862,3791 3834,3784 3807,3778 3783,3767 3763,3753 3743,3738 3727,3719 3716,3695 3705,3671 3699,3643 3699,3609 3699,3578 3706,3550 3719,3527 3732,3504 3749,3485 3772,3471 3794,3457 3820,3447 3850,3440 3880,3433 3911,3430 3943,3430 3954,3430 3965,3431 3976,3432 3987,3433 3997,3434 4007,3436 4017,3438 4026,3440 4034,3441 4041,3443 4046,3444 4049,3445 L 4049,3415 C 4049,3398 4047,3381 4044,3365 4040,3348 4033,3333 4024,3320 4014,3307 4001,3297 3984,3289 3967,3281 3946,3277 3919,3277 3885,3277 3855,3280 3829,3284 3803,3289 3784,3294 3772,3300 L 3759,3214 C 3773,3208 3795,3202 3826,3197 3858,3191 3891,3188 3928,3188 Z M 3937,3707 C 3961,3707 3983,3707 4002,3706 4021,3705 4037,3703 4049,3700 L 4049,3527 C 4042,3523 4030,3520 4013,3518 3996,3515 3976,3514 3952,3514 3937,3514 3920,3515 3903,3517 3885,3519 3869,3524 3855,3531 3840,3538 3828,3548 3818,3560 3809,3572 3804,3588 3804,3608 3804,3645 3816,3671 3840,3686 3864,3700 3896,3707 3937,3707 Z"/>
        </g>
       </g>
       <g class="com.sun.star.drawing.ClosedBezierShape">
        <g id="id12">
         <rect class="BoundingBox" stroke="none" fill="none" x="4322" y="3187" width="355" height="597"/>
         <path fill="rgb(17,38,58)" stroke="none" d="M 4550,3188 C 4581,3188 4607,3190 4629,3194 4651,3199 4667,3203 4675,3207 L 4656,3296 C 4647,3292 4634,3287 4618,3283 4602,3279 4582,3277 4558,3277 4509,3277 4475,3291 4456,3317 4437,3343 4427,3379 4427,3424 L 4427,3782 4323,3782 4323,3421 C 4323,3347 4341,3289 4378,3249 4414,3208 4472,3188 4550,3188 Z"/>
        </g>
       </g>
      </g>
     </g>
    </g>
   </g>
  </g>
 </g>
</svg>