<?xml version="1.0" encoding="UTF-8"?>
<!DOCTYPE svg PUBLIC "-//W3C//DTD SVG 1.1//EN" "http://www.w3.org/Graphics/SVG/1.1/DTD/svg11.dtd">
<svg version="1.2" width="140mm" height="83mm" viewBox="0 0 14000 8300" preserveAspectRatio="xMidYMid" fill-rule="evenodd" stroke-width="28.222" stroke-linejoin="round" xmlns="http://www.w3.org/2000/svg" xmlns:ooo="http://xml.openoffice.org/svg/export" xmlns:xlink="http://www.w3.org/1999/xlink" xmlns:presentation="http://sun.com/xmlns/staroffice/presentation" xmlns:smil="http://www.w3.org/2001/SMIL20/" xmlns:anim="urn:oasis:names:tc:opendocument:xmlns:animation:1.0" xmlns:svg="urn:oasis:names:tc:opendocument:xmlns:svg-compatible:1.0" xml:space="preserve">
 <defs class="ClipPathGroup">
  <clipPath id="presentation_clip_path" clipPathUnits="userSpaceOnUse">
   <rect x="0" y="0" width="14000" height="8300"/>
  </clipPath>
  <clipPath id="presentation_clip_path_shrink" clipPathUnits="userSpaceOnUse">
   <rect x="14" y="8" width="13972" height="8284"/>
  </clipPath>
 </defs>
 <defs class="TextShapeIndex">
  <g ooo:slide="id1" ooo:id-list="id3"/>
 </defs>
 <defs class="EmbeddedBulletChars">
  <g id="bullet-char-template-57356" transform="scale(0.00048828125,-0.00048828125)">
   <path d="M 580,1141 L 1163,571 580,0 -4,571 580,1141 Z"/>
  </g>
  <g id="bullet-char-template-57354" transform="scale(0.00048828125,-0.00048828125)">
   <path d="M 8,1128 L 1137,1128 1137,0 8,0 8,1128 Z"/>
  </g>
  <g id="bullet-char-template-10146" transform="scale(0.00048828125,-0.00048828125)">
   <path d="M 174,0 L 602,739 174,1481 1456,739 174,0 Z M 1358,739 L 309,1346 659,739 1358,739 Z"/>
  </g>
  <g id="bullet-char-template-10132" transform="scale(0.00048828125,-0.00048828125)">
   <path d="M 2015,739 L 1276,0 717,0 1260,543 174,543 174,936 1260,936 717,1481 1274,1481 2015,739 Z"/>
  </g>
  <g id="bullet-char-template-10007" transform="scale(0.00048828125,-0.00048828125)">
   <path d="M 0,-2 C -7,14 -16,27 -25,37 L 356,567 C 262,823 215,952 215,954 215,979 228,992 255,992 264,992 276,990 289,987 310,991 331,999 354,1012 L 381,999 492,748 772,1049 836,1024 860,1049 C 881,1039 901,1025 922,1006 886,937 835,863 770,784 769,783 710,716 594,584 L 774,223 C 774,196 753,168 711,139 L 727,119 C 717,90 699,76 672,76 641,76 570,178 457,381 L 164,-76 C 142,-110 111,-127 72,-127 30,-127 9,-110 8,-76 1,-67 -2,-52 -2,-32 -2,-23 -1,-13 0,-2 Z"/>
  </g>
  <g id="bullet-char-template-10004" transform="scale(0.00048828125,-0.00048828125)">
   <path d="M 285,-33 C 182,-33 111,30 74,156 52,228 41,333 41,471 41,549 55,616 82,672 116,743 169,778 240,778 293,778 328,747 346,684 L 369,508 C 377,444 397,411 428,410 L 1163,1116 C 1174,1127 1196,1133 1229,1133 1271,1133 1292,1118 1292,1087 L 1292,965 C 1292,929 1282,901 1262,881 L 442,47 C 390,-6 338,-33 285,-33 Z"/>
  </g>
  <g id="bullet-char-template-9679" transform="scale(0.00048828125,-0.00048828125)">
   <path d="M 813,0 C 632,0 489,54 383,161 276,268 223,411 223,592 223,773 276,916 383,1023 489,1130 632,1184 813,1184 992,1184 1136,1130 1245,1023 1353,916 1407,772 1407,592 1407,412 1353,268 1245,161 1136,54 992,0 813,0 Z"/>
  </g>
  <g id="bullet-char-template-8226" transform="scale(0.00048828125,-0.00048828125)">
   <path d="M 346,457 C 273,457 209,483 155,535 101,586 74,649 74,723 74,796 101,859 155,911 209,963 273,989 346,989 419,989 480,963 531,910 582,859 608,796 608,723 608,648 583,586 532,535 482,483 420,457 346,457 Z"/>
  </g>
  <g id="bullet-char-template-8211" transform="scale(0.00048828125,-0.00048828125)">
   <path d="M -4,459 L 1135,459 1135,606 -4,606 -4,459 Z"/>
  </g>
  <g id="bullet-char-template-61548" transform="scale(0.00048828125,-0.00048828125)">
   <path d="M 173,740 C 173,903 231,1043 346,1159 462,1274 601,1332 765,1332 928,1332 1067,1274 1183,1159 1299,1043 1357,903 1357,740 1357,577 1299,437 1183,322 1067,206 928,148 765,148 601,148 462,206 346,322 231,437 173,577 173,740 Z"/>
  </g>
 </defs>
 <g>
  <g id="id2" class="Master_Slide">
   <g id="bg-id2" class="Background"/>
   <g id="bo-id2" class="BackgroundObjects"/>
  </g>
 </g>
 <g class="SlideGroup">
  <g>
   <g id="container-id1">
    <g id="id1" class="Slide" clip-path="url(#presentation_clip_path)">
     <g class="Page">
      <g class="Graphic">
       <g id="id3">
        <rect class="BoundingBox" stroke="none" fill="none" x="600" y="600" width="12831" height="7342"/>
        <path fill="rgb(255,255,255)" stroke="none" d="M 635,635 L 13395,635 13395,7631 635,7631 635,635 635,635 Z"/>
        <path fill="rgb(190,190,190)" stroke="none" d="M 632,4219 L 2595,640 C 2613,614 2745,623 2728,649 L 635,4592 C 627,4611 617,4246 632,4219 L 632,4219 Z"/>
        <path fill="rgb(190,190,190)" stroke="none" d="M 13390,4997 L 12278,646 C 12278,617 12393,614 12394,646 L 13406,4062 C 13409,4091 13390,4997 13390,4997 L 13390,4997 Z"/>
        <path fill="rgb(190,190,190)" stroke="none" d="M 6948,7612 L 6733,7603 6755,7119 6968,7127 6948,7612 6948,7612 Z M 6978,6896 L 6765,6887 6794,6195 7007,6203 6978,6896 6978,6896 Z M 7016,5973 L 6803,5963 6831,5269 7044,5279 7016,5973 7016,5973 Z M 7056,5048 L 6843,5039 6871,4345 7085,4356 7056,5048 7056,5048 Z M 7096,4126 L 6883,4117 6912,3424 7125,3433 7096,4126 7096,4126 Z M 7135,3201 L 6921,3193 6949,2499 7163,2509 7135,3201 7135,3201 Z M 7175,2278 L 6961,2268 6990,1575 7203,1585 7175,2278 7175,2278 Z M 7215,1356 L 7001,1347 7031,653 7244,662 7215,1356 7215,1356 Z"/>
        <path fill="rgb(255,255,255)" stroke="none" d="M 6061,635 L 6222,1042 6270,1448 6438,1540 6495,1709 6395,1879 6252,1919 6252,2617 6210,3068 6141,3445 6033,3823 5921,4441 5717,4642 5006,4733 3299,4763 2218,4701 1396,4549 1201,4441 1171,4343 1112,3600 1145,3007 1244,2668 1348,2310 1502,1950 1263,1820 972,1758 898,1615 1015,1457 1211,1410 1457,1410 1557,1492 1557,1690 1597,1698 1823,924 1930,635 6061,635 6061,635 Z"/>
        <path fill="rgb(35,31,32)" stroke="none" d="M 3299,4786 L 2214,4724 1387,4571 1183,4456 1148,4345 1088,3600 1088,3597 1121,3001 1327,2301 1472,1958 1254,1840 955,1779 870,1612 1001,1436 1211,1386 1467,1386 1582,1481 1582,1669 1799,917 1908,628 1950,641 1844,930 1615,1723 1534,1709 1534,1504 1449,1432 1214,1432 1028,1478 928,1617 988,1737 1275,1800 1534,1940 1369,2317 1168,3013 1135,3600 1194,4338 1221,4424 1406,4526 2221,4678 3301,4741 5004,4710 5705,4621 5900,4429 6009,3819 6119,3437 6186,3063 6229,2614 6229,1904 6379,1860 6469,1707 6420,1557 6248,1462 6199,1047 6039,644 6082,626 6246,1039 6291,1434 6457,1525 6520,1711 6412,1897 6277,1936 6277,2617 6234,3071 6164,3449 6056,3831 5943,4453 5729,4662 5006,4757 3299,4786 3299,4786 Z"/>
        <path fill="rgb(35,31,32)" stroke="none" d="M 5723,1626 L 5821,1425 6270,1425 6270,1472 5851,1472 5723,1626 5723,1626 Z"/>
        <path fill="rgb(35,31,32)" stroke="none" d="M 5736,2000 L 5826,1898 5909,1872 6255,1897 6251,1943 5916,1917 5855,1937 5736,2000 5736,2000 Z"/>
        <path fill="rgb(35,31,32)" stroke="none" d="M 4878,3489 L 4813,3428 4994,3125 5336,3003 5763,2980 5765,2980 C 5826,3026 5826,3039 5826,3042 L 5826,3346 5711,3435 4878,3489 4878,3489 Z M 4843,3424 L 4887,3466 5701,3414 5803,3333 5803,3045 C 5798,3039 5774,3019 5753,3003 L 5337,3026 5008,3144 4843,3424 4843,3424 Z M 5803,3045 L 5803,3045 5803,3045 Z"/>
        <path fill="rgb(35,31,32)" stroke="none" d="M 2141,3414 L 1356,3361 1256,3269 1256,3262 C 1273,3149 1302,2975 1302,2966 1302,2957 1302,2953 1363,2906 L 1366,2906 1750,2929 2023,3052 2218,3354 2141,3414 2141,3414 Z M 1366,3339 L 2131,3391 2188,3348 2011,3068 1743,2950 1375,2927 C 1354,2943 1329,2962 1325,2968 1323,2994 1292,3189 1281,3260 L 1366,3339 1366,3339 Z M 1325,2968 L 1325,2968 1325,2968 Z M 1325,2966 L 1325,2966 1325,2966 Z"/>
        <path fill="rgb(35,31,32)" stroke="none" d="M 3520,2086 L 2036,2061 1820,1984 1776,1790 2098,623 2121,628 1799,1790 1840,1966 2041,2037 3520,2063 5260,2026 5459,1945 5499,1790 5349,628 5374,623 5523,1790 5477,1963 5262,2049 3520,2086 3520,2086 Z"/>
        <path fill="rgb(35,31,32)" stroke="none" d="M 4207,4521 L 2760,4521 2760,4120 4207,4120 4207,4521 4207,4521 Z M 2783,4498 L 4184,4498 4184,4142 2783,4142 2783,4498 2783,4498 Z"/>
        <path fill="rgb(35,31,32)" stroke="none" d="M 5755,4872 L 5337,4872 5231,4794 5208,4692 5231,4688 5250,4780 5348,4849 5745,4849 5909,4720 5954,4563 5997,3952 6021,3952 5978,4568 5928,4733 5755,4872 5755,4872 Z"/>
        <path fill="rgb(35,31,32)" stroke="none" d="M 1963,4826 L 1560,4826 1381,4678 1339,4526 1363,4521 1401,4665 1569,4803 1958,4803 2103,4733 2136,4681 2154,4689 2121,4752 1963,4826 1963,4826 Z"/>
        <path fill="rgb(255,255,255)" stroke="none" d="M 8312,635 L 8159,917 7932,1904 7846,1848 7481,1858 C 7481,1858 7440,1952 7429,1955 7419,1955 7412,2167 7412,2167 L 7552,2341 7771,2328 7720,2691 7786,3467 7739,3983 7749,4152 7917,4778 8109,4881 8821,5072 10270,5151 11989,5078 12709,4857 12786,4715 12833,3290 12759,2971 12573,2481 12499,2291 12797,2291 13013,2192 12966,1869 12874,1786 12591,1775 12496,1825 12496,2021 12401,2016 12049,1069 11852,679 11818,638 8312,635 8312,635 Z"/>
        <path fill="rgb(35,31,32)" stroke="none" d="M 10270,5175 L 10270,5175 8815,5094 8813,5094 8097,4902 7896,4794 7725,4153 7716,3983 7716,3983 C 7716,3981 7763,3467 7763,3467 L 7696,2691 7744,2354 7543,2365 7390,2176 7390,2167 C 7397,1963 7403,1940 7419,1934 7429,1922 7448,1882 7462,1848 L 7467,1834 7856,1825 7919,1866 8139,910 8296,626 8339,646 8187,927 7953,1943 7846,1873 7504,1882 C 7481,1937 7467,1961 7457,1970 7452,1994 7448,2081 7445,2160 L 7573,2317 7808,2305 7756,2693 7822,3469 7775,3985 7783,4149 7951,4763 8130,4860 8836,5048 10282,5129 11996,5054 12705,4838 12774,4710 12822,3294 12748,2980 12475,2270 12801,2270 12996,2181 12954,1882 12874,1811 12596,1797 12521,1839 12521,2047 12385,2040 12027,1079 11833,691 11802,651 11839,623 11876,670 12072,1063 12420,1995 12475,1995 12475,1813 12588,1754 12885,1764 12989,1860 13042,2208 12804,2317 12533,2317 12596,2474 12783,2966 12856,3287 12856,3287 C 12856,3290 12809,4720 12809,4720 L 12726,4875 11989,5101 10270,5175 10270,5175 Z M 7424,1931 C 7423,1931 7422,1931 7424,1931 L 7424,1931 Z"/>
        <path fill="rgb(35,31,32)" stroke="none" d="M 7771,2352 L 7798,2305 8092,2323 7771,2352 7771,2352 Z"/>
        <path fill="rgb(35,31,32)" stroke="none" d="M 8121,2150 L 7964,2126 7910,1911 7954,1898 8002,2084 8121,2150 8121,2150 Z"/>
        <path fill="rgb(35,31,32)" stroke="none" d="M 9104,2536 L 8590,2491 8301,2380 8455,1472 8626,1016 11804,1016 11989,1492 12224,2380 11818,2504 10266,2538 9104,2538 9104,2536 9104,2536 Z M 8597,2467 L 9104,2514 10268,2514 11818,2479 12198,2363 11967,1497 11788,1037 8642,1037 8476,1475 8327,2363 8597,2467 8597,2467 Z"/>
        <path fill="rgb(35,31,32)" stroke="none" d="M 11100,4662 L 9670,4662 9670,4244 11100,4244 11100,4662 11100,4662 Z M 9695,4639 L 11076,4639 11076,4267 9695,4267 9695,4639 9695,4639 Z"/>
        <path fill="rgb(35,31,32)" stroke="none" d="M 9057,3715 L 8252,3551 8145,3428 8114,3280 8114,3047 8270,3135 9000,3336 9057,3715 9057,3715 Z M 8265,3530 L 9028,3684 8979,3351 8260,3154 8137,3084 8137,3275 8168,3414 8265,3530 8265,3530 Z"/>
        <path fill="rgb(35,31,32)" stroke="none" d="M 11636,3717 L 11688,3380 11711,3317 12397,3082 12541,2932 12636,3176 12636,3322 12482,3486 11636,3717 11636,3717 Z M 11711,3387 L 11664,3684 12468,3466 12613,3311 12613,3176 12532,2971 12411,3098 12411,3098 11733,3331 11714,3387 11711,3387 11711,3387 Z"/>
        <path fill="rgb(35,31,32)" stroke="none" d="M 8583,5494 L 8583,5494 8024,5480 7853,5358 7798,4773 7815,4438 7838,4438 7822,4773 7877,5343 8033,5458 8583,5470 8706,5448 8791,5309 8803,5072 8827,5072 8815,5319 8721,5466 8583,5494 8583,5494 Z"/>
        <path fill="rgb(35,31,32)" stroke="none" d="M 12138,5448 L 11891,5408 11778,5302 11745,5090 11769,5085 11802,5293 11901,5385 12138,5425 12588,5392 12703,5290 12761,5085 12761,4715 12786,4715 12786,5090 12721,5304 12598,5416 12138,5448 12138,5448 Z"/>
        <path fill="rgb(114,114,114)" stroke="none" d="M 13395,7655 L 635,7655 C 621,7655 612,7645 612,7631 L 612,635 C 612,620 621,612 635,612 L 13395,612 C 13409,612 13418,620 13418,635 L 13418,7631 C 13418,7645 13409,7655 13395,7655 L 13395,7655 Z M 660,7608 L 13370,7608 13370,659 660,659 660,7608 660,7608 Z"/>
        <path fill="rgb(89,194,232)" stroke="none" d="M 853,4368 L 1327,4356 1327,4380 853,4368 853,4368 Z"/>
        <path fill="rgb(89,194,232)" stroke="none" d="M 1564,4353 L 2038,4341 2038,4396 1564,4388 1564,4353 1564,4353 Z"/>
        <path fill="rgb(89,194,232)" stroke="none" d="M 2276,4336 C 2354,4335 2434,4332 2512,4335 L 2750,4335 2750,4403 2512,4403 C 2434,4403 2354,4401 2276,4401 L 2276,4336 2276,4336 Z"/>
        <path fill="rgb(89,194,232)" stroke="none" d="M 2987,4335 L 3461,4335 3461,4403 2987,4403 2987,4335 2987,4335 Z"/>
        <path fill="rgb(89,194,232)" stroke="none" d="M 3697,4335 L 4171,4335 4171,4403 3697,4403 3697,4335 3697,4335 Z"/>
        <path fill="rgb(89,194,232)" stroke="none" d="M 4409,4335 L 4883,4335 4883,4403 4409,4403 4409,4335 4409,4335 Z"/>
        <path fill="rgb(89,194,232)" stroke="none" d="M 5120,4335 L 5594,4335 5594,4403 5120,4403 5120,4335 5120,4335 Z"/>
        <path fill="rgb(89,194,232)" stroke="none" d="M 5830,4335 L 6305,4335 6305,4403 5830,4403 5830,4335 5830,4335 Z"/>
        <path fill="rgb(89,194,232)" stroke="none" d="M 6542,4335 L 7016,4335 7016,4403 6542,4403 6542,4335 6542,4335 Z"/>
        <path fill="rgb(89,194,232)" stroke="none" d="M 7254,4335 L 7728,4335 7728,4403 7254,4403 7254,4335 7254,4335 Z"/>
        <path fill="rgb(89,194,232)" stroke="none" d="M 7964,4335 L 8438,4335 8438,4403 7964,4403 7964,4335 7964,4335 Z"/>
        <path fill="rgb(89,194,232)" stroke="none" d="M 8675,4335 L 9149,4335 9149,4403 8675,4403 8675,4335 8675,4335 Z"/>
        <path fill="rgb(89,194,232)" stroke="none" d="M 9387,4335 L 9861,4335 9861,4403 9387,4403 9387,4335 9387,4335 Z"/>
        <path fill="rgb(89,194,232)" stroke="none" d="M 10098,4335 L 10571,4335 10571,4403 10098,4403 10098,4335 10098,4335 Z"/>
        <path fill="rgb(89,194,232)" stroke="none" d="M 10808,4335 L 11283,4335 11283,4403 10808,4403 10808,4335 10808,4335 Z"/>
        <path fill="rgb(89,194,232)" stroke="none" d="M 11520,4335 C 11598,4335 11678,4336 11757,4336 L 11994,4341 11994,4395 11757,4399 C 11678,4401 11598,4403 11520,4401 L 11520,4335 11520,4335 Z"/>
        <path fill="rgb(89,194,232)" stroke="none" d="M 12231,4348 L 12705,4356 12705,4380 12231,4392 12231,4348 12231,4348 Z"/>
        <path fill="rgb(89,194,232)" stroke="none" d="M 12942,4362 L 13179,4368 12942,4376 12942,4362 12942,4362 Z"/>
        <path fill="rgb(89,194,232)" stroke="none" d="M 1093,4356 C 1093,4385 1085,4411 1071,4435 1058,4460 1037,4479 1013,4493 988,4507 960,4514 932,4514 904,4514 876,4507 851,4493 826,4479 806,4460 792,4435 778,4411 770,4385 770,4356 770,4330 778,4303 792,4279 806,4255 826,4234 851,4220 876,4207 903,4200 932,4200 960,4200 988,4207 1013,4220 1037,4234 1058,4255 1071,4279 1085,4303 1093,4330 1093,4356 L 1093,4356 Z"/>
        <path fill="rgb(89,194,232)" stroke="none" d="M 13276,4356 C 13276,4385 13268,4411 13254,4435 13240,4460 13220,4479 13196,4493 13171,4507 13143,4514 13115,4514 13087,4514 13059,4507 13035,4493 13010,4479 12990,4460 12975,4435 12961,4411 12954,4385 12954,4356 12954,4330 12961,4303 12975,4279 12990,4255 13010,4234 13035,4220 13059,4207 13087,4200 13115,4200 13143,4200 13171,4207 13196,4220 13220,4234 13240,4255 13254,4279 13269,4303 13276,4330 13276,4356 L 13276,4356 Z"/>
       </g>
      </g>
     </g>
    </g>
   </g>
  </g>
 </g>
</svg>