<?xml version="1.0" encoding="UTF-8"?>
<!DOCTYPE svg PUBLIC "-//W3C//DTD SVG 1.1//EN" "http://www.w3.org/Graphics/SVG/1.1/DTD/svg11.dtd">
<svg version="1.2" width="254mm" height="142.88mm" viewBox="0 0 25400 14288" preserveAspectRatio="xMidYMid" fill-rule="evenodd" stroke-width="28.222" stroke-linejoin="round" xmlns="http://www.w3.org/2000/svg" xmlns:ooo="http://xml.openoffice.org/svg/export" xmlns:xlink="http://www.w3.org/1999/xlink" xmlns:presentation="http://sun.com/xmlns/staroffice/presentation" xmlns:smil="http://www.w3.org/2001/SMIL20/" xmlns:anim="urn:oasis:names:tc:opendocument:xmlns:animation:1.0" xmlns:svg="urn:oasis:names:tc:opendocument:xmlns:svg-compatible:1.0" xml:space="preserve">
 <defs class="ClipPathGroup">
  <clipPath id="presentation_clip_path" clipPathUnits="userSpaceOnUse">
   <rect x="0" y="0" width="25400" height="14288"/>
  </clipPath>
  <clipPath id="presentation_clip_path_shrink" clipPathUnits="userSpaceOnUse">
   <rect x="25" y="14" width="25350" height="14260"/>
  </clipPath>
 </defs>
 <defs class="TextShapeIndex">
  <g ooo:slide="id1" ooo:id-list="id3 id4 id5 id6 id7 id8 id9 id10 id11 id12 id13 id14 id15 id16 id17 id18 id19 id20 id21 id22 id23 id24 id25 id26 id27 id28 id29 id30 id31 id32 id33 id34 id35 id36 id37 id38 id39 id40 id41 id42 id43 id44 id45 id46 id47 id48 id49 id50 id51 id52 id53 id54"/>
 </defs>
 <defs class="EmbeddedBulletChars">
  <g id="bullet-char-template-57356" transform="scale(0.00048828125,-0.00048828125)">
   <path d="M 580,1141 L 1163,571 580,0 -4,571 580,1141 Z"/>
  </g>
  <g id="bullet-char-template-57354" transform="scale(0.00048828125,-0.00048828125)">
   <path d="M 8,1128 L 1137,1128 1137,0 8,0 8,1128 Z"/>
  </g>
  <g id="bullet-char-template-10146" transform="scale(0.00048828125,-0.00048828125)">
   <path d="M 174,0 L 602,739 174,1481 1456,739 174,0 Z M 1358,739 L 309,1346 659,739 1358,739 Z"/>
  </g>
  <g id="bullet-char-template-10132" transform="scale(0.00048828125,-0.00048828125)">
   <path d="M 2015,739 L 1276,0 717,0 1260,543 174,543 174,936 1260,936 717,1481 1274,1481 2015,739 Z"/>
  </g>
  <g id="bullet-char-template-10007" transform="scale(0.00048828125,-0.00048828125)">
   <path d="M 0,-2 C -7,14 -16,27 -25,37 L 356,567 C 262,823 215,952 215,954 215,979 228,992 255,992 264,992 276,990 289,987 310,991 331,999 354,1012 L 381,999 492,748 772,1049 836,1024 860,1049 C 881,1039 901,1025 922,1006 886,937 835,863 770,784 769,783 710,716 594,584 L 774,223 C 774,196 753,168 711,139 L 727,119 C 717,90 699,76 672,76 641,76 570,178 457,381 L 164,-76 C 142,-110 111,-127 72,-127 30,-127 9,-110 8,-76 1,-67 -2,-52 -2,-32 -2,-23 -1,-13 0,-2 Z"/>
  </g>
  <g id="bullet-char-template-10004" transform="scale(0.00048828125,-0.00048828125)">
   <path d="M 285,-33 C 182,-33 111,30 74,156 52,228 41,333 41,471 41,549 55,616 82,672 116,743 169,778 240,778 293,778 328,747 346,684 L 369,508 C 377,444 397,411 428,410 L 1163,1116 C 1174,1127 1196,1133 1229,1133 1271,1133 1292,1118 1292,1087 L 1292,965 C 1292,929 1282,901 1262,881 L 442,47 C 390,-6 338,-33 285,-33 Z"/>
  </g>
  <g id="bullet-char-template-9679" transform="scale(0.00048828125,-0.00048828125)">
   <path d="M 813,0 C 632,0 489,54 383,161 276,268 223,411 223,592 223,773 276,916 383,1023 489,1130 632,1184 813,1184 992,1184 1136,1130 1245,1023 1353,916 1407,772 1407,592 1407,412 1353,268 1245,161 1136,54 992,0 813,0 Z"/>
  </g>
  <g id="bullet-char-template-8226" transform="scale(0.00048828125,-0.00048828125)">
   <path d="M 346,457 C 273,457 209,483 155,535 101,586 74,649 74,723 74,796 101,859 155,911 209,963 273,989 346,989 419,989 480,963 531,910 582,859 608,796 608,723 608,648 583,586 532,535 482,483 420,457 346,457 Z"/>
  </g>
  <g id="bullet-char-template-8211" transform="scale(0.00048828125,-0.00048828125)">
   <path d="M -4,459 L 1135,459 1135,606 -4,606 -4,459 Z"/>
  </g>
  <g id="bullet-char-template-61548" transform="scale(0.00048828125,-0.00048828125)">
   <path d="M 173,740 C 173,903 231,1043 346,1159 462,1274 601,1332 765,1332 928,1332 1067,1274 1183,1159 1299,1043 1357,903 1357,740 1357,577 1299,437 1183,322 1067,206 928,148 765,148 601,148 462,206 346,322 231,437 173,577 173,740 Z"/>
  </g>
 </defs>
 <g>
  <g id="id2" class="Master_Slide">
   <g id="bg-id2" class="Background"/>
   <g id="bo-id2" class="BackgroundObjects"/>
  </g>
 </g>
 <g class="SlideGroup">
  <g>
   <g id="container-id1">
    <g id="id1" class="Slide" clip-path="url(#presentation_clip_path)">
     <g class="Page">
      <g class="com.sun.star.drawing.PolyPolygonShape">
       <g id="id3">
        <rect class="BoundingBox" stroke="none" fill="none" x="7259" y="2595" width="18129" height="7800"/>
        <path fill="rgb(109,110,113)" stroke="none" d="M 25386,2596 L 7273,10346 7263,10384 7260,10393 25386,2604 25386,2596 Z"/>
       </g>
      </g>
      <g class="com.sun.star.drawing.PolyPolygonShape">
       <g id="id4">
        <rect class="BoundingBox" stroke="none" fill="none" x="6" y="10906" width="6004" height="2607"/>
        <path fill="rgb(109,110,113)" stroke="none" d="M 5962,10906 L 7,13454 7,13511 6009,10931 5962,10906 Z"/>
       </g>
      </g>
      <g class="com.sun.star.drawing.PolyPolygonShape">
       <g id="id5">
        <rect class="BoundingBox" stroke="none" fill="none" x="14770" y="8278" width="10618" height="6004"/>
        <path fill="rgb(109,110,113)" stroke="none" d="M 20503,11034 L 14770,14280 14823,14280 20516,11057 23512,9360 25386,8289 25386,8278 23500,9338 20503,11034 Z"/>
       </g>
      </g>
      <g class="com.sun.star.drawing.PolyPolygonShape">
       <g id="id6">
        <rect class="BoundingBox" stroke="none" fill="none" x="13945" y="7940" width="11443" height="6342"/>
        <path fill="rgb(109,110,113)" stroke="none" d="M 22996,9255 L 19845,11005 13945,14280 13999,14280 19858,11028 23010,9278 25386,7947 25386,7940 22996,9255 Z"/>
       </g>
      </g>
      <g class="com.sun.star.drawing.PolyPolygonShape">
       <g id="id7">
        <rect class="BoundingBox" stroke="none" fill="none" x="16059" y="8863" width="9329" height="5419"/>
        <path fill="rgb(109,110,113)" stroke="none" d="M 21702,11000 L 16059,14280 16112,14280 21715,11022 24662,9308 25386,8884 25386,8863 24650,9287 21702,11000 Z"/>
       </g>
      </g>
      <g class="com.sun.star.drawing.PolyPolygonShape">
       <g id="id8">
        <rect class="BoundingBox" stroke="none" fill="none" x="15220" y="8504" width="10168" height="5778"/>
        <path fill="rgb(109,110,113)" stroke="none" d="M 24144,9205 L 21039,10971 15220,14280 15274,14280 21052,10995 24157,9227 25386,8522 25386,8504 24144,9205 Z"/>
       </g>
      </g>
      <g class="com.sun.star.drawing.ClosedBezierShape">
       <g id="id9">
        <rect class="BoundingBox" stroke="none" fill="none" x="13763" y="4908" width="8974" height="5767"/>
        <path fill="rgb(255,255,255)" stroke="none" d="M 13763,8896 L 13763,8644 13845,8515 13986,8140 14499,7669 15204,7222 15666,6976 15870,6761 15764,6647 15744,6541 15838,6424 15912,6443 16076,6553 16393,6236 16875,5845 17250,5613 17970,5249 18731,4983 19028,4909 19310,4909 19996,5073 20357,4995 20572,4991 21528,5284 22398,5649 22543,5795 22641,6225 22669,6566 22735,6618 22735,6829 22669,6877 22505,7343 22453,7448 22108,7742 22042,7742 C 22042,7742 22000,8078 21797,8354 21595,8631 21427,8630 21374,8630 21321,8630 21033,8507 21033,8507 L 18282,9872 18165,9763 C 18165,9763 18083,10127 17949,10323 17816,10519 17645,10688 17413,10672 17182,10656 16872,10417 16872,10417 L 16836,10491 16730,10467 16366,10560 16137,10569 15752,10507 14927,10184 14375,9850 14007,9556 13828,9280 13775,9100 13763,8896 Z"/>
       </g>
      </g>
      <g class="com.sun.star.drawing.ClosedBezierShape">
       <g id="id10">
        <rect class="BoundingBox" stroke="none" fill="none" x="13724" y="4871" width="9055" height="5843"/>
        <path fill="rgb(17,17,17)" stroke="none" d="M 17443,10710 C 17432,10710 17422,10710 17410,10710 17217,10697 16980,10543 16888,10476 L 16860,10536 16733,10508 16374,10599 16137,10609 15744,10545 15740,10545 14912,10220 14909,10220 14355,9883 14352,9883 13980,9584 13793,9297 13738,9108 13724,8898 13724,8637 13810,8500 13953,8120 14479,7639 15186,7191 15643,6948 15816,6765 15727,6669 15702,6535 15824,6383 15929,6410 16072,6506 16370,6208 16853,5814 17234,5580 17957,5216 18723,4947 19025,4872 19317,4872 19998,5036 20354,4959 20580,4955 21545,5253 22421,5620 22580,5779 22682,6227 22708,6549 22777,6601 22777,6852 22704,6903 22542,7361 22487,7475 22125,7784 22078,7784 C 22060,7879 22001,8148 21830,8380 21616,8672 21436,8672 21376,8672 21317,8672 21121,8589 21036,8553 L 18276,9923 18187,9841 C 18157,9957 18084,10198 17982,10348 17814,10590 17639,10712 17443,10712 L 17443,10710 Z M 16857,10354 L 16896,10384 C 16898,10387 17198,10615 17415,10630 17595,10642 17755,10537 17916,10298 18043,10110 18125,9755 18126,9752 L 18142,9685 18290,9822 21033,8461 21051,8467 C 21184,8524 21347,8586 21376,8588 21425,8588 21575,8588 21767,8327 21961,8063 22004,7738 22005,7734 L 22009,7699 22096,7699 22424,7421 22470,7324 22638,6849 22698,6807 22698,6635 22633,6585 22604,6229 22509,5813 22378,5682 21517,5321 20569,5031 20364,5035 20000,5114 19310,4949 19037,4949 18746,5021 17990,5286 17274,5648 16901,5876 16422,6265 16084,6603 15898,6479 15854,6467 15788,6551 15803,6627 15925,6759 15691,7007 15225,7254 14524,7698 14021,8159 13882,8531 13804,8654 13804,8892 13816,9089 13866,9258 14039,9523 14399,9812 14946,10143 15764,10463 16141,10524 16362,10516 16732,10422 16816,10441 16857,10354 Z"/>
       </g>
      </g>
      <g class="com.sun.star.drawing.PolyPolygonShape">
       <g id="id11">
        <rect class="BoundingBox" stroke="none" fill="none" x="14140" y="9131" width="972" height="887"/>
        <path fill="rgb(17,17,17)" stroke="none" d="M 15110,10016 L 14140,9471 14140,9131 15110,9673 15110,10016 Z M 14206,9432 L 15044,9903 15044,9711 14206,9243 14206,9432 Z"/>
       </g>
      </g>
      <g class="com.sun.star.drawing.ClosedBezierShape">
       <g id="id12">
        <rect class="BoundingBox" stroke="none" fill="none" x="16860" y="9007" width="1451" height="1412"/>
        <path fill="rgb(17,17,17)" stroke="none" d="M 16885,10417 L 16860,10410 C 16860,10406 16954,10012 17048,9820 L 17066,9783 C 17169,9568 17245,9414 17468,9208 17645,9045 17883,8971 18062,9025 18166,9057 18237,9128 18263,9229 18341,9539 18297,9868 18296,9871 L 18269,9867 C 18269,9864 18313,9541 18236,9235 18212,9143 18150,9079 18054,9050 17885,9000 17656,9071 17485,9227 17266,9430 17192,9583 17089,9794 L 17070,9831 C 16979,10022 16886,10414 16885,10417 Z"/>
       </g>
      </g>
      <g class="com.sun.star.drawing.ClosedBezierShape">
       <g id="id13">
        <rect class="BoundingBox" stroke="none" fill="none" x="21021" y="7081" width="1127" height="1428"/>
        <path fill="rgb(17,17,17)" stroke="none" d="M 21048,8507 L 21021,8503 C 21069,8210 21220,7760 21435,7467 21643,7184 21805,7034 22022,7096 22216,7151 22127,7719 22123,7743 L 22096,7739 C 22121,7580 22157,7162 22014,7122 21811,7063 21661,7202 21455,7483 21244,7771 21095,8216 21048,8507 Z"/>
       </g>
      </g>
      <g class="com.sun.star.drawing.ClosedBezierShape">
       <g id="id14">
        <rect class="BoundingBox" stroke="none" fill="none" x="16463" y="5634" width="6011" height="3634"/>
        <path fill="rgb(17,17,17)" stroke="none" d="M 16463,9266 C 16497,9235 16528,9205 16564,9177 L 16615,9135 16668,9094 16721,9053 16775,9013 C 16811,8987 16847,8960 16883,8934 L 16991,8856 17101,8779 C 17173,8728 17246,8678 17320,8627 17615,8428 17912,8232 18212,8039 L 18212,8039 18294,8003 18290,8010 C 18290,7957 18302,7906 18314,7855 18327,7805 18342,7755 18359,7706 18393,7608 18436,7513 18482,7421 L 18499,7386 18518,7352 C 18530,7329 18542,7306 18555,7283 18581,7238 18606,7193 18633,7148 18686,7061 18741,6973 18801,6888 18859,6802 18922,6718 18990,6640 19059,6562 19132,6488 19212,6422 19370,6289 19549,6180 19731,6083 19914,5985 19916,5989 20010,5947 20104,5903 20201,5863 20297,5826 20394,5788 20490,5752 20589,5720 20638,5705 20688,5689 20737,5674 20787,5660 20838,5646 20889,5640 20941,5633 20994,5633 21045,5640 21097,5646 21148,5657 21199,5672 21299,5699 21397,5735 21493,5771 21590,5808 21686,5843 21785,5875 21883,5907 21982,5937 22083,5960 L 22083,5960 22472,5792 22086,5965 22083,5965 C 21981,5944 21882,5915 21783,5884 21684,5853 21586,5820 21489,5783 21393,5747 21295,5711 21196,5683 21146,5670 21095,5658 21045,5653 20994,5646 20943,5646 20892,5653 20842,5660 20791,5672 20741,5687 20691,5701 20642,5718 20593,5734 20495,5767 20397,5802 20302,5839 20206,5878 20111,5917 20017,5960 19923,6002 19829,6047 19738,6096 19555,6192 19378,6301 19220,6434 19140,6500 19068,6573 18999,6651 18931,6729 18869,6812 18811,6897 18753,6981 18697,7069 18645,7158 18617,7201 18592,7246 18567,7291 18553,7314 18542,7336 18530,7360 L 18511,7394 18494,7428 C 18448,7521 18407,7615 18372,7713 18355,7762 18341,7811 18329,7861 18317,7912 18308,7962 18305,8013 L 18305,8017 18301,8017 18219,8054 18219,8054 C 18070,8150 17920,8247 17772,8346 17624,8444 17475,8543 17328,8642 17181,8742 17033,8841 16888,8945 16851,8970 16815,8996 16779,9023 L 16725,9062 16672,9102 16619,9141 16568,9184 C 16530,9205 16497,9235 16463,9266 Z"/>
       </g>
      </g>
      <g class="com.sun.star.drawing.ClosedBezierShape">
       <g id="id15">
        <rect class="BoundingBox" stroke="none" fill="none" x="15658" y="5813" width="3199" height="2210"/>
        <path fill="rgb(17,17,17)" stroke="none" d="M 18100,8021 L 17936,8021 C 17031,7813 16093,7388 15658,6987 L 15677,6967 C 16109,7364 17040,7787 17941,7994 L 18084,7994 C 18115,7924 18338,7409 18524,7099 18678,6844 18778,6709 18811,6667 18705,6634 18166,6463 17512,6162 17296,6063 17025,5879 16976,5846 L 16404,6248 16388,6227 16975,5814 16983,5820 C 16986,5822 17287,6031 17521,6138 18245,6471 18830,6646 18835,6647 L 18855,6652 18842,6668 C 18842,6669 18735,6799 18545,7114 18347,7443 18107,8007 18104,8014 L 18100,8021 Z"/>
       </g>
      </g>
      <g class="com.sun.star.drawing.PolyPolygonShape">
       <g id="id16">
        <rect class="BoundingBox" stroke="none" fill="none" x="15847" y="6529" width="256" height="256"/>
        <path fill="rgb(17,17,17)" stroke="none" d="M 15847,6737 L 16055,6530 16101,6576 15894,6784 15847,6737 Z"/>
       </g>
      </g>
      <g class="com.sun.star.drawing.PolyPolygonShape">
       <g id="id17">
        <rect class="BoundingBox" stroke="none" fill="none" x="15333" y="9206" width="1051" height="528"/>
        <path fill="rgb(17,17,17)" stroke="none" d="M 16120,9732 L 15795,9681 15333,9562 15543,9206 15553,9206 16382,9358 16370,9379 16239,9658 16120,9732 Z M 15373,9545 L 15800,9654 16114,9705 16219,9641 16342,9378 15558,9235 15373,9545 Z"/>
       </g>
      </g>
      <g class="com.sun.star.drawing.PolyPolygonShape">
       <g id="id18">
        <rect class="BoundingBox" stroke="none" fill="none" x="13845" y="8128" width="459" height="853"/>
        <path fill="rgb(17,17,17)" stroke="none" d="M 14178,8979 L 13900,8730 13845,8568 13857,8449 13883,8452 13873,8564 13923,8715 14166,8933 14273,8614 14040,8370 13976,8255 13993,8157 13981,8151 13991,8128 14022,8141 14003,8249 14063,8355 14302,8607 14178,8979 Z"/>
       </g>
      </g>
      <g class="com.sun.star.drawing.ClosedBezierShape">
       <g id="id19">
        <rect class="BoundingBox" stroke="none" fill="none" x="18507" y="6202" width="1488" height="1877"/>
        <path fill="rgb(17,17,17)" stroke="none" d="M 19078,8077 L 18961,8077 18590,8005 18596,7978 18965,8051 19064,8051 19134,7923 19105,7841 18978,7760 C 18910,7746 18805,7725 18794,7723 18790,7723 18766,7735 18748,7747 L 18674,7809 18598,7863 18507,7858 18514,7841 C 18514,7837 18674,7422 18749,7275 L 18754,7265 C 18834,7112 18999,6794 19269,6577 19540,6359 19832,6212 19836,6211 L 19852,6203 19855,6220 C 19855,6224 19941,6655 19961,6859 19981,7062 19993,7427 19993,7431 L 19993,7440 19135,7847 19163,7924 19078,8077 Z M 18543,7833 L 18589,7836 18655,7788 18731,7725 C 18753,7713 18781,7697 18791,7697 18802,7697 18928,7723 18982,7734 L 18987,7734 19123,7821 19963,7422 C 19963,7365 19949,7045 19931,6860 19912,6680 19845,6323 19829,6241 19766,6274 19516,6408 19283,6595 19019,6808 18855,7124 18775,7275 L 18770,7286 C 18704,7415 18573,7754 18543,7833 Z"/>
       </g>
      </g>
      <g class="com.sun.star.drawing.ClosedBezierShape">
       <g id="id20">
        <rect class="BoundingBox" stroke="none" fill="none" x="19996" y="5847" width="1573" height="1467"/>
        <path fill="rgb(17,17,17)" stroke="none" d="M 20186,7312 L 20183,7292 C 20183,7288 20130,6833 20104,6642 20078,6451 20000,6153 19998,6150 L 19996,6139 20006,6134 C 20022,6126 20411,5943 20512,5904 20638,5858 20736,5841 20813,5850 20898,5862 21409,6080 21430,6089 L 21434,6089 C 21434,6091 21437,6095 21437,6095 21439,6100 21511,6239 21541,6352 21570,6467 21567,6532 21567,6535 L 21567,6543 21561,6547 20186,7312 Z M 20027,6154 C 20042,6210 20107,6466 20130,6638 20153,6807 20197,7180 20207,7270 L 21540,6529 C 21540,6510 21537,6451 21513,6362 21487,6261 21426,6137 21414,6113 21362,6092 20887,5888 20807,5878 20735,5867 20641,5884 20520,5929 20429,5964 20091,6125 20027,6154 Z"/>
       </g>
      </g>
      <g class="com.sun.star.drawing.ClosedBezierShape">
       <g id="id21">
        <rect class="BoundingBox" stroke="none" fill="none" x="19988" y="5067" width="1909" height="779"/>
        <path fill="rgb(17,17,17)" stroke="none" d="M 20000,5068 C 20161,5123 20322,5179 20483,5237 20564,5266 20643,5296 20724,5327 20803,5357 20883,5390 20962,5423 21119,5489 21277,5557 21431,5627 21587,5697 21742,5768 21895,5845 21741,5772 21585,5703 21427,5636 21270,5568 21113,5504 20954,5442 20875,5410 20796,5379 20715,5350 20635,5321 20555,5294 20474,5266 20313,5210 20150,5157 19988,5106 L 20000,5068 Z"/>
       </g>
      </g>
      <g class="com.sun.star.drawing.ClosedBezierShape">
       <g id="id22">
        <rect class="BoundingBox" stroke="none" fill="none" x="3370" y="1330" width="447" height="9363"/>
        <path fill="rgb(17,17,17)" stroke="none" d="M 3572,10691 C 3424,10691 3375,10617 3374,10614 L 3371,10609 3384,8859 3446,8786 3452,1441 C 3452,1434 3452,1400 3478,1371 3503,1344 3541,1331 3593,1331 3645,1331 3684,1344 3709,1371 3734,1398 3734,1430 3734,1437 L 3748,8779 3816,8852 3791,10609 3787,10614 C 3785,10617 3730,10687 3578,10689 3576,10689 3574,10689 3572,10689 L 3572,10691 Z M 3409,10595 C 3421,10609 3467,10652 3578,10650 3688,10650 3738,10607 3752,10594 L 3777,8868 3708,8795 3708,8787 3695,1435 3695,1435 C 3695,1433 3695,1413 3679,1396 3663,1379 3633,1369 3593,1369 3553,1369 3524,1379 3508,1396 3491,1414 3491,1437 3491,1438 L 3486,8799 3422,8872 3409,10595 Z"/>
       </g>
      </g>
      <g class="com.sun.star.drawing.ClosedBezierShape">
       <g id="id23">
        <rect class="BoundingBox" stroke="none" fill="none" x="3378" y="8859" width="369" height="107"/>
        <path fill="rgb(17,17,17)" stroke="none" d="M 3428,8859 L 3428,8859 C 3428,8861 3429,8863 3429,8864 L 3433,8872 C 3436,8877 3440,8882 3445,8886 3454,8896 3465,8905 3478,8911 3503,8926 3532,8934 3563,8938 3578,8938 3593,8942 3609,8942 3625,8942 3639,8942 3655,8942 3686,8939 3717,8933 3746,8918 3720,8935 3689,8947 3658,8954 3642,8958 3626,8960 3610,8962 3594,8964 3577,8964 3561,8964 3528,8964 3495,8960 3462,8947 3446,8941 3430,8933 3416,8921 3408,8915 3401,8909 3396,8901 3393,8897 3389,8893 3387,8889 3385,8886 3384,8885 3383,8882 3383,8882 3381,8880 3381,8878 3381,8877 3380,8876 3379,8873 L 3428,8860 3428,8859 Z"/>
       </g>
      </g>
      <g class="com.sun.star.drawing.PolyPolygonShape">
       <g id="id24">
        <rect class="BoundingBox" stroke="none" fill="none" x="4957" y="10348" width="3362" height="1844"/>
        <path fill="rgb(89,194,232)" stroke="none" d="M 4958,10394 L 4983,10348 8318,12144 8293,12190 4958,10394 Z"/>
       </g>
      </g>
      <g class="com.sun.star.drawing.PolyPolygonShape">
       <g id="id25">
        <rect class="BoundingBox" stroke="none" fill="none" x="4837" y="10301" width="489" height="369"/>
        <path fill="rgb(89,194,232)" stroke="none" d="M 5165,10668 L 5204,10632 4974,10375 5317,10425 5325,10372 4838,10301 5165,10668 Z"/>
       </g>
      </g>
      <g class="com.sun.star.drawing.PolyPolygonShape">
       <g id="id26">
        <rect class="BoundingBox" stroke="none" fill="none" x="7949" y="11871" width="488" height="369"/>
        <path fill="rgb(89,194,232)" stroke="none" d="M 7950,12167 L 7958,12115 8300,12166 8070,11907 8110,11871 8436,12238 7950,12167 Z"/>
       </g>
      </g>
      <g class="com.sun.star.drawing.PolyPolygonShape">
       <g id="id27">
        <rect class="BoundingBox" stroke="none" fill="none" x="8890" y="9658" width="5415" height="2541"/>
        <path fill="rgb(89,194,232)" stroke="none" d="M 8891,12149 L 14281,9658 14303,9706 8913,12197 8891,12149 Z"/>
       </g>
      </g>
      <g class="com.sun.star.drawing.PolyPolygonShape">
       <g id="id28">
        <rect class="BoundingBox" stroke="none" fill="none" x="8759" y="11901" width="493" height="349"/>
        <path fill="rgb(89,194,232)" stroke="none" d="M 9251,12208 L 9247,12155 8902,12183 9148,11940 9111,11901 8760,12248 9251,12208 Z"/>
       </g>
      </g>
      <g class="com.sun.star.drawing.PolyPolygonShape">
       <g id="id29">
        <rect class="BoundingBox" stroke="none" fill="none" x="13936" y="9636" width="491" height="348"/>
        <path fill="rgb(89,194,232)" stroke="none" d="M 14076,9982 L 14039,9945 14285,9701 13940,9730 13936,9677 14425,9636 14076,9982 Z"/>
       </g>
      </g>
      <g class="com.sun.star.drawing.PolyPolygonShape">
       <g id="id30">
        <rect class="BoundingBox" stroke="none" fill="none" x="4646" y="3278" width="54" height="6606"/>
        <path fill="rgb(89,194,232)" stroke="none" d="M 4647,3279 L 4699,3279 4699,9882 4647,9882 4647,3279 Z"/>
       </g>
      </g>
      <g class="com.sun.star.drawing.PolyPolygonShape">
       <g id="id31">
        <rect class="BoundingBox" stroke="none" fill="none" x="4504" y="9551" width="338" height="482"/>
        <path fill="rgb(89,194,232)" stroke="none" d="M 4841,9568 L 4792,9551 4673,9876 4554,9551 4505,9568 4673,10031 4841,9568 Z"/>
       </g>
      </g>
      <g class="com.sun.star.drawing.PolyPolygonShape">
       <g id="id32">
        <rect class="BoundingBox" stroke="none" fill="none" x="4504" y="3129" width="338" height="482"/>
        <path fill="rgb(89,194,232)" stroke="none" d="M 4841,3591 L 4792,3610 4673,3285 4554,3610 4505,3591 4673,3130 4841,3591 Z"/>
       </g>
      </g>
      <g class="com.sun.star.drawing.ClosedBezierShape">
       <g id="id33">
        <rect class="BoundingBox" stroke="none" fill="none" x="8429" y="12159" width="332" height="332"/>
        <path fill="rgb(89,194,232)" stroke="none" d="M 8760,12324 C 8760,12353 8752,12382 8738,12407 8723,12432 8703,12453 8678,12467 8653,12482 8624,12489 8595,12489 8566,12489 8537,12482 8512,12467 8486,12453 8466,12432 8452,12407 8437,12382 8430,12353 8430,12324 8430,12295 8437,12267 8452,12242 8466,12216 8486,12196 8512,12181 8537,12167 8566,12159 8595,12159 8624,12159 8653,12167 8678,12181 8703,12196 8724,12216 8738,12242 8753,12267 8760,12295 8760,12324 Z"/>
       </g>
      </g>
      <g class="com.sun.star.drawing.ClosedBezierShape">
       <g id="id34">
        <rect class="BoundingBox" stroke="none" fill="none" x="8416" y="12146" width="359" height="359"/>
        <path fill="rgb(255,255,255)" stroke="none" d="M 8595,12503 C 8497,12503 8417,12422 8417,12324 8417,12226 8497,12146 8595,12146 8693,12146 8774,12226 8774,12324 8774,12422 8694,12503 8595,12503 Z M 8595,12172 C 8512,12172 8443,12241 8443,12324 8443,12407 8512,12476 8595,12476 8678,12476 8747,12407 8747,12324 8747,12241 8680,12172 8595,12172 Z"/>
       </g>
      </g>
      <g class="com.sun.star.drawing.ClosedBezierShape">
       <g id="id35">
        <rect class="BoundingBox" stroke="none" fill="none" x="4507" y="10047" width="332" height="332"/>
        <path fill="rgb(89,194,232)" stroke="none" d="M 4838,10212 C 4838,10241 4830,10270 4816,10295 4801,10320 4781,10341 4756,10355 4730,10370 4702,10377 4673,10377 4644,10377 4615,10370 4590,10355 4565,10341 4544,10320 4530,10295 4515,10270 4508,10241 4508,10212 4508,10183 4515,10155 4530,10129 4544,10104 4565,10084 4590,10069 4615,10055 4644,10047 4673,10047 4702,10047 4730,10055 4756,10069 4781,10084 4802,10104 4816,10129 4831,10155 4838,10183 4838,10212 Z"/>
       </g>
      </g>
      <g class="com.sun.star.drawing.ClosedBezierShape">
       <g id="id36">
        <rect class="BoundingBox" stroke="none" fill="none" x="4494" y="10034" width="358" height="359"/>
        <path fill="rgb(255,255,255)" stroke="none" d="M 4673,10391 C 4575,10391 4495,10310 4495,10212 4495,10114 4575,10034 4673,10034 4771,10034 4851,10114 4851,10212 4851,10310 4771,10391 4673,10391 Z M 4673,10060 C 4590,10060 4521,10129 4521,10212 4521,10295 4590,10364 4673,10364 4756,10364 4825,10295 4825,10212 4825,10129 4756,10060 4673,10060 Z"/>
       </g>
      </g>
      <g class="com.sun.star.drawing.ClosedBezierShape">
       <g id="id37">
        <rect class="BoundingBox" stroke="none" fill="none" x="4507" y="2798" width="332" height="333"/>
        <path fill="rgb(89,194,232)" stroke="none" d="M 4838,2965 C 4838,2994 4830,3022 4816,3047 4801,3072 4781,3093 4756,3108 4730,3122 4702,3130 4673,3130 4644,3130 4615,3122 4590,3108 4565,3093 4544,3072 4530,3047 4515,3022 4508,2994 4508,2965 4508,2936 4515,2907 4530,2882 4544,2857 4565,2836 4590,2822 4615,2807 4644,2799 4673,2799 4702,2799 4730,2807 4756,2822 4781,2836 4802,2857 4816,2882 4831,2907 4838,2936 4838,2965 Z"/>
       </g>
      </g>
      <g class="com.sun.star.drawing.ClosedBezierShape">
       <g id="id38">
        <rect class="BoundingBox" stroke="none" fill="none" x="4494" y="2785" width="358" height="359"/>
        <path fill="rgb(255,255,255)" stroke="none" d="M 4673,3143 C 4575,3143 4495,3062 4495,2965 4495,2867 4575,2786 4673,2786 4771,2786 4851,2867 4851,2965 4851,3062 4771,3143 4673,3143 Z M 4673,2813 C 4590,2813 4521,2881 4521,2965 4521,3048 4590,3117 4673,3117 4756,3117 4825,3048 4825,2965 4825,2881 4756,2813 4673,2813 Z"/>
       </g>
      </g>
      <g class="com.sun.star.drawing.ClosedBezierShape">
       <g id="id39">
        <rect class="BoundingBox" stroke="none" fill="none" x="14422" y="9397" width="333" height="332"/>
        <path fill="rgb(89,194,232)" stroke="none" d="M 14753,9562 C 14753,9591 14746,9619 14731,9644 14717,9670 14695,9691 14670,9705 14645,9720 14617,9727 14588,9727 14559,9727 14530,9720 14505,9705 14480,9691 14460,9670 14445,9644 14431,9619 14422,9591 14422,9562 14422,9533 14430,9504 14445,9479 14459,9454 14480,9434 14505,9419 14530,9405 14559,9397 14588,9397 14617,9397 14645,9405 14670,9419 14695,9434 14716,9454 14731,9479 14745,9504 14753,9533 14753,9562 Z"/>
       </g>
      </g>
      <g class="com.sun.star.drawing.ClosedBezierShape">
       <g id="id40">
        <rect class="BoundingBox" stroke="none" fill="none" x="14409" y="9383" width="359" height="359"/>
        <path fill="rgb(255,255,255)" stroke="none" d="M 14588,9740 C 14490,9740 14409,9660 14409,9562 14409,9464 14491,9383 14588,9383 14686,9383 14766,9464 14766,9562 14766,9660 14685,9740 14588,9740 Z M 14588,9410 C 14504,9410 14436,9479 14436,9562 14436,9645 14505,9714 14588,9714 14672,9714 14740,9645 14740,9562 14740,9479 14671,9410 14588,9410 Z"/>
       </g>
      </g>
      <g class="com.sun.star.drawing.PolyPolygonShape">
       <g id="id41">
        <rect class="BoundingBox" stroke="none" fill="none" x="4686" y="10185" width="71" height="46"/>
        <path fill="rgb(89,194,232)" stroke="none" d="M 4687,10189 L 4753,10185 4756,10224 4690,10229 4687,10189 Z"/>
       </g>
      </g>
      <g class="com.sun.star.drawing.PolyPolygonShape">
       <g id="id42">
        <rect class="BoundingBox" stroke="none" fill="none" x="4878" y="9555" width="9511" height="666"/>
        <path fill="rgb(89,194,232)" stroke="none" d="M 4882,10219 L 4879,10179 5010,10171 5013,10211 4882,10219 Z M 5142,10202 L 5140,10162 5270,10154 5273,10194 5142,10202 Z M 5403,10184 L 5400,10145 5531,10137 5534,10176 5403,10184 Z M 5663,10167 L 5660,10127 5791,10120 5794,10159 5663,10167 Z M 5924,10150 L 5921,10110 6052,10102 6054,10142 5924,10150 Z M 6184,10133 L 6181,10093 6312,10085 6315,10125 6184,10133 Z M 6444,10117 L 6442,10077 6573,10069 6575,10109 6444,10117 Z M 6705,10100 L 6702,10060 6833,10052 6836,10092 6705,10100 Z M 6965,10083 L 6963,10043 7093,10035 7096,10075 6965,10083 Z M 7226,10065 L 7223,10026 7354,10018 7356,10057 7226,10065 Z M 7486,10048 L 7483,10009 7614,10001 7617,10040 7486,10048 Z M 7746,10031 L 7744,9991 7875,9983 7877,10023 7746,10031 Z M 8007,10014 L 8004,9974 8135,9966 8138,10006 8007,10014 Z M 8267,9997 L 8265,9957 8395,9949 8398,9989 8267,9997 Z M 8528,9979 L 8525,9940 8656,9932 8659,9972 8528,9979 Z M 8788,9962 L 8785,9923 8916,9915 8919,9954 8788,9962 Z M 9049,9945 L 9046,9905 9177,9898 9179,9937 9049,9945 Z M 9309,9928 L 9306,9888 9437,9880 9440,9920 9309,9928 Z M 9569,9911 L 9567,9871 9698,9863 9700,9903 9569,9911 Z M 9830,9894 L 9827,9854 9958,9846 9961,9886 9830,9894 Z M 10090,9876 L 10088,9837 10218,9829 10221,9868 10090,9876 Z M 10351,9859 L 10348,9820 10479,9812 10481,9851 10351,9859 Z M 10611,9842 L 10608,9802 10739,9794 10742,9834 10611,9842 Z M 10871,9825 L 10869,9785 11000,9777 11002,9817 10871,9825 Z M 11132,9808 L 11129,9768 11260,9760 11263,9800 11132,9808 Z M 11392,9792 L 11390,9752 11520,9744 11523,9784 11392,9792 Z M 11653,9775 L 11650,9735 11781,9727 11784,9767 11653,9775 Z M 11913,9757 L 11910,9718 12041,9710 12044,9749 11913,9757 Z M 12174,9740 L 12171,9701 12302,9693 12304,9732 12174,9740 Z M 12434,9723 L 12431,9683 12562,9675 12565,9715 12434,9723 Z M 12694,9706 L 12692,9666 12822,9658 12824,9698 12694,9706 Z M 12954,9689 L 12951,9649 13082,9641 13085,9681 12954,9689 Z M 13214,9671 L 13212,9632 13342,9624 13345,9664 13214,9671 Z M 13475,9654 L 13472,9615 13603,9607 13605,9646 13475,9654 Z M 13735,9637 L 13732,9597 13863,9590 13866,9629 13735,9637 Z M 13995,9620 L 13993,9580 14124,9572 14126,9612 13995,9620 Z M 14256,9603 L 14253,9563 14384,9555 14387,9595 14256,9603 Z"/>
       </g>
      </g>
      <g class="com.sun.star.drawing.PolyPolygonShape">
       <g id="id43">
        <rect class="BoundingBox" stroke="none" fill="none" x="4827" y="3064" width="9603" height="6406"/>
        <path fill="rgb(89,194,232)" stroke="none" d="M 14405,9468 L 14296,9395 14318,9362 14428,9435 14405,9468 Z M 14184,9321 L 14075,9249 14097,9215 14207,9288 14184,9321 Z M 13965,9176 L 13855,9103 13878,9070 13988,9143 13965,9176 Z M 13744,9029 L 13635,8956 13657,8923 13767,8996 13744,9029 Z M 13525,8882 L 13415,8810 13438,8777 13547,8849 13525,8882 Z M 13304,8736 L 13194,8663 13217,8630 13327,8703 13304,8736 Z M 13083,8589 L 12974,8516 12996,8483 13106,8556 13083,8589 Z M 12864,8444 L 12754,8371 12777,8338 12886,8411 12864,8444 Z M 12644,8297 L 12534,8224 12557,8191 12667,8264 12644,8297 Z M 12425,8150 L 12315,8077 12337,8044 12447,8117 12425,8150 Z M 12204,8003 L 12094,7931 12117,7898 12226,7970 12204,8003 Z M 11983,7857 L 11873,7784 11896,7751 12006,7824 11983,7857 Z M 11764,7711 L 11654,7639 11676,7606 11786,7678 11764,7711 Z M 11543,7565 L 11433,7492 11456,7459 11565,7532 11543,7565 Z M 11324,7418 L 11214,7345 11236,7312 11346,7385 11324,7418 Z M 11103,7271 L 10993,7199 11016,7165 11125,7238 11103,7271 Z M 10883,7125 L 10774,7053 10796,7020 10906,7092 10883,7125 Z M 10663,6979 L 10553,6906 10575,6873 10685,6946 10663,6979 Z M 10442,6833 L 10332,6761 10355,6728 10464,6800 10442,6833 Z M 10222,6687 L 10113,6614 10135,6581 10245,6654 10222,6687 Z M 10002,6540 L 9892,6467 9914,6434 10024,6507 10002,6540 Z M 9782,6393 L 9672,6321 9695,6288 9805,6360 9782,6393 Z M 9561,6247 L 9452,6174 9474,6141 9584,6213 9561,6247 Z M 9342,6101 L 9232,6028 9255,5995 9364,6068 9342,6101 Z M 9121,5954 L 9011,5882 9034,5849 9144,5921 9121,5954 Z M 8900,5808 L 8791,5735 8813,5702 8923,5775 8900,5808 Z M 8681,5661 L 8571,5588 8594,5555 8703,5628 8681,5661 Z M 8460,5514 L 8351,5442 8373,5409 8483,5481 8460,5514 Z M 8241,5369 L 8131,5296 8154,5263 8263,5336 8241,5369 Z M 8020,5222 L 7910,5149 7933,5116 8043,5189 8020,5222 Z M 7799,5075 L 7690,5003 7712,4970 7822,5042 7799,5075 Z M 7580,4929 L 7470,4856 7493,4823 7602,4896 7580,4929 Z M 7359,4782 L 7249,4709 7272,4676 7382,4749 7359,4782 Z M 7140,4635 L 7030,4563 7052,4530 7162,4602 7140,4635 Z M 6919,4490 L 6809,4417 6832,4384 6941,4457 6919,4490 Z M 6699,4343 L 6590,4271 6612,4237 6722,4310 6699,4343 Z M 6479,4197 L 6369,4124 6391,4091 6501,4163 6479,4197 Z M 6258,4050 L 6148,3977 6171,3944 6280,4017 6258,4050 Z M 6039,3903 L 5929,3830 5951,3797 6061,3870 6039,3903 Z M 5818,3758 L 5708,3685 5731,3652 5840,3725 5818,3758 Z M 5598,3611 L 5489,3538 5511,3505 5621,3578 5598,3611 Z M 5378,3464 L 5268,3392 5290,3359 5400,3431 5378,3464 Z M 5157,3318 L 5047,3245 5070,3212 5179,3285 5157,3318 Z M 4937,3171 L 4828,3098 4850,3065 4960,3138 4937,3171 Z"/>
       </g>
      </g>
      <g class="com.sun.star.drawing.PolyPolygonShape">
       <g id="id44">
        <rect class="BoundingBox" stroke="none" fill="none" x="4891" y="6354" width="357" height="459"/>
        <path fill="rgb(83,168,211)" stroke="none" d="M 5182,6355 L 5247,6355 5247,6812 5182,6812 5182,6601 4957,6601 4957,6812 4892,6812 4892,6355 4957,6355 4957,6545 5182,6545 5182,6355 Z"/>
       </g>
      </g>
      <g class="com.sun.star.drawing.ClosedBezierShape">
       <g id="id45">
        <rect class="BoundingBox" stroke="none" fill="none" x="5706" y="11354" width="577" height="459"/>
        <path fill="rgb(83,168,211)" stroke="none" d="M 5996,11501 C 5978,11560 5959,11615 5941,11665 5922,11716 5902,11764 5884,11811 L 5819,11811 C 5795,11744 5775,11673 5757,11599 5740,11523 5723,11443 5707,11354 L 5774,11354 C 5781,11388 5787,11423 5794,11457 5801,11492 5807,11525 5814,11558 5820,11589 5828,11621 5835,11650 5842,11679 5849,11707 5856,11732 5873,11686 5893,11636 5912,11580 5931,11525 5950,11468 5967,11408 L 6023,11408 C 6040,11468 6058,11525 6078,11580 6098,11636 6118,11686 6135,11732 6142,11707 6150,11681 6156,11650 6163,11621 6171,11589 6177,11558 6184,11525 6190,11492 6197,11457 6203,11423 6210,11388 6217,11354 L 6282,11354 C 6266,11443 6249,11524 6232,11599 6214,11675 6193,11744 6171,11811 L 6106,11811 C 6086,11764 6068,11715 6049,11665 6033,11614 6015,11560 5996,11501 Z"/>
       </g>
      </g>
      <g class="com.sun.star.drawing.ClosedBezierShape">
       <g id="id46">
        <rect class="BoundingBox" stroke="none" fill="none" x="6316" y="10409" width="370" height="352"/>
        <path fill="rgb(83,168,211)" stroke="none" d="M 6684,10725 C 6684,10733 6684,10738 6682,10741 6681,10745 6680,10747 6678,10749 6677,10749 6674,10752 6672,10753 6669,10755 6665,10755 6661,10755 6657,10755 6653,10755 6648,10758 6643,10761 6639,10758 6635,10758 6625,10758 6618,10758 6610,10755 6602,10753 6594,10751 6587,10745 6580,10740 6575,10734 6571,10724 6567,10715 6563,10704 6562,10689 6558,10700 6551,10709 6545,10717 6538,10725 6529,10733 6520,10739 6510,10746 6500,10750 6488,10754 6476,10758 6464,10759 6451,10759 6427,10759 6407,10755 6390,10746 6373,10737 6360,10725 6349,10710 6339,10695 6330,10677 6325,10656 6319,10635 6317,10613 6317,10589 6317,10565 6320,10538 6327,10515 6333,10493 6342,10474 6354,10458 6365,10442 6381,10430 6399,10422 6416,10414 6438,10409 6462,10409 6485,10409 6491,10412 6504,10417 6517,10422 6529,10429 6540,10438 6550,10447 6558,10460 6565,10474 6571,10489 6575,10504 6578,10523 6582,10506 6584,10491 6587,10478 6590,10466 6591,10455 6592,10446 6594,10438 6594,10431 6595,10426 6595,10422 6596,10418 6598,10418 6599,10418 6598,10418 6600,10418 6601,10418 6603,10418 6606,10418 6608,10418 6610,10418 6614,10418 L 6639,10418 C 6643,10418 6645,10418 6648,10418 6651,10418 6652,10421 6652,10422 6653,10422 6653,10425 6653,10426 6653,10430 6653,10435 6652,10443 6651,10451 6649,10461 6647,10471 6644,10482 6641,10494 6639,10507 6636,10520 6632,10532 6629,10545 6625,10558 6623,10572 6619,10583 6615,10595 6611,10607 6607,10618 6607,10638 6608,10654 6611,10667 6614,10680 6616,10689 6620,10695 6624,10702 6628,10706 6632,10708 6636,10710 6641,10712 6647,10712 6652,10712 6654,10712 6658,10712 6661,10712 6665,10712 6668,10709 6670,10709 6673,10709 6674,10706 6677,10706 6678,10706 6680,10706 6681,10706 6682,10706 6682,10706 6682,10706 6684,10706 6684,10710 6684,10714 6685,10714 6685,10717 6682,10720 6684,10724 6684,10728 L 6684,10725 Z M 6546,10582 C 6546,10560 6543,10541 6540,10525 6536,10509 6529,10496 6521,10487 6513,10476 6505,10470 6495,10465 6485,10461 6474,10458 6464,10458 6453,10458 6436,10462 6426,10468 6415,10475 6405,10484 6399,10496 6392,10508 6387,10522 6385,10536 6382,10551 6381,10566 6381,10582 6381,10598 6382,10615 6385,10631 6387,10647 6391,10660 6398,10672 6405,10684 6413,10693 6422,10701 6432,10708 6444,10712 6460,10712 6476,10712 6486,10709 6497,10702 6507,10696 6517,10687 6524,10676 6530,10664 6537,10651 6540,10635 6543,10619 6545,10603 6545,10585 L 6545,10582 6546,10582 Z"/>
       </g>
      </g>
      <g class="com.sun.star.drawing.ClosedBezierShape">
       <g id="id47">
        <rect class="BoundingBox" stroke="none" fill="none" x="5043" y="3808" width="301" height="630"/>
        <path fill="rgb(83,168,211)" stroke="none" d="M 5343,4161 C 5343,4182 5341,4202 5334,4219 5329,4237 5319,4253 5306,4267 5294,4280 5278,4292 5259,4300 5240,4308 5216,4312 5190,4312 5163,4312 5171,4311 5163,4310 5155,4308 5148,4308 5140,4305 5132,4302 5124,4300 5118,4296 5111,4292 5107,4288 5101,4284 5103,4290 5103,4298 5103,4306 L 5103,4424 C 5103,4425 5103,4428 5101,4429 L 5097,4433 C 5095,4434 5092,4434 5088,4436 5084,4436 5079,4437 5074,4437 5068,4437 5063,4437 5059,4436 5055,4436 5052,4434 5050,4433 5047,4432 5046,4430 5046,4429 5044,4428 5044,4427 5044,4424 L 5044,3961 C 5044,3937 5048,3914 5055,3896 5062,3877 5071,3862 5083,3849 5095,3836 5108,3826 5126,3820 5143,3813 5162,3809 5183,3809 5204,3809 5224,3812 5240,3819 5256,3825 5269,3834 5280,3845 5290,3856 5298,3869 5302,3883 5307,3898 5310,3912 5310,3928 5310,3953 5305,3975 5293,3994 5281,4012 5265,4027 5243,4035 5259,4038 5273,4042 5286,4050 5298,4058 5309,4067 5318,4078 5326,4089 5333,4101 5337,4116 5342,4130 5343,4145 5343,4161 Z M 5281,4166 C 5281,4152 5280,4140 5276,4128 5272,4116 5267,4105 5260,4097 5252,4089 5243,4083 5231,4078 5219,4072 5204,4071 5187,4071 L 5157,4071 C 5153,4071 5150,4070 5148,4066 5145,4062 5145,4055 5145,4047 5145,4039 5145,4039 5146,4037 5146,4034 5148,4031 5149,4029 5150,4027 5152,4025 5153,4025 5154,4023 5155,4023 5158,4023 L 5165,4023 C 5181,4023 5193,4020 5204,4015 5214,4009 5224,4004 5231,3996 5237,3988 5243,3978 5245,3968 5248,3957 5249,3947 5249,3935 5249,3923 5247,3915 5245,3906 5242,3896 5238,3889 5233,3882 5227,3875 5222,3870 5212,3866 5203,3862 5192,3859 5181,3859 5169,3859 5157,3862 5146,3866 5137,3871 5129,3878 5122,3886 5116,3895 5112,3906 5108,3918 5105,3931 5103,3944 5103,3960 L 5103,4230 C 5116,4240 5129,4247 5144,4253 5158,4258 5173,4261 5186,4261 5199,4261 5216,4259 5228,4255 5240,4251 5249,4244 5257,4235 5265,4227 5270,4216 5273,4204 5280,4194 5281,4181 5281,4166 Z"/>
       </g>
      </g>
      <g class="com.sun.star.drawing.PolyPolygonShape">
       <g id="id48">
        <rect class="BoundingBox" stroke="none" fill="none" x="11939" y="11198" width="278" height="459"/>
        <path fill="rgb(83,168,211)" stroke="none" d="M 12216,11600 L 12216,11655 11940,11655 11940,11198 12004,11198 12004,11600 12216,11600 Z"/>
       </g>
      </g>
      <g class="com.sun.star.drawing.ClosedBezierShape">
       <g id="id49">
        <rect class="BoundingBox" stroke="none" fill="none" x="6371" y="10018" width="932" height="1127"/>
        <path fill="rgb(89,194,232)" stroke="none" d="M 6385,11143 L 6380,11131 6372,11120 6376,11120 C 6948,10890 7277,10560 7277,10212 7277,9864 7269,10101 7252,10047 L 7249,10040 7253,10035 7264,10043 7276,10039 C 7293,10096 7302,10155 7302,10212 7302,10572 6968,10910 6385,11143 Z"/>
       </g>
      </g>
      <g class="com.sun.star.drawing.ClosedBezierShape">
       <g id="id50">
        <rect class="BoundingBox" stroke="none" fill="none" x="4672" y="3996" width="1562" height="858"/>
        <path fill="rgb(89,194,232)" stroke="none" d="M 4673,4853 L 4673,4827 C 5300,4827 5873,4516 6210,3997 L 6233,4011 C 5890,4539 5309,4853 4673,4853 Z"/>
       </g>
      </g>
      <g class="com.sun.star.drawing.ClosedBezierShape">
       <g id="id51">
        <rect class="BoundingBox" stroke="none" fill="none" x="2883" y="1563" width="2134" height="1444"/>
        <path fill="rgb(255,255,255)" stroke="none" d="M 2998,2240 L 4414,3000 C 4414,3000 4469,3021 4591,2984 4713,2947 4754,2892 4754,2892 4754,2892 4850,2942 4886,2958 4923,2975 4956,2981 4989,2951 5022,2920 5019,2786 5009,2749 4998,2712 4929,2622 4929,2622 4929,2622 3153,1636 3073,1581 2994,1524 2921,1620 2895,1657 2869,1694 2895,1724 2895,1724 L 2966,1771 C 2966,1771 2902,1944 2908,2069 2916,2199 2981,2231 2998,2240 Z"/>
       </g>
      </g>
      <g class="com.sun.star.drawing.ClosedBezierShape">
       <g id="id52">
        <rect class="BoundingBox" stroke="none" fill="none" x="2841" y="1522" width="2213" height="1526"/>
        <path fill="rgb(17,17,17)" stroke="none" d="M 4463,3047 C 4423,3047 4403,3040 4399,3039 L 4394,3036 2978,2276 2997,2242 2977,2276 C 2911,2240 2874,2172 2867,2071 2862,1971 2898,1844 2917,1787 L 2867,1753 2863,1749 C 2847,1730 2825,1683 2861,1632 2960,1496 3043,1511 3095,1548 3155,1591 4333,2248 4947,2589 L 4953,2593 4959,2600 C 4976,2622 5034,2700 5044,2740 5054,2774 5066,2934 5013,2982 4955,3035 4891,3006 4867,2995 4842,2983 4791,2958 4759,2942 4732,2966 4684,2999 4600,3024 4542,3041 4496,3047 4463,3047 Z M 4430,2965 C 4438,2966 4487,2975 4580,2947 4685,2916 4722,2869 4722,2869 L 4742,2842 4772,2858 C 4773,2858 4867,2907 4903,2922 4937,2938 4949,2934 4962,2922 4978,2903 4980,2794 4970,2761 4966,2744 4932,2694 4903,2654 4763,2576 3129,1668 3051,1613 3038,1603 3002,1578 2927,1680 2924,1683 2921,1688 2923,1694 L 3014,1755 3003,1784 C 3003,1786 2941,1951 2948,2066 2954,2173 3001,2197 3015,2206 L 3017,2206 4430,2965 Z"/>
       </g>
      </g>
      <g class="com.sun.star.drawing.ClosedBezierShape">
       <g id="id53">
        <rect class="BoundingBox" stroke="none" fill="none" x="3009" y="1545" width="1761" height="1357"/>
        <path fill="rgb(17,17,17)" stroke="none" d="M 4744,2901 L 3032,1940 3043,1918 C 3044,1917 3130,1724 3010,1581 L 3051,1546 C 3167,1685 3122,1856 3100,1917 L 4769,2854 4744,2901 Z"/>
       </g>
      </g>
      <g class="com.sun.star.drawing.ClosedBezierShape">
       <g id="id54">
        <rect class="BoundingBox" stroke="none" fill="none" x="2976" y="2042" width="162" height="208"/>
        <path fill="rgb(17,17,17)" stroke="none" d="M 2985,2209 C 2994,2213 3013,2205 3027,2193 3042,2181 3056,2165 3069,2149 3095,2116 3117,2080 3137,2043 3124,2083 3107,2123 3085,2161 3075,2180 3063,2198 3047,2215 3039,2223 3029,2232 3019,2239 3008,2246 2993,2251 2977,2248 L 2985,2209 Z"/>
       </g>
      </g>
     </g>
    </g>
   </g>
  </g>
 </g>
</svg>