<?xml version="1.0" encoding="UTF-8"?>
<!DOCTYPE svg PUBLIC "-//W3C//DTD SVG 1.1//EN" "http://www.w3.org/Graphics/SVG/1.1/DTD/svg11.dtd">
<svg version="1.2" width="24mm" height="20mm" viewBox="0 0 2400 2000" preserveAspectRatio="xMidYMid" fill-rule="evenodd" stroke-width="28.222" stroke-linejoin="round" xmlns="http://www.w3.org/2000/svg" xmlns:ooo="http://xml.openoffice.org/svg/export" xmlns:xlink="http://www.w3.org/1999/xlink" xmlns:presentation="http://sun.com/xmlns/staroffice/presentation" xmlns:smil="http://www.w3.org/2001/SMIL20/" xmlns:anim="urn:oasis:names:tc:opendocument:xmlns:animation:1.0" xml:space="preserve">
 <defs class="ClipPathGroup">
  <clipPath id="presentation_clip_path" clipPathUnits="userSpaceOnUse">
   <rect x="0" y="0" width="2400" height="2000"/>
  </clipPath>
  <clipPath id="presentation_clip_path_shrink" clipPathUnits="userSpaceOnUse">
   <rect x="2" y="2" width="2396" height="1996"/>
  </clipPath>
 </defs>
 <defs class="TextShapeIndex">
  <g ooo:slide="id1" ooo:id-list="id3 id4 id5 id6 id7 id8 id9 id10 id11 id12"/>
 </defs>
 <defs class="EmbeddedBulletChars">
  <g id="bullet-char-template-57356" transform="scale(0.00048828125,-0.00048828125)">
   <path d="M 580,1141 L 1163,571 580,0 -4,571 580,1141 Z"/>
  </g>
  <g id="bullet-char-template-57354" transform="scale(0.00048828125,-0.00048828125)">
   <path d="M 8,1128 L 1137,1128 1137,0 8,0 8,1128 Z"/>
  </g>
  <g id="bullet-char-template-10146" transform="scale(0.00048828125,-0.00048828125)">
   <path d="M 174,0 L 602,739 174,1481 1456,739 174,0 Z M 1358,739 L 309,1346 659,739 1358,739 Z"/>
  </g>
  <g id="bullet-char-template-10132" transform="scale(0.00048828125,-0.00048828125)">
   <path d="M 2015,739 L 1276,0 717,0 1260,543 174,543 174,936 1260,936 717,1481 1274,1481 2015,739 Z"/>
  </g>
  <g id="bullet-char-template-10007" transform="scale(0.00048828125,-0.00048828125)">
   <path d="M 0,-2 C -7,14 -16,27 -25,37 L 356,567 C 262,823 215,952 215,954 215,979 228,992 255,992 264,992 276,990 289,987 310,991 331,999 354,1012 L 381,999 492,748 772,1049 836,1024 860,1049 C 881,1039 901,1025 922,1006 886,937 835,863 770,784 769,783 710,716 594,584 L 774,223 C 774,196 753,168 711,139 L 727,119 C 717,90 699,76 672,76 641,76 570,178 457,381 L 164,-76 C 142,-110 111,-127 72,-127 30,-127 9,-110 8,-76 1,-67 -2,-52 -2,-32 -2,-23 -1,-13 0,-2 Z"/>
  </g>
  <g id="bullet-char-template-10004" transform="scale(0.00048828125,-0.00048828125)">
   <path d="M 285,-33 C 182,-33 111,30 74,156 52,228 41,333 41,471 41,549 55,616 82,672 116,743 169,778 240,778 293,778 328,747 346,684 L 369,508 C 377,444 397,411 428,410 L 1163,1116 C 1174,1127 1196,1133 1229,1133 1271,1133 1292,1118 1292,1087 L 1292,965 C 1292,929 1282,901 1262,881 L 442,47 C 390,-6 338,-33 285,-33 Z"/>
  </g>
  <g id="bullet-char-template-9679" transform="scale(0.00048828125,-0.00048828125)">
   <path d="M 813,0 C 632,0 489,54 383,161 276,268 223,411 223,592 223,773 276,916 383,1023 489,1130 632,1184 813,1184 992,1184 1136,1130 1245,1023 1353,916 1407,772 1407,592 1407,412 1353,268 1245,161 1136,54 992,0 813,0 Z"/>
  </g>
  <g id="bullet-char-template-8226" transform="scale(0.00048828125,-0.00048828125)">
   <path d="M 346,457 C 273,457 209,483 155,535 101,586 74,649 74,723 74,796 101,859 155,911 209,963 273,989 346,989 419,989 480,963 531,910 582,859 608,796 608,723 608,648 583,586 532,535 482,483 420,457 346,457 Z"/>
  </g>
  <g id="bullet-char-template-8211" transform="scale(0.00048828125,-0.00048828125)">
   <path d="M -4,459 L 1135,459 1135,606 -4,606 -4,459 Z"/>
  </g>
  <g id="bullet-char-template-61548" transform="scale(0.00048828125,-0.00048828125)">
   <path d="M 173,740 C 173,903 231,1043 346,1159 462,1274 601,1332 765,1332 928,1332 1067,1274 1183,1159 1299,1043 1357,903 1357,740 1357,577 1299,437 1183,322 1067,206 928,148 765,148 601,148 462,206 346,322 231,437 173,577 173,740 Z"/>
  </g>
 </defs>
 <g>
  <g id="id2" class="Master_Slide">
   <g id="bg-id2" class="Background"/>
   <g id="bo-id2" class="BackgroundObjects"/>
  </g>
 </g>
 <g class="SlideGroup">
  <g>
   <g id="container-id1">
    <g id="id1" class="Slide" clip-path="url(#presentation_clip_path)">
     <g class="Page">
      <g class="Group">
       <g class="com.sun.star.drawing.ClosedBezierShape">
        <g id="id3">
         <rect class="BoundingBox" stroke="none" fill="none" x="951" y="417" width="442" height="576"/>
         <path fill="rgb(80,80,80)" stroke="none" d="M 1385,570 C 1378,538 1369,512 1351,489 1333,466 1305,449 1275,436 1248,425 1219,419 1172,418 1125,419 1097,425 1070,436 1040,449 1014,466 996,489 978,512 968,538 961,570 953,602 952,637 952,675 L 952,992 1046,992 1046,697 C 1046,662 1050,632 1054,608 1059,583 1067,564 1079,549 1089,534 1108,522 1126,516 1138,511 1156,508 1172,507 1204,508 1206,511 1219,516 1237,522 1254,534 1265,549 1276,564 1284,583 1290,608 1294,632 1298,662 1298,697 L 1298,992 1392,992 1392,675 C 1392,637 1393,602 1385,570 Z"/>
        </g>
       </g>
       <g class="com.sun.star.drawing.ClosedBezierShape">
        <g id="id4">
         <rect class="BoundingBox" stroke="none" fill="none" x="585" y="130" width="1175" height="1150"/>
         <path fill="rgb(80,80,80)" stroke="none" d="M 1172,130 C 848,130 586,387 586,705 586,1021 848,1278 1172,1278 1496,1278 1759,1021 1759,705 1759,387 1496,130 1172,130 Z M 1172,222 C 1444,222 1665,439 1665,705 1665,970 1444,1186 1172,1186 901,1186 680,970 680,705 680,439 901,222 1172,222 Z"/>
        </g>
       </g>
       <g class="com.sun.star.drawing.ClosedBezierShape">
        <g id="id5">
         <rect class="BoundingBox" stroke="none" fill="none" x="100" y="1565" width="221" height="289"/>
         <path fill="rgb(80,80,80)" stroke="none" d="M 316,1642 C 313,1626 309,1612 300,1600 291,1590 277,1581 262,1574 248,1569 234,1566 210,1565 186,1566 172,1569 159,1574 144,1581 131,1590 122,1600 113,1612 108,1626 104,1642 101,1658 100,1674 100,1694 L 100,1852 148,1852 148,1704 C 148,1688 149,1673 151,1660 154,1648 158,1638 163,1630 169,1623 177,1618 187,1615 193,1612 202,1611 210,1610 226,1610 228,1612 234,1615 243,1618 251,1623 257,1630 262,1638 266,1648 269,1660 272,1673 273,1688 273,1704 L 273,1852 320,1852 320,1694 C 320,1674 320,1658 316,1642 Z"/>
        </g>
       </g>
       <g class="com.sun.star.drawing.ClosedBezierShape">
        <g id="id6">
         <rect class="BoundingBox" stroke="none" fill="none" x="393" y="1567" width="251" height="296"/>
         <path fill="rgb(80,80,80)" stroke="none" d="M 589,1688 C 590,1666 584,1647 572,1632 560,1618 544,1610 523,1610 511,1610 500,1613 492,1617 483,1622 475,1628 469,1635 463,1642 458,1650 455,1659 451,1669 448,1679 448,1688 L 589,1688 Z M 393,1716 C 393,1691 397,1669 404,1651 412,1632 421,1616 434,1605 445,1593 459,1583 475,1577 491,1571 507,1568 523,1568 562,1568 592,1579 612,1603 632,1627 643,1663 643,1710 L 643,1719 C 643,1723 643,1725 642,1728 L 447,1728 C 448,1758 457,1780 472,1795 487,1810 511,1818 543,1818 561,1818 576,1816 588,1813 601,1810 610,1807 616,1804 L 623,1846 C 617,1850 606,1853 590,1857 575,1860 557,1862 537,1862 512,1862 491,1858 472,1850 455,1843 440,1833 427,1820 416,1807 407,1791 402,1774 396,1756 393,1737 393,1716 Z"/>
        </g>
       </g>
       <g class="com.sun.star.drawing.ClosedBezierShape">
        <g id="id7">
         <rect class="BoundingBox" stroke="none" fill="none" x="1229" y="1567" width="270" height="297"/>
         <path fill="rgb(80,80,80)" stroke="none" d="M 1445,1715 C 1445,1683 1437,1659 1423,1640 1408,1622 1388,1612 1364,1612 1338,1612 1319,1622 1304,1640 1290,1659 1283,1683 1283,1715 1283,1747 1290,1772 1304,1791 1319,1809 1338,1818 1364,1818 1388,1818 1408,1809 1423,1791 1437,1772 1445,1747 1445,1715 Z M 1497,1715 C 1497,1737 1494,1757 1488,1776 1481,1793 1472,1809 1460,1822 1448,1835 1434,1845 1417,1852 1401,1859 1383,1863 1364,1863 1343,1863 1326,1859 1309,1852 1292,1845 1278,1835 1267,1822 1255,1809 1246,1793 1239,1776 1233,1757 1229,1737 1229,1715 1229,1693 1233,1674 1239,1655 1246,1637 1255,1622 1267,1608 1278,1595 1292,1586 1309,1578 1326,1571 1343,1568 1364,1568 1383,1568 1401,1571 1417,1578 1434,1586 1448,1595 1460,1608 1472,1622 1481,1637 1488,1655 1494,1674 1497,1693 1497,1715 Z"/>
        </g>
       </g>
       <g class="com.sun.star.drawing.ClosedBezierShape">
        <g id="id8">
         <rect class="BoundingBox" stroke="none" fill="none" x="724" y="1576" width="222" height="289"/>
         <path fill="rgb(80,80,80)" stroke="none" d="M 728,1787 C 732,1803 736,1816 745,1828 755,1839 768,1848 784,1854 797,1860 811,1863 835,1864 859,1863 873,1860 886,1854 901,1848 914,1839 923,1828 932,1816 937,1803 940,1787 944,1771 945,1754 945,1735 L 945,1577 897,1577 897,1724 C 897,1741 896,1756 894,1768 891,1781 888,1791 881,1798 876,1806 867,1811 858,1814 852,1816 843,1818 835,1819 819,1818 817,1816 811,1814 802,1811 794,1806 788,1798 783,1791 778,1781 776,1768 774,1756 772,1741 772,1724 L 772,1577 725,1577 725,1735 C 725,1754 725,1771 728,1787 Z"/>
        </g>
       </g>
       <g class="com.sun.star.drawing.ClosedBezierShape">
        <g id="id9">
         <rect class="BoundingBox" stroke="none" fill="none" x="1032" y="1568" width="176" height="288"/>
         <path fill="rgb(80,80,80)" stroke="none" d="M 1145,1569 C 1160,1569 1173,1570 1183,1572 1194,1574 1202,1576 1206,1578 L 1196,1621 C 1193,1619 1186,1617 1178,1615 1170,1613 1160,1612 1149,1612 1124,1612 1108,1618 1099,1631 1089,1644 1084,1661 1084,1682 L 1084,1855 1033,1855 1033,1681 C 1033,1645 1042,1618 1060,1598 1078,1578 1106,1569 1145,1569 Z"/>
        </g>
       </g>
       <g class="com.sun.star.drawing.ClosedBezierShape">
        <g id="id10">
         <rect class="BoundingBox" stroke="none" fill="none" x="1552" y="1568" width="217" height="294"/>
         <path fill="rgb(80,80,80)" stroke="none" d="M 1692,1861 C 1669,1861 1649,1857 1631,1850 1614,1843 1600,1834 1587,1820 1576,1807 1567,1792 1561,1775 1555,1757 1552,1737 1552,1716 1552,1695 1556,1674 1562,1657 1568,1639 1577,1623 1589,1610 1600,1597 1614,1587 1632,1579 1649,1572 1668,1569 1688,1569 1702,1569 1714,1570 1727,1572 1739,1574 1752,1578 1763,1582 L 1752,1624 C 1745,1621 1736,1618 1725,1616 1716,1614 1705,1613 1694,1613 1665,1613 1644,1622 1628,1639 1613,1657 1606,1682 1606,1716 1606,1731 1607,1745 1610,1757 1614,1769 1620,1780 1627,1790 1635,1798 1644,1806 1656,1810 1667,1815 1681,1817 1698,1817 1712,1817 1724,1816 1735,1813 1746,1811 1754,1808 1761,1806 L 1768,1848 C 1765,1850 1761,1850 1755,1852 1750,1854 1744,1856 1737,1857 1730,1858 1723,1859 1715,1860 1707,1861 1699,1861 1692,1861 Z"/>
        </g>
       </g>
       <g class="com.sun.star.drawing.ClosedBezierShape">
        <g id="id11">
         <rect class="BoundingBox" stroke="none" fill="none" x="1820" y="1568" width="224" height="294"/>
         <path fill="rgb(80,80,80)" stroke="none" d="M 1933,1569 C 1953,1569 1970,1571 1985,1577 1999,1582 2010,1589 2018,1599 2027,1608 2033,1619 2037,1632 2040,1645 2042,1659 2042,1675 L 2042,1850 C 2038,1850 2032,1851 2024,1853 2016,1854 2007,1856 1997,1857 1988,1857 1977,1858 1966,1859 1954,1860 1943,1861 1931,1861 1915,1861 1900,1859 1886,1856 1873,1853 1862,1848 1851,1841 1842,1834 1834,1825 1828,1813 1823,1802 1820,1788 1820,1772 1820,1756 1824,1743 1830,1732 1836,1721 1845,1712 1856,1705 1867,1698 1879,1694 1894,1690 1909,1687 1924,1685 1940,1685 1945,1685 1951,1686 1956,1686 1962,1687 1966,1688 1972,1688 1977,1689 1981,1690 1985,1690 1988,1691 1991,1692 1993,1692 L 1993,1678 C 1993,1670 1992,1662 1989,1654 1988,1645 1985,1638 1980,1632 1975,1626 1968,1621 1960,1617 1952,1614 1942,1612 1929,1612 1912,1612 1897,1613 1884,1615 1871,1617 1863,1620 1856,1622 L 1850,1581 C 1856,1578 1868,1576 1883,1573 1898,1570 1915,1569 1933,1569 Z M 1937,1819 C 1949,1819 1960,1819 1969,1818 1979,1818 1987,1817 1993,1815 L 1993,1732 C 1988,1730 1983,1729 1974,1727 1966,1726 1957,1725 1944,1725 1937,1725 1929,1726 1921,1727 1912,1728 1904,1731 1897,1734 1890,1737 1884,1742 1879,1747 1874,1754 1872,1762 1872,1771 1872,1789 1878,1801 1889,1808 1901,1815 1917,1819 1937,1819 Z"/>
        </g>
       </g>
       <g class="com.sun.star.drawing.ClosedBezierShape">
        <g id="id12">
         <rect class="BoundingBox" stroke="none" fill="none" x="2126" y="1568" width="175" height="288"/>
         <path fill="rgb(80,80,80)" stroke="none" d="M 2238,1569 C 2253,1569 2267,1570 2277,1572 2288,1574 2296,1576 2300,1578 L 2290,1621 C 2286,1619 2280,1617 2272,1615 2264,1613 2254,1612 2242,1612 2218,1612 2201,1618 2192,1631 2183,1644 2178,1661 2178,1682 L 2178,1855 2127,1855 2127,1681 C 2127,1645 2135,1618 2154,1598 2172,1578 2200,1569 2238,1569 Z"/>
        </g>
       </g>
      </g>
     </g>
    </g>
   </g>
  </g>
 </g>
</svg>