<?xml version="1.0" encoding="UTF-8"?>
<svg id="group" xmlns="http://www.w3.org/2000/svg" version="1.1" viewBox="0 0 800 350">
  <defs>
    <style>
      .cls-1 {
        stroke-width: 2px;
      }

      .cls-1, .cls-2, .cls-3, .cls-4 {
        stroke-miterlimit: 10;
      }

      .cls-1, .cls-2, .cls-4 {
        fill: none;
      }

      .cls-1, .cls-3 {
        stroke: #231f20;
      }

      .cls-5 {
        fill: #59c2e8;
      }

      .cls-5, .cls-6, .cls-7, .cls-8 {
        stroke-width: 0px;
      }

      .cls-2, .cls-4 {
        stroke: #bebebe;
        stroke-linecap: round;
        stroke-width: 4px;
      }

      .cls-6 {
        fill: #53a8d3;
      }

      .cls-3, .cls-8 {
        fill: #fff;
      }

      .cls-4 {
        stroke-dasharray: 0 0 50.6 20.2;
      }

      .cls-7 {
        fill: #231f20;
      }
    </style>
  </defs>
  <g id="lanes">
    <g>
      <line class="cls-2" x1="789.3" y1="175" x2="764.3" y2="175"/>
      <line class="cls-4" x1="744.1" y1="175" x2="45.8" y2="175"/>
      <line class="cls-2" x1="35.7" y1="175" x2="10.7" y2="175"/>
    </g>
    <line class="cls-2" x1="789.3" y1="320" x2="10.7" y2="320"/>
    <line class="cls-2" x1="789.3" y1="30" x2="10.7" y2="30"/>
  </g>
  <g id="car">
    <polygon class="cls-8" points="290.7 247.4 289.4 233.8 286.5 221.1 280.5 212.4 263.6 206.5 223.1 206.5 223 202.7 220.3 198 216.3 198 216.3 206.5 108.2 206.5 77.3 211.4 71.5 221.6 70.1 247.4 71.5 273.1 77.3 283.4 108.2 288.3 216.4 288.3 216.3 297.3 220.3 297.3 222.7 292 222.7 288.3 263.6 288.3 280.5 282.3 286.5 273.6 289.4 260.9 290.7 247.4"/>
    <path class="cls-7" d="M98.8,275.2l-1.9-11-1-16.7,1-16.8,1.9-11,29.2,4.2-1.4,23.6,1.4,23.5-29.2,4.2ZM97.9,230.8l-1,16.6,1,16.6,1.7,10,27.3-4-1.3-22.7,1.3-22.7-27.3-4-1.7,10.2Z"/>
    <path class="cls-7" d="M226.1,279.2l-27.4-7.1,1.7-24.6-1.7-24.6,27.4-7.1,3.1,18,1.1,13.7-1.1,13.7-3.1,18ZM199.7,271.3l25.5,6.6,2.9-17,1.1-13.6-1.1-13.5-2.9-16.9-25.5,6.6,1.6,23.8-1.6,24Z"/>
    <path class="cls-7" d="M174.7,284.9l-5.3-10,28.4,1.9,19.6,7.8-42.7.3ZM171.1,276l4.2,7.9,37-.3-14.8-5.9-26.4-1.7Z"/>
    <path class="cls-7" d="M138.6,285.2l-17.5-1.1v-2.9l16.4-6.4h27.3l3.5,10.2-29.7.2ZM122.1,283.1l16.5,1.1,28.3-.2-2.9-8.2h-26.5l-15.5,6.1v1.2h0Z"/>
    <path class="cls-7" d="M169.4,220l5.3-10,42.7.3-19.7,7.9-28.3,1.8ZM175.3,211l-4.2,7.9,26.3-1.7,14.8-5.9-36.9-.3Z"/>
    <path class="cls-7" d="M164.7,220.2h-27.5l-16.2-6.3v-2.9l17.5-1.1,29.7.2-3.5,10.1ZM137.5,219.2h26.5l2.9-8.2-28.3-.2-16.5,1.1v1.3l15.4,6Z"/>
    <path class="cls-7" d="M274.4,281.9l6.7-16.1,4.9-.3-2.3,10.3-3.7,4.7-5.6,1.4ZM281.8,266.8l-5.7,13.7,3.3-.8,3.4-4.3,1.9-8.7h-2.9Z"/>
    <path class="cls-7" d="M285.9,229.2l-4.9-.3-6.7-16.1,5.6,1.4,3.8,4.8,2.2,10.2ZM281.8,228l2.9.2-1.9-8.7-3.4-4.3-3.3-.8,5.7,13.6Z"/>
    <rect class="cls-7" x="290.1" y="235.4" width="2.3" height="24.1"/>
    <polygon class="cls-7" points="221.6 210.9 221.8 207.9 221.8 202.8 219.6 198.6 217.4 198.6 217.4 210.4 215.4 210.4 215.4 196.8 220.9 196.8 223.8 202.4 223.8 208.5 221.6 210.9"/>
    <polygon class="cls-7" points="220.9 298.2 215.4 298.2 215.4 284.5 217.4 284.5 217.4 296.4 219.6 296.4 221.8 292.1 221.8 287 221.6 284 223.8 286.4 223.8 292.5 220.9 298.2"/>
    <polygon class="cls-7" points="216.7 287.3 108.4 287.3 78 282.5 72.5 272.9 71.2 247.4 72.5 222 78 212.4 108.4 207.6 216.7 207.6 216.7 205.6 108.3 205.6 76.7 210.5 70.6 221.4 69.2 247.4 69.2 247.4 70.6 273.5 76.7 284.4 108.1 289.3 216.7 289.3 216.7 287.3"/>
    <polygon class="cls-7" points="290.4 233.8 287.5 220.8 281.2 211.6 263.9 205.6 222.3 205.6 222.3 207.6 263.5 207.6 280 213.3 285.6 221.6 288.5 234 289.7 247.4 288.5 260.8 285.6 273.3 280 281.6 263.5 287.3 222.3 287.3 222.3 289.3 263.9 289.3 281.2 283.2 287.5 274.1 290.4 261.2 291.7 247.4 290.4 233.8"/>
  </g>
  <g id="car-2" data-name="car">
    <polygon class="cls-8" points="290.7 102.4 289.4 88.8 286.5 76.1 280.5 67.4 263.6 61.5 223.1 61.5 223 57.7 220.3 53 216.3 53 216.3 61.5 108.2 61.5 77.3 66.4 71.5 76.6 70.1 102.4 71.5 128.1 77.3 138.4 108.2 143.3 216.4 143.3 216.3 152.3 220.3 152.3 222.7 147 222.7 143.3 263.6 143.3 280.5 137.3 286.5 128.6 289.4 115.9 290.7 102.4"/>
    <path class="cls-7" d="M98.8,130.2l-1.9-11-1-16.7,1-16.8,1.9-11,29.2,4.2-1.4,23.6,1.4,23.5-29.2,4.2ZM97.9,85.8l-1,16.6,1,16.6,1.7,10,27.3-4-1.3-22.7,1.3-22.7-27.3-4-1.7,10.2Z"/>
    <path class="cls-7" d="M226.1,134.2l-27.4-7.1,1.7-24.6-1.7-24.6,27.4-7.1,3.1,18,1.1,13.7-1.1,13.7-3.1,18ZM199.7,126.3l25.5,6.6,2.9-17,1.1-13.6-1.1-13.5-2.8-16.8-25.5,6.6,1.6,23.8-1.7,23.9Z"/>
    <path class="cls-7" d="M174.7,139.9l-5.3-10,28.4,1.9,19.6,7.8-42.7.3ZM171.1,131l4.2,7.9,37-.3-14.8-5.9-26.4-1.7Z"/>
    <path class="cls-7" d="M138.6,140.2l-17.5-1.1v-2.9l16.4-6.4h27.3l3.5,10.2-29.7.2ZM122.1,138.1l16.5,1.1,28.3-.2-2.9-8.2h-26.5l-15.5,6.1v1.2h0Z"/>
    <path class="cls-7" d="M169.4,75l5.3-10,42.7.3-19.7,7.9-28.3,1.8ZM175.3,66l-4.2,7.9,26.3-1.7,14.8-5.9-36.9-.3Z"/>
    <path class="cls-7" d="M164.7,75.2h-27.5l-16.2-6.3v-2.9l17.5-1.1,29.7.2-3.5,10.1ZM137.5,74.2h26.5l2.9-8.2-28.3-.2-16.5,1.1v1.3l15.4,6Z"/>
    <path class="cls-7" d="M274.4,136.9l6.7-16.1,4.9-.3-2.3,10.3-3.7,4.7-5.6,1.4ZM281.8,121.8l-5.7,13.7,3.3-.8,3.4-4.3,1.9-8.7h-2.9Z"/>
    <path class="cls-7" d="M285.9,84.2l-4.9-.3-6.7-16.1,5.6,1.4,3.8,4.8,2.2,10.2ZM281.8,83l2.9.2-1.9-8.7-3.4-4.3-3.3-.8,5.7,13.6Z"/>
    <rect class="cls-7" x="290.1" y="90.4" width="2.3" height="24.1"/>
    <polygon class="cls-7" points="221.6 65.9 221.8 62.9 221.8 57.8 219.6 53.6 217.4 53.6 217.4 65.4 215.4 65.4 215.4 51.8 220.9 51.8 223.8 57.4 223.8 63.5 221.6 65.9"/>
    <polygon class="cls-7" points="220.9 153.2 215.4 153.2 215.4 139.5 217.4 139.5 217.4 151.4 219.6 151.4 221.8 147.1 221.8 142 221.6 139 223.8 141.4 223.8 147.5 220.9 153.2"/>
    <polygon class="cls-7" points="216.7 142.3 108.4 142.3 78 137.5 72.5 127.9 71.2 102.4 72.5 77 78 67.4 108.4 62.6 216.7 62.6 216.7 60.6 108.3 60.6 76.7 65.5 70.6 76.4 69.2 102.4 69.2 102.4 70.6 128.5 76.7 139.4 108.1 144.3 216.7 144.3 216.7 142.3"/>
    <polygon class="cls-7" points="290.4 88.8 287.5 75.8 281.2 66.6 263.9 60.6 222.3 60.6 222.3 62.6 263.5 62.6 280 68.3 285.6 76.6 288.5 89 289.7 102.4 288.5 115.8 285.6 128.3 280 136.6 263.5 142.3 222.3 142.3 222.3 144.3 263.9 144.3 281.2 138.2 287.5 129.1 290.4 116.2 291.7 102.4 290.4 88.8"/>
  </g>
  <g id="markings">
    <polygon class="cls-5" points="293.4 30.1 392.3 65.4 490.9 101.6 688 174.1 690.6 175 688 175.9 490.9 248.4 392.3 284.6 293.4 319.9 391.6 282.7 490.2 246.5 687.3 174.1 687.3 175.9 490.2 103.5 391.6 67.3 293.4 30.1"/>
    <g>
      <polygon class="cls-5" points="293.4 30 293.7 40 293.1 40 293.4 30"/>
      <polygon class="cls-5" points="293.9 45 294.1 55 292.7 55 293 45 293.9 45"/>
      <path class="cls-5" d="M294.3,60v5c.1,1.7.2,3.3.1,5h-2v-10h1.9Z"/>
      <rect class="cls-5" x="292.4" y="75" width="2" height="10"/>
      <rect class="cls-5" x="292.4" y="90" width="2" height="10"/>
      <rect class="cls-5" x="292.4" y="105" width="2" height="10"/>
      <rect class="cls-5" x="292.4" y="120" width="2" height="10"/>
      <rect class="cls-5" x="292.4" y="135" width="2" height="10"/>
      <rect class="cls-5" x="292.4" y="150" width="2" height="10"/>
      <rect class="cls-5" x="292.4" y="165" width="2" height="10"/>
      <rect class="cls-5" x="292.4" y="180" width="2" height="10"/>
      <rect class="cls-5" x="292.4" y="195" width="2" height="10"/>
      <rect class="cls-5" x="292.4" y="210" width="2" height="10"/>
      <rect class="cls-5" x="292.4" y="225" width="2" height="10"/>
      <rect class="cls-5" x="292.4" y="240" width="2" height="10"/>
      <rect class="cls-5" x="292.4" y="255" width="2" height="10"/>
      <polygon class="cls-5" points="294.4 270 294.4 280 292.4 280 292.4 270 294.4 270"/>
      <polygon class="cls-5" points="294.4 285 294.1 295 292.7 295 292.4 285 294.4 285"/>
      <polygon class="cls-5" points="294 300 293.7 310 293.1 310 292.8 300 294 300"/>
      <polygon class="cls-5" points="293.6 315 293.4 320 293.3 315 293.6 315"/>
    </g>
    <circle class="cls-5" cx="293.4" cy="30.1" r="5.3"/>
    <circle class="cls-5" cx="293.4" cy="319.9" r="5.3"/>
    <circle class="cls-6" cx="687.7" cy="175.2" r="5.3"/>
  </g>
  <path class="cls-3" d="M722.8,347.2v-194.9s.6-1.3,5.1-1.3,5.1,1.3,5.1,1.3v194.9"/>
  <g>
    <polygon class="cls-8" points="687.7 176.3 688.3 178.7 689.5 180.2 690.8 180.6 693.3 180.6 693.4 181.8 694.7 182.6 739.6 182.7 739.6 167.4 695 167.3 694 167.7 693.4 169.7 690.4 169.9 688.5 171 687.7 173.5 687.7 176.3"/>
    <path class="cls-1" d="M739.7,182.7h-44.6c-.8,0-1.5-.7-1.5-1.5v-12.3c0-.8.7-1.5,1.5-1.5h44.6v15.3Z"/>
    <path class="cls-1" d="M693.6,180.1h-2.7s-3.1.4-3.1-5.4,3.1-5.4,3.1-5.4h2.7"/>
  </g>
</svg>