<?xml version="1.0" encoding="UTF-8"?>
<!DOCTYPE svg PUBLIC "-//W3C//DTD SVG 1.1//EN" "http://www.w3.org/Graphics/SVG/1.1/DTD/svg11.dtd">
<svg version="1.2" width="211.9mm" height="92.9mm" viewBox="0 0 21190 9290" preserveAspectRatio="xMidYMid" fill-rule="evenodd" stroke-width="28.222" stroke-linejoin="round" xmlns="http://www.w3.org/2000/svg" xmlns:ooo="http://xml.openoffice.org/svg/export" xmlns:xlink="http://www.w3.org/1999/xlink" xmlns:presentation="http://sun.com/xmlns/staroffice/presentation" xmlns:smil="http://www.w3.org/2001/SMIL20/" xmlns:anim="urn:oasis:names:tc:opendocument:xmlns:animation:1.0" xmlns:svg="urn:oasis:names:tc:opendocument:xmlns:svg-compatible:1.0" xml:space="preserve">
 <defs class="ClipPathGroup">
  <clipPath id="presentation_clip_path" clipPathUnits="userSpaceOnUse">
   <rect x="0" y="0" width="21190" height="9290"/>
  </clipPath>
  <clipPath id="presentation_clip_path_shrink" clipPathUnits="userSpaceOnUse">
   <rect x="21" y="9" width="21148" height="9272"/>
  </clipPath>
 </defs>
 <defs class="TextShapeIndex">
  <g ooo:slide="id1" ooo:id-list="id3 id4 id5 id6 id7 id8 id9 id10 id11 id12 id13 id14 id15 id16 id17 id18 id19 id20 id21 id22 id23 id24 id25 id26 id27 id28 id29 id30 id31 id32 id33 id34 id35 id36 id37 id38 id39 id40 id41 id42 id43"/>
 </defs>
 <defs class="EmbeddedBulletChars">
  <g id="bullet-char-template-57356" transform="scale(0.00048828125,-0.00048828125)">
   <path d="M 580,1141 L 1163,571 580,0 -4,571 580,1141 Z"/>
  </g>
  <g id="bullet-char-template-57354" transform="scale(0.00048828125,-0.00048828125)">
   <path d="M 8,1128 L 1137,1128 1137,0 8,0 8,1128 Z"/>
  </g>
  <g id="bullet-char-template-10146" transform="scale(0.00048828125,-0.00048828125)">
   <path d="M 174,0 L 602,739 174,1481 1456,739 174,0 Z M 1358,739 L 309,1346 659,739 1358,739 Z"/>
  </g>
  <g id="bullet-char-template-10132" transform="scale(0.00048828125,-0.00048828125)">
   <path d="M 2015,739 L 1276,0 717,0 1260,543 174,543 174,936 1260,936 717,1481 1274,1481 2015,739 Z"/>
  </g>
  <g id="bullet-char-template-10007" transform="scale(0.00048828125,-0.00048828125)">
   <path d="M 0,-2 C -7,14 -16,27 -25,37 L 356,567 C 262,823 215,952 215,954 215,979 228,992 255,992 264,992 276,990 289,987 310,991 331,999 354,1012 L 381,999 492,748 772,1049 836,1024 860,1049 C 881,1039 901,1025 922,1006 886,937 835,863 770,784 769,783 710,716 594,584 L 774,223 C 774,196 753,168 711,139 L 727,119 C 717,90 699,76 672,76 641,76 570,178 457,381 L 164,-76 C 142,-110 111,-127 72,-127 30,-127 9,-110 8,-76 1,-67 -2,-52 -2,-32 -2,-23 -1,-13 0,-2 Z"/>
  </g>
  <g id="bullet-char-template-10004" transform="scale(0.00048828125,-0.00048828125)">
   <path d="M 285,-33 C 182,-33 111,30 74,156 52,228 41,333 41,471 41,549 55,616 82,672 116,743 169,778 240,778 293,778 328,747 346,684 L 369,508 C 377,444 397,411 428,410 L 1163,1116 C 1174,1127 1196,1133 1229,1133 1271,1133 1292,1118 1292,1087 L 1292,965 C 1292,929 1282,901 1262,881 L 442,47 C 390,-6 338,-33 285,-33 Z"/>
  </g>
  <g id="bullet-char-template-9679" transform="scale(0.00048828125,-0.00048828125)">
   <path d="M 813,0 C 632,0 489,54 383,161 276,268 223,411 223,592 223,773 276,916 383,1023 489,1130 632,1184 813,1184 992,1184 1136,1130 1245,1023 1353,916 1407,772 1407,592 1407,412 1353,268 1245,161 1136,54 992,0 813,0 Z"/>
  </g>
  <g id="bullet-char-template-8226" transform="scale(0.00048828125,-0.00048828125)">
   <path d="M 346,457 C 273,457 209,483 155,535 101,586 74,649 74,723 74,796 101,859 155,911 209,963 273,989 346,989 419,989 480,963 531,910 582,859 608,796 608,723 608,648 583,586 532,535 482,483 420,457 346,457 Z"/>
  </g>
  <g id="bullet-char-template-8211" transform="scale(0.00048828125,-0.00048828125)">
   <path d="M -4,459 L 1135,459 1135,606 -4,606 -4,459 Z"/>
  </g>
  <g id="bullet-char-template-61548" transform="scale(0.00048828125,-0.00048828125)">
   <path d="M 173,740 C 173,903 231,1043 346,1159 462,1274 601,1332 765,1332 928,1332 1067,1274 1183,1159 1299,1043 1357,903 1357,740 1357,577 1299,437 1183,322 1067,206 928,148 765,148 601,148 462,206 346,322 231,437 173,577 173,740 Z"/>
  </g>
 </defs>
 <g>
  <g id="id2" class="Master_Slide">
   <g id="bg-id2" class="Background"/>
   <g id="bo-id2" class="BackgroundObjects"/>
  </g>
 </g>
 <g class="SlideGroup">
  <g>
   <g id="container-id1">
    <g id="id1" class="Slide" clip-path="url(#presentation_clip_path)">
     <g class="Page">
      <g class="com.sun.star.drawing.LineShape">
       <g id="id3">
        <rect class="BoundingBox" stroke="none" fill="none" x="242" y="2671" width="20708" height="108"/>
        <path fill="none" stroke="rgb(190,190,190)" stroke-width="106" stroke-linejoin="miter" stroke-linecap="round" d="M 20895,2725 L 296,2725"/>
       </g>
      </g>
      <g class="com.sun.star.drawing.LineShape">
       <g id="id4">
        <rect class="BoundingBox" stroke="none" fill="none" x="242" y="6507" width="20708" height="108"/>
        <path fill="none" stroke="rgb(190,190,190)" stroke-width="106" stroke-linejoin="miter" stroke-linecap="round" d="M 20895,6560 L 296,6560"/>
       </g>
      </g>
      <g class="com.sun.star.drawing.PolyPolygonShape">
       <g id="id5">
        <rect class="BoundingBox" stroke="none" fill="none" x="1867" y="3332" width="5838" height="2630"/>
        <path fill="rgb(255,255,255)" stroke="none" d="M 7704,4640 L 7670,4281 7593,3945 7434,3714 6987,3558 5916,3558 5913,3458 5842,3333 5736,3333 5736,3558 2876,3558 2058,3688 1905,3958 1868,4640 1905,5319 2058,5592 2876,5721 5739,5721 5736,5960 5842,5960 5905,5819 5905,5721 6987,5721 7434,5563 7593,5332 7670,4997 7704,4640 Z"/>
       </g>
      </g>
      <g class="com.sun.star.drawing.PolyPolygonShape">
       <g id="id6">
        <rect class="BoundingBox" stroke="none" fill="none" x="2549" y="3907" width="852" height="1470"/>
        <path fill="rgb(35,31,32)" stroke="none" d="M 2627,5375 L 2577,5084 2550,4643 2577,4199 2627,3908 3400,4019 3363,4643 3400,5264 2627,5375 Z M 2603,4201 L 2577,4640 2603,5079 2648,5343 3371,5237 3336,4638 3371,4037 2648,3931 2603,4201 Z"/>
       </g>
      </g>
      <g class="com.sun.star.drawing.PolyPolygonShape">
       <g id="id7">
        <rect class="BoundingBox" stroke="none" fill="none" x="5269" y="3803" width="838" height="1680"/>
        <path fill="rgb(35,31,32)" stroke="none" d="M 5995,5481 L 5270,5293 5315,4643 5270,3992 5995,3804 6077,4281 6106,4643 6077,5004 5995,5481 Z M 5297,5272 L 5971,5446 6048,4997 6077,4638 6048,4281 5971,3833 5297,4008 5339,4638 5297,5272 Z"/>
       </g>
      </g>
      <g class="com.sun.star.drawing.PolyPolygonShape">
       <g id="id8">
        <rect class="BoundingBox" stroke="none" fill="none" x="4494" y="5367" width="1272" height="266"/>
        <path fill="rgb(35,31,32)" stroke="none" d="M 4635,5631 L 4495,5367 5246,5417 5765,5624 4635,5631 Z M 4540,5396 L 4651,5605 5630,5597 5238,5441 4540,5396 Z"/>
       </g>
      </g>
      <g class="com.sun.star.drawing.PolyPolygonShape">
       <g id="id9">
        <rect class="BoundingBox" stroke="none" fill="none" x="3216" y="5364" width="1251" height="277"/>
        <path fill="rgb(35,31,32)" stroke="none" d="M 3680,5639 L 3217,5610 3217,5534 3651,5364 4373,5364 4466,5634 3680,5639 Z M 3244,5584 L 3680,5613 4429,5608 4352,5391 3651,5391 3241,5552 3241,5584 3241,5584 3244,5584 Z"/>
       </g>
      </g>
      <g class="com.sun.star.drawing.PolyPolygonShape">
       <g id="id10">
        <rect class="BoundingBox" stroke="none" fill="none" x="4494" y="3650" width="1272" height="266"/>
        <path fill="rgb(35,31,32)" stroke="none" d="M 4495,3915 L 4635,3651 5765,3659 5244,3868 4495,3915 Z M 4651,3677 L 4540,3886 5236,3841 5627,3685 4651,3677 Z"/>
       </g>
      </g>
      <g class="com.sun.star.drawing.PolyPolygonShape">
       <g id="id11">
        <rect class="BoundingBox" stroke="none" fill="none" x="3214" y="3647" width="1250" height="275"/>
        <path fill="rgb(35,31,32)" stroke="none" d="M 4371,3921 L 3643,3921 3215,3754 3215,3677 3678,3648 4463,3654 4371,3921 Z M 3651,3894 L 4352,3894 4429,3677 3680,3672 3244,3701 3244,3736 3651,3894 Z"/>
       </g>
      </g>
      <g class="com.sun.star.drawing.PolyPolygonShape">
       <g id="id12">
        <rect class="BoundingBox" stroke="none" fill="none" x="7272" y="5118" width="309" height="436"/>
        <path fill="rgb(35,31,32)" stroke="none" d="M 7273,5552 L 7450,5126 7580,5118 7519,5391 7421,5515 7273,5552 Z M 7469,5153 L 7318,5515 7405,5494 7495,5380 7546,5150 7469,5150 7469,5153 Z"/>
       </g>
      </g>
      <g class="com.sun.star.drawing.PolyPolygonShape">
       <g id="id13">
        <rect class="BoundingBox" stroke="none" fill="none" x="7269" y="3724" width="309" height="436"/>
        <path fill="rgb(35,31,32)" stroke="none" d="M 7577,4159 L 7448,4151 7270,3725 7419,3762 7519,3889 7577,4159 Z M 7469,4127 L 7546,4132 7495,3902 7405,3788 7318,3767 7469,4127 Z"/>
       </g>
      </g>
      <g class="com.sun.star.drawing.PolyPolygonShape">
       <g id="id14">
        <rect class="BoundingBox" stroke="none" fill="none" x="7687" y="4322" width="63" height="639"/>
        <path fill="rgb(35,31,32)" stroke="none" d="M 7688,4323 L 7749,4323 7749,4959 7688,4959 7688,4323 Z"/>
       </g>
      </g>
      <g class="com.sun.star.drawing.PolyPolygonShape">
       <g id="id15">
        <rect class="BoundingBox" stroke="none" fill="none" x="5711" y="3301" width="224" height="375"/>
        <path fill="rgb(35,31,32)" stroke="none" d="M 5876,3675 L 5881,3595 5881,3460 5823,3349 5765,3349 5765,3661 5712,3661 5712,3302 5858,3302 5934,3450 5934,3611 5876,3675 Z"/>
       </g>
      </g>
      <g class="com.sun.star.drawing.PolyPolygonShape">
       <g id="id16">
        <rect class="BoundingBox" stroke="none" fill="none" x="5711" y="5608" width="224" height="377"/>
        <path fill="rgb(35,31,32)" stroke="none" d="M 5858,5983 L 5712,5983 5712,5621 5765,5621 5765,5936 5823,5936 5881,5822 5881,5687 5876,5608 5934,5671 5934,5833 5858,5983 Z"/>
       </g>
      </g>
      <g class="com.sun.star.drawing.PolyPolygonShape">
       <g id="id17">
        <rect class="BoundingBox" stroke="none" fill="none" x="1843" y="3534" width="3904" height="2216"/>
        <path fill="rgb(35,31,32)" stroke="none" d="M 5746,5695 L 2881,5695 2077,5568 1931,5314 1897,4640 1931,3968 2077,3714 2881,3587 5746,3587 5746,3535 2879,3535 2042,3664 1881,3953 1844,4640 1844,4640 1881,5330 2042,5618 2873,5748 5746,5748 5746,5695 Z"/>
       </g>
      </g>
      <g class="com.sun.star.drawing.PolyPolygonShape">
       <g id="id18">
        <rect class="BoundingBox" stroke="none" fill="none" x="5894" y="3534" width="1838" height="2216"/>
        <path fill="rgb(35,31,32)" stroke="none" d="M 7696,4281 L 7620,3937 7453,3693 6995,3535 5895,3535 5895,3587 6985,3587 7421,3738 7569,3958 7646,4286 7678,4640 7646,4994 7569,5325 7421,5544 6985,5695 5895,5695 5895,5748 6995,5748 7453,5586 7620,5346 7696,5004 7731,4640 7696,4281 Z"/>
       </g>
      </g>
      <g class="com.sun.star.drawing.ClosedBezierShape">
       <g id="id19">
        <rect class="BoundingBox" stroke="none" fill="none" x="18879" y="7396" width="785" height="785"/>
        <path fill="rgb(255,255,255)" stroke="none" d="M 19580,8179 L 18961,8179 C 18916,8179 18879,8142 18879,8097 L 18879,7478 C 18879,7433 18916,7396 18961,7396 L 19580,7396 C 19625,7396 19662,7433 19662,7478 L 19662,8097 C 19662,8142 19625,8179 19580,8179 Z"/>
       </g>
      </g>
      <g class="com.sun.star.drawing.ClosedBezierShape">
       <g id="id20">
        <rect class="BoundingBox" stroke="none" fill="none" x="18866" y="7383" width="811" height="811"/>
        <path fill="none" stroke="rgb(35,31,32)" stroke-width="26" stroke-linejoin="miter" d="M 19580,8179 L 18961,8179 C 18916,8179 18879,8142 18879,8097 L 18879,7478 C 18879,7433 18916,7396 18961,7396 L 19580,7396 C 19625,7396 19662,7433 19662,7478 L 19662,8097 C 19662,8142 19625,8179 19580,8179 Z"/>
       </g>
      </g>
      <g class="com.sun.star.drawing.PolyPolygonShape">
       <g id="id21">
        <rect class="BoundingBox" stroke="none" fill="none" x="7018" y="1155" width="11588" height="6103"/>
        <path fill="rgb(89,194,232)" stroke="none" d="M 8736,1156 L 11193,2646 13638,4156 18524,7176 18604,7224 18511,7224 12764,7245 9892,7256 7019,7240 9892,7203 12764,7192 18511,7171 18498,7221 13608,4201 11166,2691 8736,1156 Z"/>
       </g>
      </g>
      <g class="com.sun.star.drawing.PolyPolygonShape">
       <g id="id22">
        <rect class="BoundingBox" stroke="none" fill="none" x="8653" y="1155" width="84" height="261"/>
        <path fill="rgb(89,194,232)" stroke="none" d="M 8736,1156 L 8673,1415 8654,1410 8736,1156 Z"/>
       </g>
      </g>
      <g class="com.sun.star.drawing.PolyPolygonShape">
       <g id="id23">
        <rect class="BoundingBox" stroke="none" fill="none" x="8534" y="1533" width="108" height="267"/>
        <path fill="rgb(89,194,232)" stroke="none" d="M 8641,1542 L 8577,1799 8535,1788 8614,1534 8641,1542 Z"/>
       </g>
      </g>
      <g class="com.sun.star.drawing.ClosedBezierShape">
       <g id="id24">
        <rect class="BoundingBox" stroke="none" fill="none" x="8420" y="1914" width="127" height="270"/>
        <path fill="rgb(89,194,232)" stroke="none" d="M 8546,1929 C 8535,1971 8522,2013 8509,2056 L 8472,2183 8421,2169 8458,2042 C 8469,2000 8482,1958 8493,1915 L 8546,1929 Z"/>
       </g>
      </g>
      <g class="com.sun.star.drawing.PolyPolygonShape">
       <g id="id25">
        <rect class="BoundingBox" stroke="none" fill="none" x="8319" y="2302" width="125" height="271"/>
        <path fill="rgb(89,194,232)" stroke="none" d="M 8320,2557 L 8393,2303 8443,2317 8371,2572 8320,2557 Z"/>
       </g>
      </g>
      <g class="com.sun.star.drawing.PolyPolygonShape">
       <g id="id26">
        <rect class="BoundingBox" stroke="none" fill="none" x="8213" y="2683" width="125" height="271"/>
        <path fill="rgb(89,194,232)" stroke="none" d="M 8214,2938 L 8286,2684 8337,2698 8265,2953 8214,2938 Z"/>
       </g>
      </g>
      <g class="com.sun.star.drawing.PolyPolygonShape">
       <g id="id27">
        <rect class="BoundingBox" stroke="none" fill="none" x="8102" y="3062" width="125" height="271"/>
        <path fill="rgb(89,194,232)" stroke="none" d="M 8103,3318 L 8175,3063 8226,3077 8154,3332 8103,3318 Z"/>
       </g>
      </g>
      <g class="com.sun.star.drawing.PolyPolygonShape">
       <g id="id28">
        <rect class="BoundingBox" stroke="none" fill="none" x="7995" y="3446" width="125" height="270"/>
        <path fill="rgb(89,194,232)" stroke="none" d="M 7996,3701 L 8068,3447 8119,3461 8047,3715 7996,3701 Z"/>
       </g>
      </g>
      <g class="com.sun.star.drawing.PolyPolygonShape">
       <g id="id29">
        <rect class="BoundingBox" stroke="none" fill="none" x="7885" y="3826" width="125" height="271"/>
        <path fill="rgb(89,194,232)" stroke="none" d="M 7886,4081 L 7958,3827 8009,3841 7937,4096 7886,4081 Z"/>
       </g>
      </g>
      <g class="com.sun.star.drawing.PolyPolygonShape">
       <g id="id30">
        <rect class="BoundingBox" stroke="none" fill="none" x="7778" y="4208" width="125" height="271"/>
        <path fill="rgb(89,194,232)" stroke="none" d="M 7779,4464 L 7851,4209 7902,4224 7830,4478 7779,4464 Z"/>
       </g>
      </g>
      <g class="com.sun.star.drawing.PolyPolygonShape">
       <g id="id31">
        <rect class="BoundingBox" stroke="none" fill="none" x="7674" y="4592" width="124" height="271"/>
        <path fill="rgb(89,194,232)" stroke="none" d="M 7675,4846 L 7747,4593 7797,4607 7725,4861 7675,4846 Z"/>
       </g>
      </g>
      <g class="com.sun.star.drawing.PolyPolygonShape">
       <g id="id32">
        <rect class="BoundingBox" stroke="none" fill="none" x="7563" y="4974" width="125" height="271"/>
        <path fill="rgb(89,194,232)" stroke="none" d="M 7564,5229 L 7636,4974 7687,4989 7615,5243 7564,5229 Z"/>
       </g>
      </g>
      <g class="com.sun.star.drawing.PolyPolygonShape">
       <g id="id33">
        <rect class="BoundingBox" stroke="none" fill="none" x="7459" y="5355" width="125" height="271"/>
        <path fill="rgb(89,194,232)" stroke="none" d="M 7460,5610 L 7532,5355 7583,5370 7511,5624 7460,5610 Z"/>
       </g>
      </g>
      <g class="com.sun.star.drawing.PolyPolygonShape">
       <g id="id34">
        <rect class="BoundingBox" stroke="none" fill="none" x="7349" y="5737" width="125" height="271"/>
        <path fill="rgb(89,194,232)" stroke="none" d="M 7350,5992 L 7422,5737 7473,5752 7401,6006 7350,5992 Z"/>
       </g>
      </g>
      <g class="com.sun.star.drawing.PolyPolygonShape">
       <g id="id35">
        <rect class="BoundingBox" stroke="none" fill="none" x="7238" y="6113" width="123" height="272"/>
        <path fill="rgb(89,194,232)" stroke="none" d="M 7360,6129 L 7289,6383 7239,6370 7310,6113 7360,6129 Z"/>
       </g>
      </g>
      <g class="com.sun.star.drawing.PolyPolygonShape">
       <g id="id36">
        <rect class="BoundingBox" stroke="none" fill="none" x="7137" y="6497" width="116" height="269"/>
        <path fill="rgb(89,194,232)" stroke="none" d="M 7252,6510 L 7172,6764 7138,6753 7202,6497 7252,6510 Z"/>
       </g>
      </g>
      <g class="com.sun.star.drawing.PolyPolygonShape">
       <g id="id37">
        <rect class="BoundingBox" stroke="none" fill="none" x="7018" y="6883" width="116" height="359"/>
        <path fill="rgb(89,194,232)" stroke="none" d="M 7133,6888 L 7019,7240 7043,7139 7106,6883 7133,6888 Z"/>
       </g>
      </g>
      <g class="com.sun.star.drawing.ClosedBezierShape">
       <g id="id38">
        <rect class="BoundingBox" stroke="none" fill="none" x="18363" y="7055" width="298" height="298"/>
        <path fill="rgb(83,168,211)" stroke="none" d="M 18659,7203 C 18659,7229 18652,7254 18639,7277 18626,7300 18608,7318 18585,7331 18562,7344 18537,7351 18511,7351 18485,7351 18460,7344 18437,7331 18415,7318 18396,7300 18383,7277 18370,7254 18363,7229 18363,7203 18363,7177 18370,7151 18383,7129 18396,7106 18415,7088 18437,7075 18460,7062 18485,7055 18511,7055 18537,7055 18562,7062 18585,7075 18608,7088 18626,7106 18639,7129 18652,7151 18659,7177 18659,7203 Z"/>
       </g>
      </g>
      <g class="com.sun.star.drawing.PolyPolygonShape">
       <g id="id39">
        <rect class="BoundingBox" stroke="none" fill="none" x="18508" y="7057" width="1391" height="714"/>
        <path fill="rgb(255,255,255)" stroke="none" d="M 18511,7235 L 18508,7298 18529,7348 18559,7364 18622,7383 18617,7415 18643,7444 19786,7769 19897,7380 18762,7057 18733,7060 18704,7105 18625,7089 18569,7105 18532,7163 18511,7235 Z"/>
       </g>
      </g>
      <g class="com.sun.star.drawing.ClosedBezierShape">
       <g id="id40">
        <rect class="BoundingBox" stroke="none" fill="none" x="18598" y="7034" width="1333" height="769"/>
        <path fill="none" stroke="rgb(35,31,32)" stroke-width="53" stroke-linejoin="miter" d="M 19789,7769 L 18654,7449 C 18633,7444 18619,7420 18627,7401 L 18715,7089 C 18720,7068 18744,7055 18762,7063 L 19897,7383 19789,7769 Z"/>
       </g>
      </g>
      <g class="com.sun.star.drawing.OpenBezierShape">
       <g id="id41">
        <rect class="BoundingBox" stroke="none" fill="none" x="18484" y="7056" width="233" height="346"/>
        <path fill="none" stroke="rgb(35,31,32)" stroke-width="53" stroke-linejoin="miter" d="M 18633,7375 L 18564,7356 C 18564,7356 18482,7343 18521,7198 18561,7060 18641,7084 18641,7084 L 18709,7102"/>
       </g>
      </g>
      <g class="com.sun.star.drawing.ClosedBezierShape">
       <g id="id42">
        <rect class="BoundingBox" stroke="none" fill="none" x="19133" y="7650" width="277" height="277"/>
        <path fill="rgb(255,255,255)" stroke="none" d="M 19408,7788 C 19408,7812 19401,7835 19389,7856 19377,7877 19360,7895 19339,7907 19318,7919 19294,7925 19270,7925 19246,7925 19222,7919 19201,7907 19181,7895 19163,7877 19151,7856 19139,7835 19133,7812 19133,7788 19133,7763 19139,7740 19151,7719 19163,7698 19181,7681 19201,7668 19222,7656 19246,7650 19270,7650 19294,7650 19318,7656 19339,7668 19360,7681 19377,7698 19389,7719 19401,7740 19408,7763 19408,7788 Z"/>
       </g>
      </g>
      <g class="com.sun.star.drawing.ClosedBezierShape">
       <g id="id43">
        <rect class="BoundingBox" stroke="none" fill="none" x="19106" y="7623" width="330" height="330"/>
        <path fill="none" stroke="rgb(35,31,32)" stroke-width="53" stroke-linejoin="miter" d="M 19408,7788 C 19408,7813 19401,7835 19389,7856 19377,7877 19360,7895 19339,7907 19318,7919 19294,7925 19270,7925 19246,7925 19222,7919 19201,7907 19181,7895 19163,7877 19151,7856 19139,7835 19133,7813 19133,7788 19133,7764 19139,7740 19151,7719 19163,7698 19181,7681 19201,7668 19222,7656 19246,7650 19270,7650 19294,7650 19318,7656 19339,7668 19360,7681 19377,7698 19389,7719 19401,7740 19408,7764 19408,7788 Z"/>
       </g>
      </g>
     </g>
    </g>
   </g>
  </g>
 </g>
</svg>