<?xml version="1.0" encoding="UTF-8"?>
<!DOCTYPE svg PUBLIC "-//W3C//DTD SVG 1.1//EN" "http://www.w3.org/Graphics/SVG/1.1/DTD/svg11.dtd">
<svg version="1.2" width="160mm" height="91mm" viewBox="0 0 16000 9100" preserveAspectRatio="xMidYMid" fill-rule="evenodd" stroke-width="28.222" stroke-linejoin="round" xmlns="http://www.w3.org/2000/svg" xmlns:ooo="http://xml.openoffice.org/svg/export" xmlns:xlink="http://www.w3.org/1999/xlink" xmlns:presentation="http://sun.com/xmlns/staroffice/presentation" xmlns:smil="http://www.w3.org/2001/SMIL20/" xmlns:anim="urn:oasis:names:tc:opendocument:xmlns:animation:1.0" xmlns:svg="urn:oasis:names:tc:opendocument:xmlns:svg-compatible:1.0" xml:space="preserve">
 <defs class="ClipPathGroup">
  <clipPath id="presentation_clip_path" clipPathUnits="userSpaceOnUse">
   <rect x="0" y="0" width="16000" height="9100"/>
  </clipPath>
  <clipPath id="presentation_clip_path_shrink" clipPathUnits="userSpaceOnUse">
   <rect x="16" y="9" width="15968" height="9082"/>
  </clipPath>
 </defs>
 <defs class="TextShapeIndex">
  <g ooo:slide="id1" ooo:id-list="id3 id4 id5 id6 id7 id8 id9 id10 id11 id12 id13 id14 id15 id16 id17 id18 id19 id20 id21 id22 id23 id24 id25 id26 id27 id28 id29 id30 id31 id32 id33 id34 id35 id36"/>
 </defs>
 <defs class="EmbeddedBulletChars">
  <g id="bullet-char-template-57356" transform="scale(0.00048828125,-0.00048828125)">
   <path d="M 580,1141 L 1163,571 580,0 -4,571 580,1141 Z"/>
  </g>
  <g id="bullet-char-template-57354" transform="scale(0.00048828125,-0.00048828125)">
   <path d="M 8,1128 L 1137,1128 1137,0 8,0 8,1128 Z"/>
  </g>
  <g id="bullet-char-template-10146" transform="scale(0.00048828125,-0.00048828125)">
   <path d="M 174,0 L 602,739 174,1481 1456,739 174,0 Z M 1358,739 L 309,1346 659,739 1358,739 Z"/>
  </g>
  <g id="bullet-char-template-10132" transform="scale(0.00048828125,-0.00048828125)">
   <path d="M 2015,739 L 1276,0 717,0 1260,543 174,543 174,936 1260,936 717,1481 1274,1481 2015,739 Z"/>
  </g>
  <g id="bullet-char-template-10007" transform="scale(0.00048828125,-0.00048828125)">
   <path d="M 0,-2 C -7,14 -16,27 -25,37 L 356,567 C 262,823 215,952 215,954 215,979 228,992 255,992 264,992 276,990 289,987 310,991 331,999 354,1012 L 381,999 492,748 772,1049 836,1024 860,1049 C 881,1039 901,1025 922,1006 886,937 835,863 770,784 769,783 710,716 594,584 L 774,223 C 774,196 753,168 711,139 L 727,119 C 717,90 699,76 672,76 641,76 570,178 457,381 L 164,-76 C 142,-110 111,-127 72,-127 30,-127 9,-110 8,-76 1,-67 -2,-52 -2,-32 -2,-23 -1,-13 0,-2 Z"/>
  </g>
  <g id="bullet-char-template-10004" transform="scale(0.00048828125,-0.00048828125)">
   <path d="M 285,-33 C 182,-33 111,30 74,156 52,228 41,333 41,471 41,549 55,616 82,672 116,743 169,778 240,778 293,778 328,747 346,684 L 369,508 C 377,444 397,411 428,410 L 1163,1116 C 1174,1127 1196,1133 1229,1133 1271,1133 1292,1118 1292,1087 L 1292,965 C 1292,929 1282,901 1262,881 L 442,47 C 390,-6 338,-33 285,-33 Z"/>
  </g>
  <g id="bullet-char-template-9679" transform="scale(0.00048828125,-0.00048828125)">
   <path d="M 813,0 C 632,0 489,54 383,161 276,268 223,411 223,592 223,773 276,916 383,1023 489,1130 632,1184 813,1184 992,1184 1136,1130 1245,1023 1353,916 1407,772 1407,592 1407,412 1353,268 1245,161 1136,54 992,0 813,0 Z"/>
  </g>
  <g id="bullet-char-template-8226" transform="scale(0.00048828125,-0.00048828125)">
   <path d="M 346,457 C 273,457 209,483 155,535 101,586 74,649 74,723 74,796 101,859 155,911 209,963 273,989 346,989 419,989 480,963 531,910 582,859 608,796 608,723 608,648 583,586 532,535 482,483 420,457 346,457 Z"/>
  </g>
  <g id="bullet-char-template-8211" transform="scale(0.00048828125,-0.00048828125)">
   <path d="M -4,459 L 1135,459 1135,606 -4,606 -4,459 Z"/>
  </g>
  <g id="bullet-char-template-61548" transform="scale(0.00048828125,-0.00048828125)">
   <path d="M 173,740 C 173,903 231,1043 346,1159 462,1274 601,1332 765,1332 928,1332 1067,1274 1183,1159 1299,1043 1357,903 1357,740 1357,577 1299,437 1183,322 1067,206 928,148 765,148 601,148 462,206 346,322 231,437 173,577 173,740 Z"/>
  </g>
 </defs>
 <g>
  <g id="id2" class="Master_Slide">
   <g id="bg-id2" class="Background"/>
   <g id="bo-id2" class="BackgroundObjects"/>
  </g>
 </g>
 <g class="SlideGroup">
  <g>
   <g id="container-id1">
    <g id="id1" class="Slide" clip-path="url(#presentation_clip_path)">
     <g class="Page">
      <g class="Group">
       <g class="com.sun.star.drawing.PolyPolygonShape">
        <g id="id3">
         <rect class="BoundingBox" stroke="none" fill="none" x="626" y="625" width="14465" height="7480"/>
         <path fill="rgb(255,255,255)" stroke="none" d="M 627,625 L 15089,625 15089,8103 627,8103 627,625 Z"/>
        </g>
       </g>
       <g class="com.sun.star.drawing.ClosedBezierShape">
        <g id="id4">
         <rect class="BoundingBox" stroke="none" fill="none" x="613" y="614" width="4866" height="7707"/>
         <path fill="rgb(190,190,190)" stroke="none" d="M 624,7894 L 5322,632 C 5341,602 5494,613 5475,641 L 627,8319 C 616,8340 605,7926 624,7894 Z"/>
        </g>
       </g>
       <g class="com.sun.star.drawing.ClosedBezierShape">
        <g id="id5">
         <rect class="BoundingBox" stroke="none" fill="none" x="13830" y="612" width="766" height="7989"/>
         <path fill="rgb(190,190,190)" stroke="none" d="M 14274,8578 L 13830,639 C 13830,605 13962,602 13965,639 L 14594,8570 C 14594,8605 14278,8610 14274,8578 Z"/>
        </g>
       </g>
       <g class="com.sun.star.drawing.PolyPolygonShape">
        <g id="id6">
         <rect class="BoundingBox" stroke="none" fill="none" x="4203" y="625" width="7872" height="4864"/>
         <path fill="rgb(255,255,255)" stroke="none" d="M 11721,625 L 11754,904 11992,1033 12074,1266 11932,1499 11732,1557 11732,2524 11732,3840 11674,4061 11423,4190 11266,5040 10979,5319 9979,5445 7579,5487 6061,5403 4906,5190 4631,5040 4588,4906 4505,3877 4550,3061 4691,2594 4839,2095 5054,1600 4719,1421 4308,1335 4204,1137 4368,920 4645,851 4991,851 5133,967 5133,1240 5187,1251 5371,625 11721,625 Z"/>
        </g>
       </g>
       <g class="com.sun.star.drawing.PolyPolygonShape">
        <g id="id7">
         <rect class="BoundingBox" stroke="none" fill="none" x="4174" y="621" width="7933" height="4894"/>
         <path fill="rgb(35,31,32)" stroke="none" d="M 7580,5513 L 6057,5430 4898,5215 4610,5060 4561,4907 4479,3878 4525,3054 4815,2088 5021,1613 4709,1446 4289,1358 4174,1135 4353,897 4645,825 4999,825 5161,954 5161,1219 5169,1219 5347,621 5399,634 5207,1280 5106,1264 5106,978 4980,878 4649,878 4385,944 4237,1141 4328,1314 4733,1398 5090,1589 4865,2106 4577,3068 4533,3878 4615,4902 4657,5023 4917,5164 6065,5377 7583,5461 9977,5418 10966,5293 11242,5028 11398,4172 11650,4044 11705,3839 11705,1540 11916,1479 12044,1264 11971,1052 11730,923 11694,629 11749,624 11781,889 12015,1015 12105,1269 11952,1524 11760,1577 11760,3847 11696,4080 11448,4206 11292,5054 10991,5342 9979,5471 7580,5513 Z"/>
        </g>
       </g>
       <g class="com.sun.star.drawing.PolyPolygonShape">
        <g id="id8">
         <rect class="BoundingBox" stroke="none" fill="none" x="10986" y="872" width="769" height="280"/>
         <path fill="rgb(35,31,32)" stroke="none" d="M 10987,1150 L 11124,873 11754,873 11754,935 11168,935 10987,1150 Z"/>
        </g>
       </g>
       <g class="com.sun.star.drawing.PolyPolygonShape">
        <g id="id9">
         <rect class="BoundingBox" stroke="none" fill="none" x="11007" y="1489" width="730" height="181"/>
         <path fill="rgb(35,31,32)" stroke="none" d="M 11007,1668 L 11132,1531 11250,1490 11735,1527 11730,1589 11259,1555 11174,1584 11007,1668 Z"/>
        </g>
       </g>
       <g class="com.sun.star.drawing.ClosedBezierShape">
        <g id="id10">
         <rect class="BoundingBox" stroke="none" fill="none" x="9714" y="3024" width="1412" height="700"/>
         <path fill="rgb(35,31,32)" stroke="none" d="M 9799,3723 L 9714,3642 9964,3227 10440,3059 11038,3025 11040,3025 C 11125,3088 11125,3104 11125,3109 L 11125,3527 10963,3652 9799,3723 Z M 9747,3636 L 9809,3697 10954,3626 11101,3513 11101,3109 C 11101,3104 11062,3076 11031,3051 L 10445,3082 9982,3246 9747,3636 Z"/>
        </g>
       </g>
       <g class="com.sun.star.drawing.ClosedBezierShape">
        <g id="id11">
         <rect class="BoundingBox" stroke="none" fill="none" x="4711" y="2919" width="1347" height="700"/>
         <path fill="rgb(35,31,32)" stroke="none" d="M 5947,3617 L 5942,3617 4849,3544 4712,3418 4712,3411 C 4737,3252 4775,3014 4775,3001 4775,2987 4775,2980 4860,2919 L 4861,2919 5399,2951 5786,3120 6057,3535 5947,3617 Z M 4861,3520 L 5942,3592 6027,3528 5772,3141 5394,2978 4874,2945 C 4840,2970 4807,2998 4801,3006 4801,3017 4752,3331 4738,3411 L 4861,3520 Z"/>
        </g>
       </g>
       <g class="com.sun.star.drawing.PolyPolygonShape">
        <g id="id12">
         <rect class="BoundingBox" stroke="none" fill="none" x="5440" y="623" width="5264" height="1162"/>
         <path fill="rgb(35,31,32)" stroke="none" d="M 7892,1783 L 5807,1750 5502,1646 5441,1380 5441,1377 5654,624 5681,632 5467,1382 5526,1626 5812,1723 7892,1757 10338,1707 10618,1597 10674,1380 10576,629 10604,625 10703,1382 10643,1615 10341,1734 7892,1783 Z"/>
        </g>
       </g>
       <g class="com.sun.star.drawing.PolyPolygonShape">
        <g id="id13">
         <rect class="BoundingBox" stroke="none" fill="none" x="6806" y="4585" width="2061" height="580"/>
         <path fill="rgb(35,31,32)" stroke="none" d="M 8866,5164 L 6807,5164 6807,4586 8866,4586 8866,5164 Z M 6864,5112 L 8814,5112 8814,4639 6864,4639 6864,5112 Z"/>
        </g>
       </g>
       <g class="com.sun.star.drawing.PolyPolygonShape">
        <g id="id14">
         <rect class="BoundingBox" stroke="none" fill="none" x="10266" y="4366" width="1139" height="1269"/>
         <path fill="rgb(35,31,32)" stroke="none" d="M 11030,5634 L 10450,5634 10300,5529 10266,5387 10294,5382 10325,5513 10458,5608 11022,5608 11253,5430 11316,5211 11376,4366 11403,4369 11343,5216 11275,5442 11030,5634 Z"/>
        </g>
       </g>
       <g class="com.sun.star.drawing.PolyPolygonShape">
        <g id="id15">
         <rect class="BoundingBox" stroke="none" fill="none" x="4829" y="5153" width="1140" height="420"/>
         <path fill="rgb(35,31,32)" stroke="none" d="M 5703,5571 L 5139,5571 4886,5369 4829,5159 4856,5154 4911,5353 5149,5545 5695,5545 5899,5447 5943,5375 5968,5387 5922,5469 5703,5571 Z"/>
        </g>
       </g>
       <g class="com.sun.star.drawing.ClosedBezierShape">
        <g id="id16">
         <rect class="BoundingBox" stroke="none" fill="none" x="600" y="599" width="14801" height="8002"/>
         <path fill="rgb(114,114,114)" stroke="none" d="M 15373,8600 L 627,8600 C 610,8600 600,8589 600,8574 L 600,625 C 600,610 610,600 627,600 L 15373,600 C 15390,600 15400,610 15400,625 L 15400,8574 C 15400,8589 15390,8600 15373,8600 Z M 655,8547 L 15345,8547 15345,653 655,653 655,8547 Z"/>
        </g>
       </g>
       <g class="com.sun.star.drawing.PolyPolygonShape">
        <g id="id17">
         <rect class="BoundingBox" stroke="none" fill="none" x="878" y="4854" width="550" height="28"/>
         <path fill="rgb(89,194,232)" stroke="none" d="M 878,4867 L 1427,4854 1427,4880 878,4867 Z"/>
        </g>
       </g>
       <g class="com.sun.star.drawing.PolyPolygonShape">
        <g id="id18">
         <rect class="BoundingBox" stroke="none" fill="none" x="1700" y="4836" width="550" height="64"/>
         <path fill="rgb(89,194,232)" stroke="none" d="M 1701,4850 L 2248,4836 2248,4899 1701,4889 1701,4850 Z"/>
        </g>
       </g>
       <g class="com.sun.star.drawing.ClosedBezierShape">
        <g id="id19">
         <rect class="BoundingBox" stroke="none" fill="none" x="2522" y="4826" width="549" height="83"/>
         <path fill="rgb(89,194,232)" stroke="none" d="M 2522,4831 C 2612,4828 2705,4825 2796,4828 L 3070,4828 3070,4907 2796,4907 C 2705,4907 2612,4904 2522,4904 L 2522,4831 Z"/>
        </g>
       </g>
       <g class="com.sun.star.drawing.PolyPolygonShape">
        <g id="id20">
         <rect class="BoundingBox" stroke="none" fill="none" x="3344" y="4828" width="550" height="80"/>
         <path fill="rgb(89,194,232)" stroke="none" d="M 3344,4829 L 3892,4829 3892,4907 3344,4907 3344,4829 Z"/>
        </g>
       </g>
       <g class="com.sun.star.drawing.PolyPolygonShape">
        <g id="id21">
         <rect class="BoundingBox" stroke="none" fill="none" x="4165" y="4828" width="550" height="80"/>
         <path fill="rgb(89,194,232)" stroke="none" d="M 4166,4829 L 4713,4829 4713,4907 4166,4907 4166,4829 Z"/>
        </g>
       </g>
       <g class="com.sun.star.drawing.PolyPolygonShape">
        <g id="id22">
         <rect class="BoundingBox" stroke="none" fill="none" x="4988" y="4828" width="549" height="80"/>
         <path fill="rgb(89,194,232)" stroke="none" d="M 4988,4829 L 5536,4829 5536,4907 4988,4907 4988,4829 Z"/>
        </g>
       </g>
       <g class="com.sun.star.drawing.PolyPolygonShape">
        <g id="id23">
         <rect class="BoundingBox" stroke="none" fill="none" x="5810" y="4828" width="550" height="80"/>
         <path fill="rgb(89,194,232)" stroke="none" d="M 5811,4829 L 6358,4829 6358,4907 5811,4907 5811,4829 Z"/>
        </g>
       </g>
       <g class="com.sun.star.drawing.PolyPolygonShape">
        <g id="id24">
         <rect class="BoundingBox" stroke="none" fill="none" x="6631" y="4828" width="550" height="80"/>
         <path fill="rgb(89,194,232)" stroke="none" d="M 6631,4829 L 7180,4829 7180,4907 6631,4907 6631,4829 Z"/>
        </g>
       </g>
       <g class="com.sun.star.drawing.PolyPolygonShape">
        <g id="id25">
         <rect class="BoundingBox" stroke="none" fill="none" x="7453" y="4828" width="549" height="80"/>
         <path fill="rgb(89,194,232)" stroke="none" d="M 7453,4829 L 8001,4829 8001,4907 7453,4907 7453,4829 Z"/>
        </g>
       </g>
       <g class="com.sun.star.drawing.PolyPolygonShape">
        <g id="id26">
         <rect class="BoundingBox" stroke="none" fill="none" x="8275" y="4828" width="550" height="80"/>
         <path fill="rgb(89,194,232)" stroke="none" d="M 8276,4829 L 8823,4829 8823,4907 8276,4907 8276,4829 Z"/>
        </g>
       </g>
       <g class="com.sun.star.drawing.PolyPolygonShape">
        <g id="id27">
         <rect class="BoundingBox" stroke="none" fill="none" x="9097" y="4828" width="550" height="80"/>
         <path fill="rgb(89,194,232)" stroke="none" d="M 9098,4829 L 9646,4829 9646,4907 9098,4907 9098,4829 Z"/>
        </g>
       </g>
       <g class="com.sun.star.drawing.PolyPolygonShape">
        <g id="id28">
         <rect class="BoundingBox" stroke="none" fill="none" x="9918" y="4828" width="550" height="80"/>
         <path fill="rgb(89,194,232)" stroke="none" d="M 9918,4829 L 10466,4829 10466,4907 9918,4907 9918,4829 Z"/>
        </g>
       </g>
       <g class="com.sun.star.drawing.PolyPolygonShape">
        <g id="id29">
         <rect class="BoundingBox" stroke="none" fill="none" x="10740" y="4828" width="550" height="80"/>
         <path fill="rgb(89,194,232)" stroke="none" d="M 10741,4829 L 11288,4829 11288,4907 10741,4907 10741,4829 Z"/>
        </g>
       </g>
       <g class="com.sun.star.drawing.PolyPolygonShape">
        <g id="id30">
         <rect class="BoundingBox" stroke="none" fill="none" x="11563" y="4828" width="549" height="80"/>
         <path fill="rgb(89,194,232)" stroke="none" d="M 11563,4829 L 12111,4829 12111,4907 11563,4907 11563,4829 Z"/>
        </g>
       </g>
       <g class="com.sun.star.drawing.PolyPolygonShape">
        <g id="id31">
         <rect class="BoundingBox" stroke="none" fill="none" x="12383" y="4828" width="551" height="80"/>
         <path fill="rgb(89,194,232)" stroke="none" d="M 12384,4829 L 12932,4829 12932,4907 12384,4907 12384,4829 Z"/>
        </g>
       </g>
       <g class="com.sun.star.drawing.ClosedBezierShape">
        <g id="id32">
         <rect class="BoundingBox" stroke="none" fill="none" x="13205" y="4828" width="550" height="79"/>
         <path fill="rgb(89,194,232)" stroke="none" d="M 13206,4829 C 13296,4829 13389,4830 13481,4830 L 13754,4836 13754,4897 13481,4902 C 13389,4905 13296,4907 13206,4905 L 13206,4829 Z"/>
        </g>
       </g>
       <g class="com.sun.star.drawing.PolyPolygonShape">
        <g id="id33">
         <rect class="BoundingBox" stroke="none" fill="none" x="14028" y="4844" width="549" height="51"/>
         <path fill="rgb(89,194,232)" stroke="none" d="M 14028,4844 L 14576,4854 14576,4881 14028,4894 14028,4844 Z"/>
        </g>
       </g>
       <g class="com.sun.star.drawing.PolyPolygonShape">
        <g id="id34">
         <rect class="BoundingBox" stroke="none" fill="none" x="14850" y="4860" width="276" height="17"/>
         <path fill="rgb(89,194,232)" stroke="none" d="M 14851,4860 L 15124,4867 14851,4875 14851,4860 Z"/>
        </g>
       </g>
       <g class="com.sun.star.drawing.ClosedBezierShape">
        <g id="id35">
         <rect class="BoundingBox" stroke="none" fill="none" x="783" y="4675" width="374" height="359"/>
         <path fill="rgb(89,194,232)" stroke="none" d="M 1156,4854 C 1156,4886 1147,4916 1131,4944 1115,4971 1091,4993 1063,5009 1034,5025 1002,5033 969,5033 937,5033 905,5025 877,5009 848,4993 825,4971 808,4944 791,4916 783,4886 783,4854 783,4823 791,4793 808,4765 825,4738 848,4715 877,4699 905,4684 937,4676 969,4676 1001,4676 1034,4684 1063,4699 1091,4715 1114,4738 1131,4765 1147,4793 1156,4823 1156,4854 Z"/>
        </g>
       </g>
       <g class="com.sun.star.drawing.ClosedBezierShape">
        <g id="id36">
         <rect class="BoundingBox" stroke="none" fill="none" x="14863" y="4675" width="375" height="359"/>
         <path fill="rgb(89,194,232)" stroke="none" d="M 15236,4854 C 15236,4886 15226,4916 15210,4944 15195,4971 15172,4993 15143,5009 15114,5025 15083,5033 15049,5033 15017,5033 14986,5025 14957,5009 14928,4993 14905,4971 14888,4944 14872,4916 14864,4886 14864,4854 14864,4823 14872,4793 14888,4765 14905,4738 14928,4715 14957,4699 14986,4684 15017,4676 15049,4676 15082,4676 15114,4684 15143,4699 15172,4715 15195,4738 15210,4765 15227,4793 15236,4823 15236,4854 Z"/>
        </g>
       </g>
      </g>
     </g>
    </g>
   </g>
  </g>
 </g>
</svg>