<?xml version="1.0"?>
<svg xmlns="http://www.w3.org/2000/svg" xmlns:xlink="http://www.w3.org/1999/xlink" version="1.1" width="420px" height="420px" viewBox="0 0 420 420"><defs><rect id="block" width="12.0000000000" height="12.0000000000" fill="#000000" fill-opacity="1"/></defs><rect x="0" y="0" width="420" height="420" fill="#ffffff" fill-opacity="1"/><use x="12.0000000000" y="12.0000000000" xlink:href="#block"/><use x="24.0000000000" y="12.0000000000" xlink:href="#block"/><use x="36.0000000000" y="12.0000000000" xlink:href="#block"/><use x="48.0000000000" y="12.0000000000" xlink:href="#block"/><use x="60.0000000000" y="12.0000000000" xlink:href="#block"/><use x="72.0000000000" y="12.0000000000" xlink:href="#block"/><use x="84.0000000000" y="12.0000000000" xlink:href="#block"/><use x="144.0000000000" y="12.0000000000" xlink:href="#block"/><use x="240.0000000000" y="12.0000000000" xlink:href="#block"/><use x="252.0000000000" y="12.0000000000" xlink:href="#block"/><use x="264.0000000000" y="12.0000000000" xlink:href="#block"/><use x="300.0000000000" y="12.0000000000" xlink:href="#block"/><use x="324.0000000000" y="12.0000000000" xlink:href="#block"/><use x="336.0000000000" y="12.0000000000" xlink:href="#block"/><use x="348.0000000000" y="12.0000000000" xlink:href="#block"/><use x="360.0000000000" y="12.0000000000" xlink:href="#block"/><use x="372.0000000000" y="12.0000000000" xlink:href="#block"/><use x="384.0000000000" y="12.0000000000" xlink:href="#block"/><use x="396.0000000000" y="12.0000000000" xlink:href="#block"/><use x="12.0000000000" y="24.0000000000" xlink:href="#block"/><use x="84.0000000000" y="24.0000000000" xlink:href="#block"/><use x="108.0000000000" y="24.0000000000" xlink:href="#block"/><use x="120.0000000000" y="24.0000000000" xlink:href="#block"/><use x="132.0000000000" y="24.0000000000" xlink:href="#block"/><use x="144.0000000000" y="24.0000000000" xlink:href="#block"/><use x="156.0000000000" y="24.0000000000" xlink:href="#block"/><use x="168.0000000000" y="24.0000000000" xlink:href="#block"/><use x="180.0000000000" y="24.0000000000" xlink:href="#block"/><use x="192.0000000000" y="24.0000000000" xlink:href="#block"/><use x="216.0000000000" y="24.0000000000" xlink:href="#block"/><use x="264.0000000000" y="24.0000000000" xlink:href="#block"/><use x="276.0000000000" y="24.0000000000" xlink:href="#block"/><use x="324.0000000000" y="24.0000000000" xlink:href="#block"/><use x="396.0000000000" y="24.0000000000" xlink:href="#block"/><use x="12.0000000000" y="36.0000000000" xlink:href="#block"/><use x="36.0000000000" y="36.0000000000" xlink:href="#block"/><use x="48.0000000000" y="36.0000000000" xlink:href="#block"/><use x="60.0000000000" y="36.0000000000" xlink:href="#block"/><use x="84.0000000000" y="36.0000000000" xlink:href="#block"/><use x="108.0000000000" y="36.0000000000" xlink:href="#block"/><use x="156.0000000000" y="36.0000000000" xlink:href="#block"/><use x="168.0000000000" y="36.0000000000" xlink:href="#block"/><use x="204.0000000000" y="36.0000000000" xlink:href="#block"/><use x="216.0000000000" y="36.0000000000" xlink:href="#block"/><use x="228.0000000000" y="36.0000000000" xlink:href="#block"/><use x="240.0000000000" y="36.0000000000" xlink:href="#block"/><use x="252.0000000000" y="36.0000000000" xlink:href="#block"/><use x="264.0000000000" y="36.0000000000" xlink:href="#block"/><use x="288.0000000000" y="36.0000000000" xlink:href="#block"/><use x="324.0000000000" y="36.0000000000" xlink:href="#block"/><use x="348.0000000000" y="36.0000000000" xlink:href="#block"/><use x="360.0000000000" y="36.0000000000" xlink:href="#block"/><use x="372.0000000000" y="36.0000000000" xlink:href="#block"/><use x="396.0000000000" y="36.0000000000" xlink:href="#block"/><use x="12.0000000000" y="48.0000000000" xlink:href="#block"/><use x="36.0000000000" y="48.0000000000" xlink:href="#block"/><use x="48.0000000000" y="48.0000000000" xlink:href="#block"/><use x="60.0000000000" y="48.0000000000" xlink:href="#block"/><use x="84.0000000000" y="48.0000000000" xlink:href="#block"/><use x="108.0000000000" y="48.0000000000" xlink:href="#block"/><use x="120.0000000000" y="48.0000000000" xlink:href="#block"/><use x="132.0000000000" y="48.0000000000" xlink:href="#block"/><use x="324.0000000000" y="48.0000000000" xlink:href="#block"/><use x="348.0000000000" y="48.0000000000" xlink:href="#block"/><use x="360.0000000000" y="48.0000000000" xlink:href="#block"/><use x="372.0000000000" y="48.0000000000" xlink:href="#block"/><use x="396.0000000000" y="48.0000000000" xlink:href="#block"/><use x="12.0000000000" y="60.0000000000" xlink:href="#block"/><use x="36.0000000000" y="60.0000000000" xlink:href="#block"/><use x="48.0000000000" y="60.0000000000" xlink:href="#block"/><use x="60.0000000000" y="60.0000000000" xlink:href="#block"/><use x="84.0000000000" y="60.0000000000" xlink:href="#block"/><use x="120.0000000000" y="60.0000000000" xlink:href="#block"/><use x="156.0000000000" y="60.0000000000" xlink:href="#block"/><use x="192.0000000000" y="60.0000000000" xlink:href="#block"/><use x="228.0000000000" y="60.0000000000" xlink:href="#block"/><use x="264.0000000000" y="60.0000000000" xlink:href="#block"/><use x="276.0000000000" y="60.0000000000" xlink:href="#block"/><use x="288.0000000000" y="60.0000000000" xlink:href="#block"/><use x="300.0000000000" y="60.0000000000" xlink:href="#block"/><use x="324.0000000000" y="60.0000000000" xlink:href="#block"/><use x="348.0000000000" y="60.0000000000" xlink:href="#block"/><use x="360.0000000000" y="60.0000000000" xlink:href="#block"/><use x="372.0000000000" y="60.0000000000" xlink:href="#block"/><use x="396.0000000000" y="60.0000000000" xlink:href="#block"/><use x="12.0000000000" y="72.0000000000" xlink:href="#block"/><use x="84.0000000000" y="72.0000000000" xlink:href="#block"/><use x="144.0000000000" y="72.0000000000" xlink:href="#block"/><use x="168.0000000000" y="72.0000000000" xlink:href="#block"/><use x="204.0000000000" y="72.0000000000" xlink:href="#block"/><use x="216.0000000000" y="72.0000000000" xlink:href="#block"/><use x="252.0000000000" y="72.0000000000" xlink:href="#block"/><use x="264.0000000000" y="72.0000000000" xlink:href="#block"/><use x="324.0000000000" y="72.0000000000" xlink:href="#block"/><use x="396.0000000000" y="72.0000000000" xlink:href="#block"/><use x="12.0000000000" y="84.0000000000" xlink:href="#block"/><use x="24.0000000000" y="84.0000000000" xlink:href="#block"/><use x="36.0000000000" y="84.0000000000" xlink:href="#block"/><use x="48.0000000000" y="84.0000000000" xlink:href="#block"/><use x="60.0000000000" y="84.0000000000" xlink:href="#block"/><use x="72.0000000000" y="84.0000000000" xlink:href="#block"/><use x="84.0000000000" y="84.0000000000" xlink:href="#block"/><use x="108.0000000000" y="84.0000000000" xlink:href="#block"/><use x="132.0000000000" y="84.0000000000" xlink:href="#block"/><use x="156.0000000000" y="84.0000000000" xlink:href="#block"/><use x="180.0000000000" y="84.0000000000" xlink:href="#block"/><use x="204.0000000000" y="84.0000000000" xlink:href="#block"/><use x="228.0000000000" y="84.0000000000" xlink:href="#block"/><use x="252.0000000000" y="84.0000000000" xlink:href="#block"/><use x="276.0000000000" y="84.0000000000" xlink:href="#block"/><use x="300.0000000000" y="84.0000000000" xlink:href="#block"/><use x="324.0000000000" y="84.0000000000" xlink:href="#block"/><use x="336.0000000000" y="84.0000000000" xlink:href="#block"/><use x="348.0000000000" y="84.0000000000" xlink:href="#block"/><use x="360.0000000000" y="84.0000000000" xlink:href="#block"/><use x="372.0000000000" y="84.0000000000" xlink:href="#block"/><use x="384.0000000000" y="84.0000000000" xlink:href="#block"/><use x="396.0000000000" y="84.0000000000" xlink:href="#block"/><use x="108.0000000000" y="96.0000000000" xlink:href="#block"/><use x="120.0000000000" y="96.0000000000" xlink:href="#block"/><use x="144.0000000000" y="96.0000000000" xlink:href="#block"/><use x="168.0000000000" y="96.0000000000" xlink:href="#block"/><use x="264.0000000000" y="96.0000000000" xlink:href="#block"/><use x="288.0000000000" y="96.0000000000" xlink:href="#block"/><use x="12.0000000000" y="108.0000000000" xlink:href="#block"/><use x="84.0000000000" y="108.0000000000" xlink:href="#block"/><use x="108.0000000000" y="108.0000000000" xlink:href="#block"/><use x="120.0000000000" y="108.0000000000" xlink:href="#block"/><use x="156.0000000000" y="108.0000000000" xlink:href="#block"/><use x="168.0000000000" y="108.0000000000" xlink:href="#block"/><use x="180.0000000000" y="108.0000000000" xlink:href="#block"/><use x="192.0000000000" y="108.0000000000" xlink:href="#block"/><use x="216.0000000000" y="108.0000000000" xlink:href="#block"/><use x="228.0000000000" y="108.0000000000" xlink:href="#block"/><use x="252.0000000000" y="108.0000000000" xlink:href="#block"/><use x="276.0000000000" y="108.0000000000" xlink:href="#block"/><use x="312.0000000000" y="108.0000000000" xlink:href="#block"/><use x="324.0000000000" y="108.0000000000" xlink:href="#block"/><use x="360.0000000000" y="108.0000000000" xlink:href="#block"/><use x="372.0000000000" y="108.0000000000" xlink:href="#block"/><use x="384.0000000000" y="108.0000000000" xlink:href="#block"/><use x="36.0000000000" y="120.0000000000" xlink:href="#block"/><use x="96.0000000000" y="120.0000000000" xlink:href="#block"/><use x="120.0000000000" y="120.0000000000" xlink:href="#block"/><use x="132.0000000000" y="120.0000000000" xlink:href="#block"/><use x="192.0000000000" y="120.0000000000" xlink:href="#block"/><use x="204.0000000000" y="120.0000000000" xlink:href="#block"/><use x="228.0000000000" y="120.0000000000" xlink:href="#block"/><use x="240.0000000000" y="120.0000000000" xlink:href="#block"/><use x="252.0000000000" y="120.0000000000" xlink:href="#block"/><use x="276.0000000000" y="120.0000000000" xlink:href="#block"/><use x="288.0000000000" y="120.0000000000" xlink:href="#block"/><use x="300.0000000000" y="120.0000000000" xlink:href="#block"/><use x="360.0000000000" y="120.0000000000" xlink:href="#block"/><use x="372.0000000000" y="120.0000000000" xlink:href="#block"/><use x="384.0000000000" y="120.0000000000" xlink:href="#block"/><use x="396.0000000000" y="120.0000000000" xlink:href="#block"/><use x="12.0000000000" y="132.0000000000" xlink:href="#block"/><use x="24.0000000000" y="132.0000000000" xlink:href="#block"/><use x="48.0000000000" y="132.0000000000" xlink:href="#block"/><use x="60.0000000000" y="132.0000000000" xlink:href="#block"/><use x="72.0000000000" y="132.0000000000" xlink:href="#block"/><use x="84.0000000000" y="132.0000000000" xlink:href="#block"/><use x="108.0000000000" y="132.0000000000" xlink:href="#block"/><use x="120.0000000000" y="132.0000000000" xlink:href="#block"/><use x="132.0000000000" y="132.0000000000" xlink:href="#block"/><use x="156.0000000000" y="132.0000000000" xlink:href="#block"/><use x="192.0000000000" y="132.0000000000" xlink:href="#block"/><use x="204.0000000000" y="132.0000000000" xlink:href="#block"/><use x="228.0000000000" y="132.0000000000" xlink:href="#block"/><use x="276.0000000000" y="132.0000000000" xlink:href="#block"/><use x="300.0000000000" y="132.0000000000" xlink:href="#block"/><use x="312.0000000000" y="132.0000000000" xlink:href="#block"/><use x="348.0000000000" y="132.0000000000" xlink:href="#block"/><use x="12.0000000000" y="144.0000000000" xlink:href="#block"/><use x="24.0000000000" y="144.0000000000" xlink:href="#block"/><use x="72.0000000000" y="144.0000000000" xlink:href="#block"/><use x="108.0000000000" y="144.0000000000" xlink:href="#block"/><use x="120.0000000000" y="144.0000000000" xlink:href="#block"/><use x="180.0000000000" y="144.0000000000" xlink:href="#block"/><use x="192.0000000000" y="144.0000000000" xlink:href="#block"/><use x="204.0000000000" y="144.0000000000" xlink:href="#block"/><use x="240.0000000000" y="144.0000000000" xlink:href="#block"/><use x="252.0000000000" y="144.0000000000" xlink:href="#block"/><use x="276.0000000000" y="144.0000000000" xlink:href="#block"/><use x="288.0000000000" y="144.0000000000" xlink:href="#block"/><use x="312.0000000000" y="144.0000000000" xlink:href="#block"/><use x="324.0000000000" y="144.0000000000" xlink:href="#block"/><use x="396.0000000000" y="144.0000000000" xlink:href="#block"/><use x="12.0000000000" y="156.0000000000" xlink:href="#block"/><use x="48.0000000000" y="156.0000000000" xlink:href="#block"/><use x="60.0000000000" y="156.0000000000" xlink:href="#block"/><use x="72.0000000000" y="156.0000000000" xlink:href="#block"/><use x="84.0000000000" y="156.0000000000" xlink:href="#block"/><use x="108.0000000000" y="156.0000000000" xlink:href="#block"/><use x="144.0000000000" y="156.0000000000" xlink:href="#block"/><use x="168.0000000000" y="156.0000000000" xlink:href="#block"/><use x="180.0000000000" y="156.0000000000" xlink:href="#block"/><use x="192.0000000000" y="156.0000000000" xlink:href="#block"/><use x="204.0000000000" y="156.0000000000" xlink:href="#block"/><use x="216.0000000000" y="156.0000000000" xlink:href="#block"/><use x="228.0000000000" y="156.0000000000" xlink:href="#block"/><use x="240.0000000000" y="156.0000000000" xlink:href="#block"/><use x="252.0000000000" y="156.0000000000" xlink:href="#block"/><use x="264.0000000000" y="156.0000000000" xlink:href="#block"/><use x="288.0000000000" y="156.0000000000" xlink:href="#block"/><use x="312.0000000000" y="156.0000000000" xlink:href="#block"/><use x="324.0000000000" y="156.0000000000" xlink:href="#block"/><use x="336.0000000000" y="156.0000000000" xlink:href="#block"/><use x="348.0000000000" y="156.0000000000" xlink:href="#block"/><use x="360.0000000000" y="156.0000000000" xlink:href="#block"/><use x="372.0000000000" y="156.0000000000" xlink:href="#block"/><use x="396.0000000000" y="156.0000000000" xlink:href="#block"/><use x="48.0000000000" y="168.0000000000" xlink:href="#block"/><use x="60.0000000000" y="168.0000000000" xlink:href="#block"/><use x="72.0000000000" y="168.0000000000" xlink:href="#block"/><use x="108.0000000000" y="168.0000000000" xlink:href="#block"/><use x="132.0000000000" y="168.0000000000" xlink:href="#block"/><use x="180.0000000000" y="168.0000000000" xlink:href="#block"/><use x="204.0000000000" y="168.0000000000" xlink:href="#block"/><use x="252.0000000000" y="168.0000000000" xlink:href="#block"/><use x="324.0000000000" y="168.0000000000" xlink:href="#block"/><use x="360.0000000000" y="168.0000000000" xlink:href="#block"/><use x="372.0000000000" y="168.0000000000" xlink:href="#block"/><use x="24.0000000000" y="180.0000000000" xlink:href="#block"/><use x="36.0000000000" y="180.0000000000" xlink:href="#block"/><use x="72.0000000000" y="180.0000000000" xlink:href="#block"/><use x="84.0000000000" y="180.0000000000" xlink:href="#block"/><use x="156.0000000000" y="180.0000000000" xlink:href="#block"/><use x="180.0000000000" y="180.0000000000" xlink:href="#block"/><use x="216.0000000000" y="180.0000000000" xlink:href="#block"/><use x="228.0000000000" y="180.0000000000" xlink:href="#block"/><use x="240.0000000000" y="180.0000000000" xlink:href="#block"/><use x="276.0000000000" y="180.0000000000" xlink:href="#block"/><use x="288.0000000000" y="180.0000000000" xlink:href="#block"/><use x="300.0000000000" y="180.0000000000" xlink:href="#block"/><use x="348.0000000000" y="180.0000000000" xlink:href="#block"/><use x="360.0000000000" y="180.0000000000" xlink:href="#block"/><use x="12.0000000000" y="192.0000000000" xlink:href="#block"/><use x="36.0000000000" y="192.0000000000" xlink:href="#block"/><use x="48.0000000000" y="192.0000000000" xlink:href="#block"/><use x="60.0000000000" y="192.0000000000" xlink:href="#block"/><use x="108.0000000000" y="192.0000000000" xlink:href="#block"/><use x="144.0000000000" y="192.0000000000" xlink:href="#block"/><use x="168.0000000000" y="192.0000000000" xlink:href="#block"/><use x="180.0000000000" y="192.0000000000" xlink:href="#block"/><use x="192.0000000000" y="192.0000000000" xlink:href="#block"/><use x="216.0000000000" y="192.0000000000" xlink:href="#block"/><use x="228.0000000000" y="192.0000000000" xlink:href="#block"/><use x="240.0000000000" y="192.0000000000" xlink:href="#block"/><use x="264.0000000000" y="192.0000000000" xlink:href="#block"/><use x="276.0000000000" y="192.0000000000" xlink:href="#block"/><use x="288.0000000000" y="192.0000000000" xlink:href="#block"/><use x="300.0000000000" y="192.0000000000" xlink:href="#block"/><use x="336.0000000000" y="192.0000000000" xlink:href="#block"/><use x="348.0000000000" y="192.0000000000" xlink:href="#block"/><use x="372.0000000000" y="192.0000000000" xlink:href="#block"/><use x="384.0000000000" y="192.0000000000" xlink:href="#block"/><use x="12.0000000000" y="204.0000000000" xlink:href="#block"/><use x="24.0000000000" y="204.0000000000" xlink:href="#block"/><use x="72.0000000000" y="204.0000000000" xlink:href="#block"/><use x="84.0000000000" y="204.0000000000" xlink:href="#block"/><use x="96.0000000000" y="204.0000000000" xlink:href="#block"/><use x="132.0000000000" y="204.0000000000" xlink:href="#block"/><use x="144.0000000000" y="204.0000000000" xlink:href="#block"/><use x="156.0000000000" y="204.0000000000" xlink:href="#block"/><use x="168.0000000000" y="204.0000000000" xlink:href="#block"/><use x="216.0000000000" y="204.0000000000" xlink:href="#block"/><use x="240.0000000000" y="204.0000000000" xlink:href="#block"/><use x="252.0000000000" y="204.0000000000" xlink:href="#block"/><use x="276.0000000000" y="204.0000000000" xlink:href="#block"/><use x="312.0000000000" y="204.0000000000" xlink:href="#block"/><use x="324.0000000000" y="204.0000000000" xlink:href="#block"/><use x="348.0000000000" y="204.0000000000" xlink:href="#block"/><use x="12.0000000000" y="216.0000000000" xlink:href="#block"/><use x="48.0000000000" y="216.0000000000" xlink:href="#block"/><use x="60.0000000000" y="216.0000000000" xlink:href="#block"/><use x="72.0000000000" y="216.0000000000" xlink:href="#block"/><use x="96.0000000000" y="216.0000000000" xlink:href="#block"/><use x="108.0000000000" y="216.0000000000" xlink:href="#block"/><use x="120.0000000000" y="216.0000000000" xlink:href="#block"/><use x="168.0000000000" y="216.0000000000" xlink:href="#block"/><use x="180.0000000000" y="216.0000000000" xlink:href="#block"/><use x="216.0000000000" y="216.0000000000" xlink:href="#block"/><use x="228.0000000000" y="216.0000000000" xlink:href="#block"/><use x="240.0000000000" y="216.0000000000" xlink:href="#block"/><use x="252.0000000000" y="216.0000000000" xlink:href="#block"/><use x="288.0000000000" y="216.0000000000" xlink:href="#block"/><use x="312.0000000000" y="216.0000000000" xlink:href="#block"/><use x="324.0000000000" y="216.0000000000" xlink:href="#block"/><use x="360.0000000000" y="216.0000000000" xlink:href="#block"/><use x="372.0000000000" y="216.0000000000" xlink:href="#block"/><use x="384.0000000000" y="216.0000000000" xlink:href="#block"/><use x="396.0000000000" y="216.0000000000" xlink:href="#block"/><use x="24.0000000000" y="228.0000000000" xlink:href="#block"/><use x="36.0000000000" y="228.0000000000" xlink:href="#block"/><use x="48.0000000000" y="228.0000000000" xlink:href="#block"/><use x="60.0000000000" y="228.0000000000" xlink:href="#block"/><use x="84.0000000000" y="228.0000000000" xlink:href="#block"/><use x="120.0000000000" y="228.0000000000" xlink:href="#block"/><use x="132.0000000000" y="228.0000000000" xlink:href="#block"/><use x="168.0000000000" y="228.0000000000" xlink:href="#block"/><use x="192.0000000000" y="228.0000000000" xlink:href="#block"/><use x="252.0000000000" y="228.0000000000" xlink:href="#block"/><use x="300.0000000000" y="228.0000000000" xlink:href="#block"/><use x="324.0000000000" y="228.0000000000" xlink:href="#block"/><use x="384.0000000000" y="228.0000000000" xlink:href="#block"/><use x="396.0000000000" y="228.0000000000" xlink:href="#block"/><use x="12.0000000000" y="240.0000000000" xlink:href="#block"/><use x="24.0000000000" y="240.0000000000" xlink:href="#block"/><use x="60.0000000000" y="240.0000000000" xlink:href="#block"/><use x="72.0000000000" y="240.0000000000" xlink:href="#block"/><use x="108.0000000000" y="240.0000000000" xlink:href="#block"/><use x="120.0000000000" y="240.0000000000" xlink:href="#block"/><use x="156.0000000000" y="240.0000000000" xlink:href="#block"/><use x="192.0000000000" y="240.0000000000" xlink:href="#block"/><use x="204.0000000000" y="240.0000000000" xlink:href="#block"/><use x="216.0000000000" y="240.0000000000" xlink:href="#block"/><use x="228.0000000000" y="240.0000000000" xlink:href="#block"/><use x="240.0000000000" y="240.0000000000" xlink:href="#block"/><use x="252.0000000000" y="240.0000000000" xlink:href="#block"/><use x="276.0000000000" y="240.0000000000" xlink:href="#block"/><use x="288.0000000000" y="240.0000000000" xlink:href="#block"/><use x="324.0000000000" y="240.0000000000" xlink:href="#block"/><use x="336.0000000000" y="240.0000000000" xlink:href="#block"/><use x="360.0000000000" y="240.0000000000" xlink:href="#block"/><use x="372.0000000000" y="240.0000000000" xlink:href="#block"/><use x="396.0000000000" y="240.0000000000" xlink:href="#block"/><use x="24.0000000000" y="252.0000000000" xlink:href="#block"/><use x="72.0000000000" y="252.0000000000" xlink:href="#block"/><use x="84.0000000000" y="252.0000000000" xlink:href="#block"/><use x="96.0000000000" y="252.0000000000" xlink:href="#block"/><use x="120.0000000000" y="252.0000000000" xlink:href="#block"/><use x="156.0000000000" y="252.0000000000" xlink:href="#block"/><use x="192.0000000000" y="252.0000000000" xlink:href="#block"/><use x="204.0000000000" y="252.0000000000" xlink:href="#block"/><use x="264.0000000000" y="252.0000000000" xlink:href="#block"/><use x="276.0000000000" y="252.0000000000" xlink:href="#block"/><use x="336.0000000000" y="252.0000000000" xlink:href="#block"/><use x="348.0000000000" y="252.0000000000" xlink:href="#block"/><use x="372.0000000000" y="252.0000000000" xlink:href="#block"/><use x="384.0000000000" y="252.0000000000" xlink:href="#block"/><use x="12.0000000000" y="264.0000000000" xlink:href="#block"/><use x="24.0000000000" y="264.0000000000" xlink:href="#block"/><use x="60.0000000000" y="264.0000000000" xlink:href="#block"/><use x="72.0000000000" y="264.0000000000" xlink:href="#block"/><use x="120.0000000000" y="264.0000000000" xlink:href="#block"/><use x="132.0000000000" y="264.0000000000" xlink:href="#block"/><use x="144.0000000000" y="264.0000000000" xlink:href="#block"/><use x="156.0000000000" y="264.0000000000" xlink:href="#block"/><use x="204.0000000000" y="264.0000000000" xlink:href="#block"/><use x="228.0000000000" y="264.0000000000" xlink:href="#block"/><use x="252.0000000000" y="264.0000000000" xlink:href="#block"/><use x="312.0000000000" y="264.0000000000" xlink:href="#block"/><use x="336.0000000000" y="264.0000000000" xlink:href="#block"/><use x="372.0000000000" y="264.0000000000" xlink:href="#block"/><use x="396.0000000000" y="264.0000000000" xlink:href="#block"/><use x="12.0000000000" y="276.0000000000" xlink:href="#block"/><use x="36.0000000000" y="276.0000000000" xlink:href="#block"/><use x="48.0000000000" y="276.0000000000" xlink:href="#block"/><use x="60.0000000000" y="276.0000000000" xlink:href="#block"/><use x="84.0000000000" y="276.0000000000" xlink:href="#block"/><use x="96.0000000000" y="276.0000000000" xlink:href="#block"/><use x="108.0000000000" y="276.0000000000" xlink:href="#block"/><use x="120.0000000000" y="276.0000000000" xlink:href="#block"/><use x="132.0000000000" y="276.0000000000" xlink:href="#block"/><use x="144.0000000000" y="276.0000000000" xlink:href="#block"/><use x="156.0000000000" y="276.0000000000" xlink:href="#block"/><use x="168.0000000000" y="276.0000000000" xlink:href="#block"/><use x="192.0000000000" y="276.0000000000" xlink:href="#block"/><use x="204.0000000000" y="276.0000000000" xlink:href="#block"/><use x="216.0000000000" y="276.0000000000" xlink:href="#block"/><use x="276.0000000000" y="276.0000000000" xlink:href="#block"/><use x="288.0000000000" y="276.0000000000" xlink:href="#block"/><use x="300.0000000000" y="276.0000000000" xlink:href="#block"/><use x="336.0000000000" y="276.0000000000" xlink:href="#block"/><use x="348.0000000000" y="276.0000000000" xlink:href="#block"/><use x="384.0000000000" y="276.0000000000" xlink:href="#block"/><use x="12.0000000000" y="288.0000000000" xlink:href="#block"/><use x="36.0000000000" y="288.0000000000" xlink:href="#block"/><use x="48.0000000000" y="288.0000000000" xlink:href="#block"/><use x="96.0000000000" y="288.0000000000" xlink:href="#block"/><use x="120.0000000000" y="288.0000000000" xlink:href="#block"/><use x="180.0000000000" y="288.0000000000" xlink:href="#block"/><use x="288.0000000000" y="288.0000000000" xlink:href="#block"/><use x="324.0000000000" y="288.0000000000" xlink:href="#block"/><use x="336.0000000000" y="288.0000000000" xlink:href="#block"/><use x="360.0000000000" y="288.0000000000" xlink:href="#block"/><use x="396.0000000000" y="288.0000000000" xlink:href="#block"/><use x="12.0000000000" y="300.0000000000" xlink:href="#block"/><use x="24.0000000000" y="300.0000000000" xlink:href="#block"/><use x="36.0000000000" y="300.0000000000" xlink:href="#block"/><use x="72.0000000000" y="300.0000000000" xlink:href="#block"/><use x="84.0000000000" y="300.0000000000" xlink:href="#block"/><use x="120.0000000000" y="300.0000000000" xlink:href="#block"/><use x="132.0000000000" y="300.0000000000" xlink:href="#block"/><use x="144.0000000000" y="300.0000000000" xlink:href="#block"/><use x="156.0000000000" y="300.0000000000" xlink:href="#block"/><use x="168.0000000000" y="300.0000000000" xlink:href="#block"/><use x="192.0000000000" y="300.0000000000" xlink:href="#block"/><use x="216.0000000000" y="300.0000000000" xlink:href="#block"/><use x="228.0000000000" y="300.0000000000" xlink:href="#block"/><use x="240.0000000000" y="300.0000000000" xlink:href="#block"/><use x="252.0000000000" y="300.0000000000" xlink:href="#block"/><use x="264.0000000000" y="300.0000000000" xlink:href="#block"/><use x="288.0000000000" y="300.0000000000" xlink:href="#block"/><use x="300.0000000000" y="300.0000000000" xlink:href="#block"/><use x="312.0000000000" y="300.0000000000" xlink:href="#block"/><use x="324.0000000000" y="300.0000000000" xlink:href="#block"/><use x="336.0000000000" y="300.0000000000" xlink:href="#block"/><use x="348.0000000000" y="300.0000000000" xlink:href="#block"/><use x="372.0000000000" y="300.0000000000" xlink:href="#block"/><use x="384.0000000000" y="300.0000000000" xlink:href="#block"/><use x="108.0000000000" y="312.0000000000" xlink:href="#block"/><use x="132.0000000000" y="312.0000000000" xlink:href="#block"/><use x="192.0000000000" y="312.0000000000" xlink:href="#block"/><use x="204.0000000000" y="312.0000000000" xlink:href="#block"/><use x="228.0000000000" y="312.0000000000" xlink:href="#block"/><use x="240.0000000000" y="312.0000000000" xlink:href="#block"/><use x="276.0000000000" y="312.0000000000" xlink:href="#block"/><use x="300.0000000000" y="312.0000000000" xlink:href="#block"/><use x="348.0000000000" y="312.0000000000" xlink:href="#block"/><use x="360.0000000000" y="312.0000000000" xlink:href="#block"/><use x="372.0000000000" y="312.0000000000" xlink:href="#block"/><use x="396.0000000000" y="312.0000000000" xlink:href="#block"/><use x="12.0000000000" y="324.0000000000" xlink:href="#block"/><use x="24.0000000000" y="324.0000000000" xlink:href="#block"/><use x="36.0000000000" y="324.0000000000" xlink:href="#block"/><use x="48.0000000000" y="324.0000000000" xlink:href="#block"/><use x="60.0000000000" y="324.0000000000" xlink:href="#block"/><use x="72.0000000000" y="324.0000000000" xlink:href="#block"/><use x="84.0000000000" y="324.0000000000" xlink:href="#block"/><use x="120.0000000000" y="324.0000000000" xlink:href="#block"/><use x="132.0000000000" y="324.0000000000" xlink:href="#block"/><use x="156.0000000000" y="324.0000000000" xlink:href="#block"/><use x="168.0000000000" y="324.0000000000" xlink:href="#block"/><use x="180.0000000000" y="324.0000000000" xlink:href="#block"/><use x="228.0000000000" y="324.0000000000" xlink:href="#block"/><use x="252.0000000000" y="324.0000000000" xlink:href="#block"/><use x="276.0000000000" y="324.0000000000" xlink:href="#block"/><use x="300.0000000000" y="324.0000000000" xlink:href="#block"/><use x="324.0000000000" y="324.0000000000" xlink:href="#block"/><use x="348.0000000000" y="324.0000000000" xlink:href="#block"/><use x="360.0000000000" y="324.0000000000" xlink:href="#block"/><use x="384.0000000000" y="324.0000000000" xlink:href="#block"/><use x="396.0000000000" y="324.0000000000" xlink:href="#block"/><use x="12.0000000000" y="336.0000000000" xlink:href="#block"/><use x="84.0000000000" y="336.0000000000" xlink:href="#block"/><use x="120.0000000000" y="336.0000000000" xlink:href="#block"/><use x="132.0000000000" y="336.0000000000" xlink:href="#block"/><use x="144.0000000000" y="336.0000000000" xlink:href="#block"/><use x="168.0000000000" y="336.0000000000" xlink:href="#block"/><use x="192.0000000000" y="336.0000000000" xlink:href="#block"/><use x="204.0000000000" y="336.0000000000" xlink:href="#block"/><use x="240.0000000000" y="336.0000000000" xlink:href="#block"/><use x="288.0000000000" y="336.0000000000" xlink:href="#block"/><use x="300.0000000000" y="336.0000000000" xlink:href="#block"/><use x="348.0000000000" y="336.0000000000" xlink:href="#block"/><use x="360.0000000000" y="336.0000000000" xlink:href="#block"/><use x="372.0000000000" y="336.0000000000" xlink:href="#block"/><use x="12.0000000000" y="348.0000000000" xlink:href="#block"/><use x="36.0000000000" y="348.0000000000" xlink:href="#block"/><use x="48.0000000000" y="348.0000000000" xlink:href="#block"/><use x="60.0000000000" y="348.0000000000" xlink:href="#block"/><use x="84.0000000000" y="348.0000000000" xlink:href="#block"/><use x="120.0000000000" y="348.0000000000" xlink:href="#block"/><use x="144.0000000000" y="348.0000000000" xlink:href="#block"/><use x="180.0000000000" y="348.0000000000" xlink:href="#block"/><use x="192.0000000000" y="348.0000000000" xlink:href="#block"/><use x="228.0000000000" y="348.0000000000" xlink:href="#block"/><use x="252.0000000000" y="348.0000000000" xlink:href="#block"/><use x="264.0000000000" y="348.0000000000" xlink:href="#block"/><use x="300.0000000000" y="348.0000000000" xlink:href="#block"/><use x="312.0000000000" y="348.0000000000" xlink:href="#block"/><use x="324.0000000000" y="348.0000000000" xlink:href="#block"/><use x="336.0000000000" y="348.0000000000" xlink:href="#block"/><use x="348.0000000000" y="348.0000000000" xlink:href="#block"/><use x="372.0000000000" y="348.0000000000" xlink:href="#block"/><use x="384.0000000000" y="348.0000000000" xlink:href="#block"/><use x="12.0000000000" y="360.0000000000" xlink:href="#block"/><use x="36.0000000000" y="360.0000000000" xlink:href="#block"/><use x="48.0000000000" y="360.0000000000" xlink:href="#block"/><use x="60.0000000000" y="360.0000000000" xlink:href="#block"/><use x="84.0000000000" y="360.0000000000" xlink:href="#block"/><use x="132.0000000000" y="360.0000000000" xlink:href="#block"/><use x="144.0000000000" y="360.0000000000" xlink:href="#block"/><use x="156.0000000000" y="360.0000000000" xlink:href="#block"/><use x="204.0000000000" y="360.0000000000" xlink:href="#block"/><use x="240.0000000000" y="360.0000000000" xlink:href="#block"/><use x="252.0000000000" y="360.0000000000" xlink:href="#block"/><use x="312.0000000000" y="360.0000000000" xlink:href="#block"/><use x="324.0000000000" y="360.0000000000" xlink:href="#block"/><use x="360.0000000000" y="360.0000000000" xlink:href="#block"/><use x="372.0000000000" y="360.0000000000" xlink:href="#block"/><use x="384.0000000000" y="360.0000000000" xlink:href="#block"/><use x="12.0000000000" y="372.0000000000" xlink:href="#block"/><use x="36.0000000000" y="372.0000000000" xlink:href="#block"/><use x="48.0000000000" y="372.0000000000" xlink:href="#block"/><use x="60.0000000000" y="372.0000000000" xlink:href="#block"/><use x="84.0000000000" y="372.0000000000" xlink:href="#block"/><use x="120.0000000000" y="372.0000000000" xlink:href="#block"/><use x="132.0000000000" y="372.0000000000" xlink:href="#block"/><use x="204.0000000000" y="372.0000000000" xlink:href="#block"/><use x="252.0000000000" y="372.0000000000" xlink:href="#block"/><use x="300.0000000000" y="372.0000000000" xlink:href="#block"/><use x="336.0000000000" y="372.0000000000" xlink:href="#block"/><use x="348.0000000000" y="372.0000000000" xlink:href="#block"/><use x="360.0000000000" y="372.0000000000" xlink:href="#block"/><use x="384.0000000000" y="372.0000000000" xlink:href="#block"/><use x="396.0000000000" y="372.0000000000" xlink:href="#block"/><use x="12.0000000000" y="384.0000000000" xlink:href="#block"/><use x="84.0000000000" y="384.0000000000" xlink:href="#block"/><use x="132.0000000000" y="384.0000000000" xlink:href="#block"/><use x="144.0000000000" y="384.0000000000" xlink:href="#block"/><use x="168.0000000000" y="384.0000000000" xlink:href="#block"/><use x="192.0000000000" y="384.0000000000" xlink:href="#block"/><use x="204.0000000000" y="384.0000000000" xlink:href="#block"/><use x="216.0000000000" y="384.0000000000" xlink:href="#block"/><use x="228.0000000000" y="384.0000000000" xlink:href="#block"/><use x="240.0000000000" y="384.0000000000" xlink:href="#block"/><use x="276.0000000000" y="384.0000000000" xlink:href="#block"/><use x="288.0000000000" y="384.0000000000" xlink:href="#block"/><use x="300.0000000000" y="384.0000000000" xlink:href="#block"/><use x="312.0000000000" y="384.0000000000" xlink:href="#block"/><use x="336.0000000000" y="384.0000000000" xlink:href="#block"/><use x="348.0000000000" y="384.0000000000" xlink:href="#block"/><use x="372.0000000000" y="384.0000000000" xlink:href="#block"/><use x="384.0000000000" y="384.0000000000" xlink:href="#block"/><use x="396.0000000000" y="384.0000000000" xlink:href="#block"/><use x="12.0000000000" y="396.0000000000" xlink:href="#block"/><use x="24.0000000000" y="396.0000000000" xlink:href="#block"/><use x="36.0000000000" y="396.0000000000" xlink:href="#block"/><use x="48.0000000000" y="396.0000000000" xlink:href="#block"/><use x="60.0000000000" y="396.0000000000" xlink:href="#block"/><use x="72.0000000000" y="396.0000000000" xlink:href="#block"/><use x="84.0000000000" y="396.0000000000" xlink:href="#block"/><use x="108.0000000000" y="396.0000000000" xlink:href="#block"/><use x="156.0000000000" y="396.0000000000" xlink:href="#block"/><use x="252.0000000000" y="396.0000000000" xlink:href="#block"/><use x="264.0000000000" y="396.0000000000" xlink:href="#block"/><use x="276.0000000000" y="396.0000000000" xlink:href="#block"/><use x="300.0000000000" y="396.0000000000" xlink:href="#block"/><use x="324.0000000000" y="396.0000000000" xlink:href="#block"/><use x="360.0000000000" y="396.0000000000" xlink:href="#block"/><use x="372.0000000000" y="396.0000000000" xlink:href="#block"/><use x="384.0000000000" y="396.0000000000" xlink:href="#block"/></svg>
