<?xml version="1.0" encoding="utf-8"?>
<!-- Generator: Adobe Illustrator 23.0.2, SVG Export Plug-In . SVG Version: 6.00 Build 0)  -->
<svg version="1.1" xmlns="http://www.w3.org/2000/svg" xmlns:xlink="http://www.w3.org/1999/xlink" x="0px" y="0px"
	 viewBox="0 0 812.79 525.61" style="enable-background:new 0 0 812.79 525.61;" xml:space="preserve">
<style type="text/css">
	.st0{fill:#11263A;}
	.st1{display:none;fill:#11263A;}
	.st2{display:none;}
	.st3{display:inline;fill:#FFFFFF;}
</style>
<g id="Warstwa_2">
</g>
<g id="Warstwa_1">
	<path class="st0" d="M462.58,135.84c-1.96-8.54-4.24-15.85-8.99-21.95c-4.75-6.11-12.13-10.84-20.06-14.24
		c-7.08-3.01-14.74-4.61-27.17-4.94c-12.45,0.33-19.91,1.94-27,4.94c-7.92,3.4-14.67,8.13-19.42,14.24
		c-4.75,6.1-7.46,13.4-9.4,21.95c-1.94,8.52-2.29,17.9-2.29,28.16v85.2h24.89v-79.39c0-9.29,0.88-17.23,2.13-23.82
		c1.26-6.58,3.43-11.92,6.36-15.97c2.91-4.06,7.67-7.03,12.5-8.86c3.23-1.23,8.07-2.01,12.23-2.4c8.29,0.4,9.1,1.18,12.36,2.4
		c4.82,1.83,9.24,4.8,12.13,8.86c2.91,4.06,5.28,9.39,6.53,15.97c1.26,6.59,2.16,14.53,2.16,23.82v79.39h24.9V164
		C464.43,153.75,464.5,144.36,462.58,135.84"/>
	<path class="st0" d="M406.33,17.26c-85.43,0-154.69,69.26-154.69,154.7c0,85.43,69.26,154.68,154.69,154.68
		c85.45,0,154.71-69.25,154.71-154.68C561.04,86.52,491.78,17.26,406.33,17.26 M406.33,42.15c71.59,0,129.82,58.24,129.82,129.82
		c0,71.57-58.23,129.8-129.82,129.8c-71.57,0-129.81-58.23-129.81-129.8C276.52,100.38,334.76,42.15,406.33,42.15"/>
	<g>
		<path class="st1" d="M492.43,472.18c5.53,0,9.62-0.73,12.27-2.18c2.66-1.45,4-3.78,4-6.97c0-3.28-1.29-5.92-3.91-7.84
			c-2.61-1.95-6.92-4.12-12.93-6.55c-2.91-1.17-5.69-2.33-8.36-3.55c-2.66-1.22-4.95-2.63-6.88-4.27c-1.94-1.65-3.5-3.64-4.66-5.96
			c-1.14-2.31-1.74-5.17-1.74-8.58c0-6.67,2.46-11.98,7.42-15.9c4.93-3.91,11.66-5.88,20.19-5.88c2.11,0,4.24,0.13,6.38,0.37
			c2.13,0.24,4.11,0.53,5.96,0.86c1.83,0.35,3.46,0.7,4.87,1.1c1.41,0.37,2.5,0.73,3.27,1.01l-2.48,11.61
			c-1.45-0.77-3.72-1.58-6.82-2.39c-3.11-0.82-6.82-1.24-11.18-1.24c-3.78,0-7.08,0.75-9.88,2.24c-2.82,1.52-4.23,3.87-4.23,7.06
			c0,1.63,0.31,3.09,0.95,4.35c0.64,1.26,1.6,2.4,2.91,3.41c1.32,1.01,2.92,1.96,4.86,2.82c1.94,0.87,4.27,1.8,6.98,2.77
			c3.58,1.36,6.79,2.68,9.59,3.98c2.82,1.31,5.21,2.85,7.18,4.58c1.98,1.75,3.52,3.84,4.58,6.32c1.08,2.46,1.59,5.5,1.59,9.08
			c0,6.98-2.57,12.24-7.76,15.82c-5.17,3.59-12.56,5.37-22.15,5.37c-6.68,0-11.9-0.55-15.68-1.64c-3.78-1.13-6.34-1.96-7.7-2.55
			l2.48-11.61c1.54,0.57,4,1.45,7.39,2.6C482.31,471.58,486.83,472.18,492.43,472.18"/>
		<path class="st1" d="M592.2,444.13c0-8.51-1.91-15.25-5.73-20.23c-3.83-5-9.02-7.49-15.6-7.49c-6.6,0-11.81,2.5-15.62,7.49
			c-3.83,4.98-5.74,11.72-5.74,20.23c0,8.54,1.91,15.29,5.74,20.27c3.81,4.98,9.02,7.49,15.62,7.49c6.58,0,11.77-2.51,15.6-7.49
			C590.29,459.42,592.2,452.67,592.2,444.13 M606.31,444.13c0,6.01-0.88,11.44-2.62,16.28c-1.76,4.84-4.2,9.02-7.35,12.5
			c-3.14,3.47-6.88,6.16-11.26,8.05c-4.33,1.89-9.08,2.84-14.21,2.84c-5.12,0-9.87-0.95-14.25-2.84c-4.33-1.89-8.09-4.58-11.23-8.05
			c-3.15-3.48-5.62-7.66-7.33-12.5c-1.76-4.84-2.62-10.27-2.62-16.28c0-5.9,0.86-11.28,2.62-16.16c1.71-4.91,4.18-9.08,7.33-12.58
			c3.14-3.47,6.91-6.16,11.23-8.05c4.38-1.89,9.13-2.84,14.25-2.84c5.13,0,9.88,0.95,14.21,2.84c4.38,1.89,8.12,4.58,11.26,8.05
			c3.15,3.5,5.59,7.68,7.35,12.58C605.43,432.85,606.31,438.23,606.31,444.13"/>
		<path class="st1" d="M654.8,369.22c3.96,0,7.37,0.28,10.23,0.86c2.86,0.59,4.86,1.12,6.03,1.61l-2.46,11.61
			c-1.17-0.57-2.82-1.12-4.96-1.67c-2.11-0.53-4.73-0.79-7.83-0.79c-6.31,0-10.71,1.72-13.22,5.15c-2.53,3.45-3.77,8.07-3.77,13.88
			v6.53h29.03v11.33h-29.03v64.19h-13.52v-82.36c0-9.65,2.37-17.13,7.13-22.41C637.16,371.85,644.62,369.22,654.8,369.22"/>
		<path class="st1" d="M694,406.39h28.6v11.33H694v34.86c0,3.77,0.31,6.89,0.88,9.37c0.57,2.45,1.45,4.4,2.62,5.79
			c1.14,1.41,2.59,2.39,4.33,2.99c1.76,0.57,3.78,0.86,6.12,0.86c4.05,0,7.33-0.44,9.79-1.36c2.48-0.92,4.19-1.59,5.16-1.96
			l2.62,11.18c-1.39,0.68-3.74,1.51-7.13,2.55c-3.39,1.01-7.26,1.51-11.61,1.51c-5.13,0-9.37-0.66-12.71-1.95
			c-3.35-1.32-6.03-3.28-8.05-5.9c-2.05-2.59-3.47-5.83-4.29-9.66c-0.81-3.8-1.23-8.24-1.23-13.28v-67.37l13.5-2.33V406.39z"/>
		<g>
			<path class="st0" d="M180.6,424.48c-0.97-4.25-2.14-7.91-4.49-10.96c-2.37-3.05-6.07-5.42-10.05-7.13
				c-3.52-1.5-7.34-2.28-13.57-2.46c-6.23,0.18-9.96,0.96-13.48,2.46c-3.98,1.7-7.35,4.08-9.73,7.13c-2.37,3.06-3.74,6.71-4.7,10.96
				c-0.97,4.26-1.14,8.95-1.14,14.09v42.58h12.45v-39.68c0-4.66,0.44-8.62,1.06-11.92c0.64-3.28,1.73-5.94,3.19-7.98
				c1.45-2.03,3.82-3.5,6.24-4.42c1.63-0.64,4.03-1.01,6.12-1.21c4.14,0.19,4.55,0.57,6.18,1.21c2.4,0.92,4.62,2.4,6.07,4.42
				c1.45,2.05,2.62,4.7,3.26,7.98c0.62,3.3,1.08,7.26,1.08,11.92v39.68h12.45v-42.58C181.52,433.43,181.57,428.74,180.6,424.48"/>
			<path class="st0" d="M252.61,436.88c0.09-6.09-1.43-11.09-4.6-15.02c-3.14-3.92-7.46-5.87-12.98-5.87c-3.1,0-5.85,0.59-8.2,1.8
				c-2.37,1.21-4.4,2.79-6.03,4.73c-1.65,1.94-2.95,4.16-3.85,6.68c-0.92,2.51-1.52,5.08-1.82,7.68H252.61z M200.77,444.29
				c0-6.68,0.97-12.51,2.91-17.51c1.91-4.97,4.51-9.1,7.68-12.41c3.21-3.27,6.88-5.76,11.06-7.41c4.16-1.64,8.4-2.46,12.76-2.46
				c10.16,0,17.97,3.17,23.38,9.52c5.43,6.34,8.14,15.99,8.14,28.95v2.26c0,0.92-0.04,1.78-0.15,2.54h-51.69
				c0.59,7.84,2.86,13.81,6.82,17.87c3.96,4.08,10.16,6.1,18.61,6.1c4.73,0,8.73-0.42,11.96-1.23c3.25-0.82,5.69-1.63,7.35-2.4
				l1.87,11.33c-1.63,0.88-4.51,1.77-8.62,2.74c-4.11,0.97-8.8,1.45-14.04,1.45c-6.58,0-12.27-0.98-17.07-2.96
				c-4.77-1.98-8.73-4.71-11.81-8.21c-3.1-3.48-5.41-7.61-6.91-12.41C201.51,455.26,200.77,450.01,200.77,444.29"/>
			<path class="st0" d="M478.12,444.13c0-8.51-1.91-15.25-5.73-20.23c-3.83-5-9.02-7.49-15.62-7.49c-6.58,0-11.76,2.5-15.59,7.49
				c-3.83,4.98-5.74,11.72-5.74,20.23c0,8.54,1.91,15.29,5.74,20.27c3.83,4.98,9.01,7.49,15.59,7.49c6.6,0,11.79-2.51,15.62-7.49
				C476.21,459.42,478.12,452.67,478.12,444.13 M492.22,444.13c0,6.01-0.88,11.44-2.62,16.28c-1.76,4.84-4.2,9.02-7.32,12.5
				c-3.17,3.47-6.93,6.16-11.29,8.05c-4.36,1.89-9.08,2.84-14.23,2.84c-5.13,0-9.88-0.95-14.21-2.84
				c-4.37-1.89-8.14-4.58-11.26-8.05c-3.14-3.48-5.61-7.66-7.35-12.5c-1.73-4.84-2.59-10.27-2.59-16.28c0-5.9,0.86-11.28,2.59-16.16
				c1.74-4.91,4.2-9.08,7.35-12.58c3.12-3.47,6.89-6.16,11.26-8.05c4.33-1.89,9.08-2.84,14.21-2.84c5.14,0,9.87,0.95,14.23,2.84
				s8.12,4.58,11.29,8.05c3.12,3.5,5.56,7.68,7.32,12.58C491.35,432.85,492.22,438.23,492.22,444.13"/>
			<path class="st0" d="M289.12,463.66c0.95,4.25,2.11,7.92,4.49,10.98c2.38,3.03,6.05,5.41,10.03,7.1
				c3.55,1.52,7.37,2.31,13.59,2.46c6.23-0.15,9.94-0.94,13.49-2.46c3.96-1.69,7.32-4.07,9.73-7.1c2.35-3.06,3.71-6.73,4.68-10.98
				c0.97-4.27,1.14-8.95,1.14-14.08v-42.58h-12.45v39.67c0,4.65-0.41,8.61-1.05,11.91c-0.62,3.3-1.73,5.96-3.17,7.98
				c-1.47,2.05-3.84,3.52-6.26,4.43c-1.63,0.63-4.03,1-6.1,1.21c-4.15-0.2-4.55-0.58-6.18-1.21c-2.42-0.91-4.62-2.38-6.07-4.43
				c-1.45-2.03-2.64-4.68-3.28-7.98c-0.62-3.3-1.07-7.26-1.07-11.91v-39.67h-12.46v42.58C288.17,454.72,288.15,459.4,289.12,463.66"
				/>
			<path class="st0" d="M398.96,404.79c3.99,0,7.42,0.29,10.25,0.88c2.86,0.57,4.88,1.12,6.03,1.61l-2.46,11.61
				c-1.16-0.59-2.82-1.14-4.92-1.67c-2.13-0.53-4.75-0.81-7.85-0.81c-6.29,0-10.72,1.73-13.23,5.16c-2.51,3.43-3.78,8.05-3.78,13.86
				v46.48h-13.5v-46.77c0-9.68,2.37-17.15,7.13-22.43C381.37,407.43,388.83,404.79,398.96,404.79"/>
			<path class="st0" d="M543.43,483.65c-6.07,0-11.4-0.96-15.98-2.89c-4.58-1.93-8.44-4.63-11.57-8.1
				c-3.14-3.47-5.47-7.59-7.02-12.36c-1.54-4.77-2.31-10.05-2.31-15.83c0-5.78,0.84-11.09,2.53-15.91
				c1.68-4.82,4.07-8.99,7.16-12.51c3.08-3.52,6.87-6.27,11.35-8.24c4.48-1.98,9.47-2.96,14.97-2.96c3.37,0,6.75,0.29,10.12,0.87
				c3.37,0.58,6.6,1.5,9.69,2.75l-3.04,11.42c-2.02-0.96-4.36-1.74-7.01-2.31c-2.65-0.58-5.47-0.87-8.46-0.87
				c-7.52,0-13.28,2.37-17.28,7.09c-4,4.72-6,11.62-6,20.68c0,4.05,0.46,7.76,1.37,11.13c0.92,3.37,2.36,6.26,4.34,8.67
				s4.5,4.26,7.59,5.56c3.08,1.3,6.84,1.95,11.28,1.95c3.56,0,6.8-0.33,9.69-1.01c2.89-0.67,5.16-1.39,6.8-2.17l1.88,11.28
				c-0.77,0.48-1.88,0.94-3.33,1.37c-1.44,0.44-3.08,0.82-4.91,1.16c-1.83,0.34-3.79,0.62-5.86,0.87S545.35,483.65,543.43,483.65z"
				/>
			<path class="st0" d="M606.93,404.84c5.4,0,9.95,0.7,13.66,2.1c3.71,1.4,6.7,3.37,8.97,5.93c2.27,2.56,3.88,5.6,4.84,9.11
				c0.96,3.52,1.45,7.4,1.45,11.64v46.99c-1.16,0.19-2.77,0.46-4.84,0.8c-2.08,0.34-4.41,0.65-7.01,0.94
				c-2.6,0.29-5.42,0.55-8.46,0.79c-3.04,0.24-6.05,0.37-9.04,0.37c-4.24,0-8.15-0.44-11.71-1.3c-3.57-0.87-6.65-2.24-9.26-4.12
				s-4.63-4.36-6.08-7.45c-1.44-3.08-2.17-6.8-2.17-11.13c0-4.14,0.84-7.71,2.53-10.7c1.68-2.99,3.98-5.4,6.87-7.23
				c2.89-1.83,6.26-3.18,10.12-4.05c3.85-0.87,7.91-1.3,12.15-1.3c1.35,0,2.75,0.07,4.19,0.22c1.45,0.15,2.82,0.34,4.12,0.58
				s2.43,0.46,3.4,0.65c0.96,0.19,1.64,0.34,2.02,0.43v-3.76c0-2.22-0.24-4.41-0.73-6.58s-1.35-4.1-2.6-5.78
				c-1.25-1.68-2.96-3.04-5.13-4.05c-2.17-1.01-4.99-1.52-8.46-1.52c-4.43,0-8.31,0.31-11.64,0.94c-3.33,0.63-5.81,1.28-7.45,1.95
				l-1.59-11.13c1.74-0.77,4.63-1.52,8.68-2.24C597.82,405.2,602.21,404.84,606.93,404.84z M608.09,472.23c3.18,0,6-0.07,8.46-0.22
				c2.46-0.14,4.5-0.41,6.15-0.79V448.8c-0.97-0.48-2.53-0.89-4.7-1.23c-2.17-0.33-4.79-0.51-7.88-0.51c-2.02,0-4.17,0.15-6.44,0.44
				c-2.27,0.29-4.34,0.89-6.22,1.81c-1.88,0.92-3.45,2.17-4.7,3.76c-1.25,1.59-1.88,3.69-1.88,6.29c0,4.82,1.54,8.17,4.63,10.05
				C598.59,471.29,602.78,472.23,608.09,472.23z"/>
			<path class="st0" d="M687.6,404.79c3.99,0,7.42,0.29,10.25,0.88c2.86,0.57,4.88,1.12,6.03,1.61l-2.46,11.61
				c-1.16-0.59-2.82-1.14-4.92-1.67c-2.13-0.53-4.75-0.81-7.85-0.81c-6.29,0-10.72,1.73-13.23,5.16c-2.51,3.43-3.78,8.05-3.78,13.86
				v46.48h-13.5v-46.77c0-9.68,2.37-17.15,7.13-22.43C670,407.43,677.46,404.79,687.6,404.79"/>
		</g>
	</g>
</g>
<g id="Warstwa_3" class="st2">
	<path class="st3" d="M91.83,424.27c-0.97-4.25-2.13-7.9-4.49-10.96c-2.37-3.05-6.07-5.42-10.05-7.13
		c-3.52-1.5-7.35-2.29-13.57-2.46c-6.22,0.18-9.96,0.96-13.48,2.46c-3.98,1.71-7.35,4.08-9.72,7.13c-2.38,3.06-3.74,6.71-4.71,10.96
		c-0.97,4.26-1.14,8.96-1.14,14.09v42.59H47.1v-39.69c0-4.66,0.44-8.62,1.06-11.93c0.64-3.28,1.74-5.94,3.19-7.98
		c1.45-2.02,3.83-3.5,6.25-4.42c1.63-0.63,4.02-1.01,6.11-1.21c4.14,0.2,4.56,0.58,6.18,1.21c2.4,0.92,4.62,2.4,6.07,4.42
		c1.45,2.04,2.62,4.71,3.25,7.98c0.62,3.31,1.08,7.26,1.08,11.93v39.69h12.45v-42.59C92.75,433.23,92.8,428.53,91.83,424.27"/>
	<path class="st3" d="M163.84,436.66c0.09-6.09-1.43-11.1-4.6-15.02c-3.14-3.91-7.45-5.87-12.98-5.87c-3.1,0-5.85,0.59-8.21,1.8
		c-2.37,1.21-4.4,2.79-6.03,4.73c-1.65,1.93-2.95,4.16-3.85,6.69c-0.92,2.51-1.52,5.08-1.82,7.67H163.84z M112,444.08
		c0-6.68,0.97-12.51,2.9-17.51c1.92-4.97,4.51-9.1,7.68-12.4c3.21-3.28,6.89-5.76,11.07-7.41c4.16-1.64,8.4-2.46,12.76-2.46
		c10.16,0,17.97,3.17,23.39,9.52c5.43,6.33,8.14,15.99,8.14,28.95v2.26c0,0.93-0.04,1.79-0.15,2.55h-51.7
		c0.59,7.84,2.86,13.8,6.82,17.87c3.96,4.07,10.17,6.09,18.61,6.09c4.73,0,8.73-0.42,11.97-1.23c3.26-0.82,5.7-1.63,7.35-2.41
		l1.87,11.34c-1.63,0.87-4.51,1.78-8.62,2.74c-4.11,0.97-8.8,1.45-14.03,1.45c-6.58,0-12.28-0.99-17.07-2.96
		c-4.77-1.98-8.73-4.71-11.81-8.21c-3.1-3.47-5.41-7.61-6.91-12.41C112.74,455.05,112,449.8,112,444.08"/>
	<path class="st3" d="M389.39,443.92c0-8.51-1.91-15.25-5.74-20.24c-3.83-4.99-9.02-7.49-15.62-7.49c-6.58,0-11.77,2.5-15.59,7.49
		c-3.83,4.98-5.75,11.73-5.75,20.24c0,8.54,1.92,15.29,5.75,20.27c3.83,4.98,9.01,7.49,15.59,7.49c6.6,0,11.79-2.51,15.62-7.49
		C387.48,459.22,389.39,452.46,389.39,443.92 M403.49,443.92c0,6.01-0.88,11.44-2.62,16.28c-1.76,4.84-4.2,9.02-7.32,12.49
		c-3.17,3.48-6.93,6.16-11.29,8.06c-4.35,1.89-9.08,2.84-14.23,2.84c-5.13,0-9.88-0.95-14.21-2.84c-4.38-1.9-8.14-4.58-11.26-8.06
		c-3.14-3.47-5.61-7.65-7.35-12.49c-1.73-4.84-2.59-10.27-2.59-16.28c0-5.89,0.86-11.28,2.59-16.16c1.74-4.91,4.2-9.08,7.35-12.58
		c3.12-3.48,6.89-6.16,11.26-8.05c4.33-1.9,9.08-2.84,14.21-2.84c5.15,0,9.87,0.95,14.23,2.84c4.36,1.89,8.13,4.57,11.29,8.05
		c3.12,3.5,5.56,7.67,7.32,12.58C402.61,432.64,403.49,438.03,403.49,443.92"/>
	<path class="st3" d="M200.36,463.46c0.95,4.25,2.11,7.92,4.49,10.98c2.38,3.03,6.06,5.41,10.03,7.1c3.54,1.52,7.37,2.31,13.59,2.46
		c6.23-0.15,9.94-0.94,13.49-2.46c3.96-1.69,7.32-4.07,9.72-7.1c2.35-3.06,3.72-6.73,4.68-10.98c0.97-4.27,1.14-8.95,1.14-14.08
		v-42.58h-12.45v39.68c0,4.65-0.41,8.61-1.06,11.9c-0.62,3.3-1.73,5.96-3.17,7.98c-1.47,2.05-3.85,3.52-6.27,4.43
		c-1.63,0.63-4.03,1.01-6.1,1.21c-4.15-0.21-4.55-0.58-6.17-1.21c-2.42-0.91-4.62-2.38-6.07-4.43c-1.45-2.02-2.64-4.68-3.28-7.98
		c-0.62-3.3-1.07-7.26-1.07-11.9v-39.68h-12.45v42.58C199.42,454.51,199.39,459.19,200.36,463.46"/>
	<path class="st3" d="M440.08,471.99c5.52,0,9.61-0.73,12.28-2.18c2.66-1.45,3.99-3.78,3.99-6.97c0-3.29-1.31-5.91-3.92-7.85
		c-2.61-1.94-6.93-4.12-12.93-6.54c-2.91-1.16-5.69-2.35-8.35-3.56c-2.67-1.21-4.97-2.64-6.9-4.29c-1.94-1.65-3.49-3.63-4.65-5.96
		c-1.16-2.32-1.74-5.18-1.74-8.57c0-6.68,2.47-11.99,7.41-15.91c4.94-3.92,11.67-5.88,20.2-5.88c2.13,0,4.26,0.12,6.39,0.36
		c2.13,0.24,4.12,0.53,5.96,0.87c1.84,0.34,3.46,0.7,4.87,1.09c1.4,0.39,2.49,0.73,3.27,1.02l-2.47,11.62
		c-1.45-0.77-3.73-1.57-6.83-2.4c-3.1-0.82-6.83-1.23-11.19-1.23c-3.78,0-7.07,0.75-9.88,2.25c-2.81,1.5-4.21,3.85-4.21,7.05
		c0,1.65,0.31,3.1,0.94,4.36c0.63,1.26,1.6,2.4,2.91,3.41c1.31,1.02,2.93,1.96,4.87,2.83c1.94,0.87,4.26,1.79,6.97,2.76
		c3.58,1.36,6.78,2.69,9.59,4c2.81,1.31,5.21,2.83,7.19,4.58c1.98,1.74,3.51,3.85,4.58,6.32c1.06,2.47,1.6,5.5,1.6,9.08
		c0,6.97-2.59,12.25-7.77,15.84c-5.18,3.59-12.57,5.38-22.16,5.38c-6.68,0-11.91-0.56-15.69-1.67s-6.35-1.96-7.7-2.54l2.47-11.62
		c1.55,0.58,4.02,1.45,7.41,2.61C429.95,471.41,434.46,471.99,440.08,471.99z"/>
	<path class="st3" d="M553.84,444.1c0,5.72-0.75,10.99-2.25,15.84c-1.5,4.84-3.7,9.01-6.61,12.49c-2.91,3.49-6.47,6.2-10.68,8.14
		c-4.21,1.94-9.03,2.91-14.46,2.91c-4.36,0-8.21-0.58-11.55-1.74c-3.34-1.16-5.84-2.27-7.48-3.34v30.22h-13.51V408.5
		c3.2-0.77,7.19-1.62,11.99-2.54c4.79-0.92,10.34-1.38,16.64-1.38c5.81,0,11.04,0.92,15.69,2.76c4.65,1.84,8.62,4.46,11.91,7.85
		c3.29,3.39,5.83,7.53,7.63,12.42C552.94,432.5,553.84,438,553.84,444.1z M539.74,444.1c0-8.81-2.18-15.59-6.54-20.34
		c-4.36-4.74-10.17-7.12-17.43-7.12c-4.07,0-7.24,0.15-9.52,0.44c-2.28,0.29-4.09,0.63-5.45,1.02v47.65
		c1.65,1.36,4.02,2.67,7.12,3.92c3.1,1.26,6.49,1.89,10.17,1.89c3.87,0,7.19-0.7,9.95-2.11c2.76-1.4,5.01-3.34,6.76-5.81
		c1.74-2.47,3-5.38,3.78-8.72C539.35,451.58,539.74,447.97,539.74,444.1z"/>
	<path class="st3" d="M597.28,404.29c5.42,0,10,0.7,13.73,2.11c3.73,1.41,6.73,3.39,9.01,5.96c2.27,2.57,3.9,5.62,4.87,9.15
		c0.97,3.54,1.45,7.43,1.45,11.7v47.22c-1.16,0.2-2.79,0.46-4.87,0.8c-2.08,0.34-4.43,0.65-7.05,0.94s-5.45,0.56-8.5,0.8
		c-3.05,0.24-6.08,0.36-9.08,0.36c-4.26,0-8.19-0.44-11.77-1.31c-3.58-0.87-6.68-2.25-9.3-4.14c-2.62-1.89-4.65-4.38-6.1-7.48
		c-1.45-3.1-2.18-6.83-2.18-11.19c0-4.16,0.85-7.75,2.54-10.75c1.69-3,4-5.42,6.9-7.26c2.91-1.84,6.3-3.2,10.17-4.07
		c3.87-0.87,7.94-1.31,12.2-1.31c1.36,0,2.76,0.07,4.21,0.22c1.45,0.15,2.83,0.34,4.14,0.58c1.31,0.24,2.44,0.46,3.41,0.65
		c0.97,0.2,1.65,0.34,2.03,0.44v-3.78c0-2.23-0.24-4.43-0.73-6.61c-0.49-2.18-1.36-4.12-2.61-5.81c-1.26-1.69-2.98-3.05-5.16-4.07
		c-2.18-1.02-5.01-1.53-8.5-1.53c-4.46,0-8.35,0.32-11.7,0.94c-3.34,0.63-5.84,1.28-7.48,1.96l-1.6-11.19
		c1.74-0.77,4.65-1.53,8.72-2.25C588.12,404.65,592.53,404.29,597.28,404.29z M598.44,471.99c3.2,0,6.03-0.07,8.5-0.22
		c2.47-0.15,4.53-0.41,6.17-0.8v-22.52c-0.97-0.48-2.54-0.89-4.72-1.23c-2.18-0.34-4.82-0.51-7.92-0.51c-2.03,0-4.19,0.15-6.47,0.44
		c-2.28,0.29-4.36,0.9-6.25,1.82c-1.89,0.92-3.46,2.18-4.72,3.78c-1.26,1.6-1.89,3.7-1.89,6.32c0,4.84,1.55,8.21,4.65,10.1
		C588.9,471.05,593.11,471.99,598.44,471.99z"/>
	<path class="st3" d="M681.54,483.47c-6.1,0-11.46-0.97-16.05-2.91c-4.6-1.94-8.48-4.65-11.62-8.14c-3.15-3.49-5.5-7.63-7.05-12.42
		c-1.55-4.79-2.32-10.1-2.32-15.91c0-5.81,0.85-11.14,2.54-15.98c1.69-4.84,4.09-9.03,7.19-12.57c3.1-3.53,6.9-6.3,11.4-8.28
		c4.5-1.98,9.52-2.98,15.04-2.98c3.39,0,6.78,0.29,10.17,0.87c3.39,0.58,6.63,1.5,9.73,2.76l-3.05,11.48
		c-2.03-0.97-4.38-1.74-7.05-2.32c-2.67-0.58-5.5-0.87-8.5-0.87c-7.55,0-13.34,2.37-17.36,7.12c-4.02,4.75-6.03,11.67-6.03,20.78
		c0,4.07,0.46,7.8,1.38,11.19c0.92,3.39,2.37,6.3,4.36,8.72c1.98,2.42,4.53,4.29,7.63,5.59c3.1,1.31,6.88,1.96,11.33,1.96
		c3.58,0,6.83-0.34,9.73-1.02c2.91-0.68,5.18-1.4,6.83-2.18l1.89,11.33c-0.78,0.49-1.89,0.94-3.34,1.38
		c-1.45,0.44-3.1,0.82-4.94,1.16c-1.84,0.34-3.8,0.63-5.88,0.87C685.49,483.35,683.48,483.47,681.54,483.47z"/>
	<path class="st3" d="M712.05,444.1c0-6.68,0.97-12.52,2.91-17.51c1.94-4.99,4.5-9.13,7.7-12.42c3.2-3.29,6.88-5.76,11.04-7.41
		c4.16-1.65,8.43-2.47,12.79-2.47c10.17,0,17.97,3.17,23.39,9.52c5.42,6.35,8.14,16.01,8.14,28.98c0,0.58,0,1.33,0,2.25
		c0,0.92-0.05,1.77-0.15,2.54h-51.72c0.58,7.85,2.86,13.8,6.83,17.87c3.97,4.07,10.17,6.1,18.6,6.1c4.74,0,8.74-0.41,11.99-1.23
		c3.24-0.82,5.69-1.62,7.34-2.4l1.89,11.33c-1.65,0.87-4.53,1.79-8.64,2.76c-4.12,0.97-8.79,1.45-14.02,1.45
		c-6.59,0-12.28-0.99-17.07-2.98c-4.79-1.98-8.74-4.72-11.84-8.21c-3.1-3.49-5.4-7.63-6.9-12.42
		C712.8,455.07,712.05,449.81,712.05,444.1z M763.92,436.69c0.1-6.1-1.43-11.11-4.58-15.04c-3.15-3.92-7.48-5.88-13-5.88
		c-3.1,0-5.84,0.61-8.21,1.82c-2.37,1.21-4.38,2.79-6.03,4.72c-1.65,1.94-2.93,4.17-3.85,6.68c-0.92,2.52-1.53,5.09-1.82,7.7H763.92
		z"/>
	<path class="st3" d="M310.22,404.57c3.98,0,7.42,0.29,10.25,0.88c2.86,0.57,4.88,1.12,6.03,1.6l-2.46,11.62
		c-1.17-0.59-2.82-1.15-4.93-1.68c-2.13-0.52-4.75-0.8-7.85-0.8c-6.29,0-10.72,1.73-13.23,5.16c-2.51,3.43-3.78,8.05-3.78,13.86
		v46.49h-13.5v-46.78c0-9.68,2.37-17.16,7.12-22.44C292.62,407.21,300.09,404.57,310.22,404.57"/>
</g>
</svg>
