<?xml version="1.0" encoding="UTF-8"?>
<!DOCTYPE svg PUBLIC "-//W3C//DTD SVG 1.1//EN" "http://www.w3.org/Graphics/SVG/1.1/DTD/svg11.dtd">
<svg version="1.2" width="27.3mm" height="20mm" viewBox="3 3 2730 2000" preserveAspectRatio="xMidYMid" fill-rule="evenodd" stroke-width="28.222" stroke-linejoin="round" xmlns="http://www.w3.org/2000/svg" xmlns:ooo="http://xml.openoffice.org/svg/export" xmlns:xlink="http://www.w3.org/1999/xlink" xmlns:presentation="http://sun.com/xmlns/staroffice/presentation" xmlns:smil="http://www.w3.org/2001/SMIL20/" xmlns:anim="urn:oasis:names:tc:opendocument:xmlns:animation:1.0" xml:space="preserve">
 <defs class="ClipPathGroup">
  <clipPath id="presentation_clip_path" clipPathUnits="userSpaceOnUse">
   <rect x="3" y="3" width="2730" height="2000"/>
  </clipPath>
  <clipPath id="presentation_clip_path_shrink" clipPathUnits="userSpaceOnUse">
   <rect x="5" y="5" width="2725" height="1996"/>
  </clipPath>
 </defs>
 <defs class="TextShapeIndex">
  <g ooo:slide="id1" ooo:id-list="id3"/>
 </defs>
 <defs class="EmbeddedBulletChars">
  <g id="bullet-char-template-57356" transform="scale(0.00048828125,-0.00048828125)">
   <path d="M 580,1141 L 1163,571 580,0 -4,571 580,1141 Z"/>
  </g>
  <g id="bullet-char-template-57354" transform="scale(0.00048828125,-0.00048828125)">
   <path d="M 8,1128 L 1137,1128 1137,0 8,0 8,1128 Z"/>
  </g>
  <g id="bullet-char-template-10146" transform="scale(0.00048828125,-0.00048828125)">
   <path d="M 174,0 L 602,739 174,1481 1456,739 174,0 Z M 1358,739 L 309,1346 659,739 1358,739 Z"/>
  </g>
  <g id="bullet-char-template-10132" transform="scale(0.00048828125,-0.00048828125)">
   <path d="M 2015,739 L 1276,0 717,0 1260,543 174,543 174,936 1260,936 717,1481 1274,1481 2015,739 Z"/>
  </g>
  <g id="bullet-char-template-10007" transform="scale(0.00048828125,-0.00048828125)">
   <path d="M 0,-2 C -7,14 -16,27 -25,37 L 356,567 C 262,823 215,952 215,954 215,979 228,992 255,992 264,992 276,990 289,987 310,991 331,999 354,1012 L 381,999 492,748 772,1049 836,1024 860,1049 C 881,1039 901,1025 922,1006 886,937 835,863 770,784 769,783 710,716 594,584 L 774,223 C 774,196 753,168 711,139 L 727,119 C 717,90 699,76 672,76 641,76 570,178 457,381 L 164,-76 C 142,-110 111,-127 72,-127 30,-127 9,-110 8,-76 1,-67 -2,-52 -2,-32 -2,-23 -1,-13 0,-2 Z"/>
  </g>
  <g id="bullet-char-template-10004" transform="scale(0.00048828125,-0.00048828125)">
   <path d="M 285,-33 C 182,-33 111,30 74,156 52,228 41,333 41,471 41,549 55,616 82,672 116,743 169,778 240,778 293,778 328,747 346,684 L 369,508 C 377,444 397,411 428,410 L 1163,1116 C 1174,1127 1196,1133 1229,1133 1271,1133 1292,1118 1292,1087 L 1292,965 C 1292,929 1282,901 1262,881 L 442,47 C 390,-6 338,-33 285,-33 Z"/>
  </g>
  <g id="bullet-char-template-9679" transform="scale(0.00048828125,-0.00048828125)">
   <path d="M 813,0 C 632,0 489,54 383,161 276,268 223,411 223,592 223,773 276,916 383,1023 489,1130 632,1184 813,1184 992,1184 1136,1130 1245,1023 1353,916 1407,772 1407,592 1407,412 1353,268 1245,161 1136,54 992,0 813,0 Z"/>
  </g>
  <g id="bullet-char-template-8226" transform="scale(0.00048828125,-0.00048828125)">
   <path d="M 346,457 C 273,457 209,483 155,535 101,586 74,649 74,723 74,796 101,859 155,911 209,963 273,989 346,989 419,989 480,963 531,910 582,859 608,796 608,723 608,648 583,586 532,535 482,483 420,457 346,457 Z"/>
  </g>
  <g id="bullet-char-template-8211" transform="scale(0.00048828125,-0.00048828125)">
   <path d="M -4,459 L 1135,459 1135,606 -4,606 -4,459 Z"/>
  </g>
  <g id="bullet-char-template-61548" transform="scale(0.00048828125,-0.00048828125)">
   <path d="M 173,740 C 173,903 231,1043 346,1159 462,1274 601,1332 765,1332 928,1332 1067,1274 1183,1159 1299,1043 1357,903 1357,740 1357,577 1299,437 1183,322 1067,206 928,148 765,148 601,148 462,206 346,322 231,437 173,577 173,740 Z"/>
  </g>
 </defs>
 <defs class="TextEmbeddedBitmaps"/>
 <g class="SlideGroup">
  <g>
   <g id="container-id1">
    <g id="id1" class="Slide" clip-path="url(#presentation_clip_path)">
     <g class="Page">
      <g class="Graphic">
       <g id="id3">
        <rect class="BoundingBox" stroke="none" fill="none" x="3" y="3" width="2731" height="2001"/>
        <path fill="rgb(64,64,64)" stroke="none" d="M 236,1693 C 226,1680 210,1670 193,1663 178,1657 162,1654 136,1653 109,1654 94,1657 78,1663 62,1670 47,1680 37,1693 27,1706 21,1722 17,1740 13,1758 13,1778 13,1800 L 13,1980 65,1980 65,1812 C 65,1792 67,1776 70,1761 73,1748 77,1736 83,1727 89,1719 99,1713 109,1709 117,1706 127,1705 136,1703 153,1705 155,1706 162,1709 172,1713 182,1719 188,1727 194,1736 199,1748 201,1761 204,1776 206,1792 206,1812 L 206,1980 259,1980 259,1800 C 259,1778 259,1758 255,1740 251,1722 246,1706 236,1693 L 236,1693 Z"/>
        <path fill="rgb(64,64,64)" stroke="none" d="M 353,1750 C 361,1729 372,1711 386,1697 400,1683 415,1672 433,1666 450,1659 468,1655 487,1655 530,1655 563,1669 586,1695 609,1722 621,1763 621,1818 L 621,1828 C 621,1832 620,1836 620,1839 L 400,1839 C 403,1872 413,1897 429,1915 447,1932 473,1941 509,1941 528,1941 546,1939 559,1936 573,1932 583,1928 590,1925 L 598,1973 C 591,1977 579,1981 562,1985 543,1989 525,1991 502,1991 474,1991 450,1987 430,1978 410,1970 392,1959 379,1944 366,1929 357,1912 350,1891 344,1870 341,1848 341,1824 341,1796 345,1771 353,1750 L 353,1750 Z M 561,1792 C 562,1767 555,1745 541,1729 528,1712 509,1704 486,1704 473,1704 462,1706 452,1711 441,1716 433,1724 426,1732 419,1740 413,1749 410,1760 405,1771 403,1782 402,1792 L 561,1792 561,1792 Z"/>
        <path fill="rgb(64,64,64)" stroke="none" d="M 1567,1892 C 1559,1913 1549,1931 1536,1946 1522,1960 1506,1972 1487,1980 1469,1988 1449,1992 1427,1992 1406,1992 1385,1988 1367,1980 1349,1972 1333,1960 1320,1946 1307,1931 1296,1913 1288,1892 1281,1872 1278,1849 1278,1823 1278,1798 1281,1776 1288,1755 1296,1734 1307,1716 1320,1701 1333,1687 1349,1675 1367,1667 1385,1659 1406,1655 1427,1655 1449,1655 1469,1659 1487,1667 1506,1675 1522,1687 1536,1701 1549,1716 1559,1734 1567,1755 1574,1776 1578,1798 1578,1823 1578,1849 1574,1872 1567,1892 L 1567,1892 Z M 1494,1737 C 1477,1716 1456,1706 1427,1706 1399,1706 1377,1716 1361,1737 1346,1758 1338,1787 1338,1823 1338,1860 1345,1889 1361,1910 1377,1931 1399,1941 1427,1941 1456,1941 1478,1931 1494,1910 1510,1889 1518,1860 1518,1823 1518,1787 1510,1758 1494,1737 L 1494,1737 Z"/>
        <path fill="rgb(64,64,64)" stroke="none" d="M 1785,1933 C 1797,1927 1802,1917 1802,1904 1802,1890 1797,1878 1785,1870 1774,1862 1756,1853 1731,1842 1718,1838 1706,1833 1695,1828 1684,1822 1674,1816 1666,1809 1658,1803 1652,1794 1646,1784 1641,1774 1639,1762 1639,1748 1639,1719 1649,1697 1670,1680 1691,1664 1720,1655 1756,1655 1765,1655 1774,1656 1783,1656 1793,1658 1801,1659 1808,1660 1816,1662 1823,1664 1829,1665 1835,1667 1840,1668 1843,1669 L 1832,1719 C 1827,1716 1816,1712 1803,1708 1790,1705 1774,1703 1756,1703 1740,1703 1726,1706 1714,1713 1702,1719 1696,1729 1696,1742 1696,1750 1698,1756 1700,1761 1703,1766 1707,1771 1712,1776 1718,1780 1725,1784 1733,1788 1741,1792 1751,1795 1763,1800 1778,1805 1792,1811 1803,1816 1816,1822 1826,1829 1834,1836 1842,1843 1849,1852 1853,1863 1858,1873 1861,1886 1861,1901 1861,1931 1850,1953 1827,1968 1806,1983 1774,1991 1733,1991 1705,1991 1683,1989 1667,1984 1651,1980 1640,1976 1634,1973 L 1644,1924 C 1651,1926 1662,1931 1676,1935 1691,1940 1709,1943 1733,1943 1756,1943 1774,1939 1785,1933 L 1785,1933 Z"/>
        <path fill="rgb(64,64,64)" stroke="none" d="M 2206,1892 C 2198,1913 2188,1931 2174,1946 2161,1960 2146,1972 2127,1980 2108,1988 2088,1992 2066,1992 2044,1992 2025,1988 2006,1980 1987,1972 1971,1960 1958,1946 1944,1931 1934,1913 1927,1892 1919,1872 1916,1849 1916,1823 1916,1798 1919,1776 1927,1755 1934,1734 1944,1716 1958,1701 1971,1687 1987,1675 2006,1667 2025,1659 2044,1655 2066,1655 2088,1655 2108,1659 2127,1667 2146,1675 2161,1687 2174,1701 2188,1716 2198,1734 2206,1755 2213,1776 2217,1798 2217,1823 2217,1849 2213,1872 2206,1892 L 2206,1892 Z M 2133,1737 C 2117,1716 2094,1706 2066,1706 2038,1706 2016,1716 2000,1737 1984,1758 1976,1787 1976,1823 1976,1860 1984,1889 2000,1910 2016,1931 2038,1941 2066,1941 2094,1941 2117,1931 2133,1910 2149,1889 2157,1860 2157,1823 2157,1787 2149,1758 2133,1737 L 2133,1737 Z"/>
        <path fill="rgb(64,64,64)" stroke="none" d="M 735,1953 C 745,1966 760,1976 778,1983 793,1990 809,1993 836,1993 862,1993 878,1990 893,1983 909,1976 924,1966 934,1953 944,1940 950,1925 954,1907 958,1889 959,1868 959,1847 L 959,1666 906,1666 906,1834 C 906,1854 904,1870 901,1885 899,1899 894,1910 888,1919 882,1928 872,1933 861,1938 854,1940 844,1942 836,1943 818,1942 816,1940 809,1938 799,1933 789,1928 784,1919 777,1910 772,1899 769,1885 767,1870 765,1854 765,1834 L 765,1666 712,1666 712,1847 C 712,1868 712,1889 716,1907 720,1925 725,1940 735,1953 L 735,1953 Z"/>
        <path fill="rgb(64,64,64)" stroke="none" d="M 1226,1660 C 1238,1662 1246,1665 1252,1667 L 1241,1716 C 1236,1714 1229,1711 1220,1709 1211,1707 1200,1706 1187,1706 1160,1706 1142,1713 1131,1727 1120,1742 1115,1762 1115,1787 L 1115,1984 1057,1984 1057,1785 C 1057,1744 1067,1712 1087,1690 1108,1667 1139,1656 1182,1656 1199,1656 1214,1658 1226,1660 L 1226,1660 Z"/>
        <path fill="rgb(64,64,64)" stroke="none" d="M 1568,423 C 1548,397 1516,377 1483,363 1453,350 1420,343 1368,342 1315,343 1283,350 1254,363 1220,377 1192,397 1171,423 1151,449 1139,480 1131,517 1123,553 1121,593 1121,636 L 1121,998 1227,998 1227,661 C 1227,621 1231,588 1236,559 1241,531 1251,509 1263,491 1275,475 1296,462 1316,454 1330,449 1351,446 1368,444 1403,446 1406,449 1420,454 1440,462 1459,475 1471,491 1484,509 1494,531 1499,559 1505,588 1508,621 1508,661 L 1508,998 1614,998 1614,636 C 1614,593 1615,553 1606,517 1598,480 1588,449 1568,423 L 1568,423 Z"/>
        <path fill="rgb(64,64,64)" stroke="none" d="M 2423,1505 C 2440,1505 2454,1507 2466,1509 2478,1512 2487,1514 2492,1516 L 2481,1565 C 2476,1562 2470,1560 2460,1558 2451,1556 2440,1554 2427,1554 2400,1554 2381,1562 2371,1576 2360,1591 2355,1611 2355,1635 L 2355,1663 2478,1663 2478,1711 2355,1711 2355,1984 2297,1984 2297,1634 C 2297,1593 2308,1562 2328,1539 2348,1517 2380,1505 2423,1505 L 2423,1505 Z"/>
        <path fill="rgb(64,64,64)" stroke="none" d="M 2710,1663 L 2710,1711 2589,1711 2589,1860 C 2589,1876 2590,1889 2593,1899 2595,1910 2599,1917 2604,1924 2609,1930 2615,1934 2622,1936 2630,1938 2639,1940 2648,1940 2666,1940 2679,1938 2690,1934 2700,1931 2708,1928 2712,1926 L 2723,1973 C 2717,1976 2708,1980 2693,1984 2679,1988 2662,1991 2644,1991 2621,1991 2604,1988 2590,1983 2575,1977 2564,1968 2556,1957 2547,1946 2540,1933 2537,1916 2534,1900 2532,1881 2532,1860 L 2532,1574 2589,1564 2589,1663 2710,1663 2710,1663 Z"/>
        <path fill="rgb(64,64,64)" stroke="none" d="M 1918,670 C 1918,974 1671,1220 1368,1220 1064,1220 817,974 817,670 817,365 1064,119 1368,119 1671,119 1918,365 1918,670 L 1918,670 Z M 1368,13 C 1005,13 711,307 711,670 711,1032 1005,1326 1368,1326 1730,1326 2024,1032 2024,670 2024,307 1730,13 1368,13 L 1368,13 Z"/>
       </g>
      </g>
     </g>
    </g>
   </g>
  </g>
 </g>
</svg>