<?xml version="1.0" standalone="no"?>
<!DOCTYPE svg PUBLIC "-//W3C//DTD SVG 1.1//EN" "http://www.w3.org/Graphics/SVG/1.1/DTD/svg11.dtd">
<svg width="198" height="198" version="1.1" xmlns="http://www.w3.org/2000/svg">
	<desc>https://docs.neurocar.pl/pro/ncar-sys-vi-4-spec/</desc>
	<g id="elements" fill="black" stroke="none">
		<rect x="0" y="0" width="6" height="6" />
		<rect x="6" y="0" width="6" height="6" />
		<rect x="12" y="0" width="6" height="6" />
		<rect x="18" y="0" width="6" height="6" />
		<rect x="24" y="0" width="6" height="6" />
		<rect x="30" y="0" width="6" height="6" />
		<rect x="36" y="0" width="6" height="6" />
		<rect x="54" y="0" width="6" height="6" />
		<rect x="72" y="0" width="6" height="6" />
		<rect x="84" y="0" width="6" height="6" />
		<rect x="108" y="0" width="6" height="6" />
		<rect x="120" y="0" width="6" height="6" />
		<rect x="126" y="0" width="6" height="6" />
		<rect x="132" y="0" width="6" height="6" />
		<rect x="156" y="0" width="6" height="6" />
		<rect x="162" y="0" width="6" height="6" />
		<rect x="168" y="0" width="6" height="6" />
		<rect x="174" y="0" width="6" height="6" />
		<rect x="180" y="0" width="6" height="6" />
		<rect x="186" y="0" width="6" height="6" />
		<rect x="192" y="0" width="6" height="6" />
		<rect x="0" y="6" width="6" height="6" />
		<rect x="36" y="6" width="6" height="6" />
		<rect x="48" y="6" width="6" height="6" />
		<rect x="54" y="6" width="6" height="6" />
		<rect x="66" y="6" width="6" height="6" />
		<rect x="72" y="6" width="6" height="6" />
		<rect x="78" y="6" width="6" height="6" />
		<rect x="84" y="6" width="6" height="6" />
		<rect x="96" y="6" width="6" height="6" />
		<rect x="102" y="6" width="6" height="6" />
		<rect x="144" y="6" width="6" height="6" />
		<rect x="156" y="6" width="6" height="6" />
		<rect x="192" y="6" width="6" height="6" />
		<rect x="0" y="12" width="6" height="6" />
		<rect x="12" y="12" width="6" height="6" />
		<rect x="18" y="12" width="6" height="6" />
		<rect x="24" y="12" width="6" height="6" />
		<rect x="36" y="12" width="6" height="6" />
		<rect x="48" y="12" width="6" height="6" />
		<rect x="60" y="12" width="6" height="6" />
		<rect x="66" y="12" width="6" height="6" />
		<rect x="72" y="12" width="6" height="6" />
		<rect x="78" y="12" width="6" height="6" />
		<rect x="96" y="12" width="6" height="6" />
		<rect x="102" y="12" width="6" height="6" />
		<rect x="108" y="12" width="6" height="6" />
		<rect x="114" y="12" width="6" height="6" />
		<rect x="126" y="12" width="6" height="6" />
		<rect x="138" y="12" width="6" height="6" />
		<rect x="156" y="12" width="6" height="6" />
		<rect x="168" y="12" width="6" height="6" />
		<rect x="174" y="12" width="6" height="6" />
		<rect x="180" y="12" width="6" height="6" />
		<rect x="192" y="12" width="6" height="6" />
		<rect x="0" y="18" width="6" height="6" />
		<rect x="12" y="18" width="6" height="6" />
		<rect x="18" y="18" width="6" height="6" />
		<rect x="24" y="18" width="6" height="6" />
		<rect x="36" y="18" width="6" height="6" />
		<rect x="48" y="18" width="6" height="6" />
		<rect x="66" y="18" width="6" height="6" />
		<rect x="90" y="18" width="6" height="6" />
		<rect x="126" y="18" width="6" height="6" />
		<rect x="138" y="18" width="6" height="6" />
		<rect x="156" y="18" width="6" height="6" />
		<rect x="168" y="18" width="6" height="6" />
		<rect x="174" y="18" width="6" height="6" />
		<rect x="180" y="18" width="6" height="6" />
		<rect x="192" y="18" width="6" height="6" />
		<rect x="0" y="24" width="6" height="6" />
		<rect x="12" y="24" width="6" height="6" />
		<rect x="18" y="24" width="6" height="6" />
		<rect x="24" y="24" width="6" height="6" />
		<rect x="36" y="24" width="6" height="6" />
		<rect x="60" y="24" width="6" height="6" />
		<rect x="78" y="24" width="6" height="6" />
		<rect x="90" y="24" width="6" height="6" />
		<rect x="102" y="24" width="6" height="6" />
		<rect x="108" y="24" width="6" height="6" />
		<rect x="138" y="24" width="6" height="6" />
		<rect x="156" y="24" width="6" height="6" />
		<rect x="168" y="24" width="6" height="6" />
		<rect x="174" y="24" width="6" height="6" />
		<rect x="180" y="24" width="6" height="6" />
		<rect x="192" y="24" width="6" height="6" />
		<rect x="0" y="30" width="6" height="6" />
		<rect x="36" y="30" width="6" height="6" />
		<rect x="54" y="30" width="6" height="6" />
		<rect x="66" y="30" width="6" height="6" />
		<rect x="72" y="30" width="6" height="6" />
		<rect x="78" y="30" width="6" height="6" />
		<rect x="84" y="30" width="6" height="6" />
		<rect x="96" y="30" width="6" height="6" />
		<rect x="102" y="30" width="6" height="6" />
		<rect x="120" y="30" width="6" height="6" />
		<rect x="126" y="30" width="6" height="6" />
		<rect x="132" y="30" width="6" height="6" />
		<rect x="156" y="30" width="6" height="6" />
		<rect x="192" y="30" width="6" height="6" />
		<rect x="0" y="36" width="6" height="6" />
		<rect x="6" y="36" width="6" height="6" />
		<rect x="12" y="36" width="6" height="6" />
		<rect x="18" y="36" width="6" height="6" />
		<rect x="24" y="36" width="6" height="6" />
		<rect x="30" y="36" width="6" height="6" />
		<rect x="36" y="36" width="6" height="6" />
		<rect x="48" y="36" width="6" height="6" />
		<rect x="60" y="36" width="6" height="6" />
		<rect x="72" y="36" width="6" height="6" />
		<rect x="84" y="36" width="6" height="6" />
		<rect x="96" y="36" width="6" height="6" />
		<rect x="108" y="36" width="6" height="6" />
		<rect x="120" y="36" width="6" height="6" />
		<rect x="132" y="36" width="6" height="6" />
		<rect x="144" y="36" width="6" height="6" />
		<rect x="156" y="36" width="6" height="6" />
		<rect x="162" y="36" width="6" height="6" />
		<rect x="168" y="36" width="6" height="6" />
		<rect x="174" y="36" width="6" height="6" />
		<rect x="180" y="36" width="6" height="6" />
		<rect x="186" y="36" width="6" height="6" />
		<rect x="192" y="36" width="6" height="6" />
		<rect x="48" y="42" width="6" height="6" />
		<rect x="60" y="42" width="6" height="6" />
		<rect x="66" y="42" width="6" height="6" />
		<rect x="108" y="42" width="6" height="6" />
		<rect x="138" y="42" width="6" height="6" />
		<rect x="144" y="42" width="6" height="6" />
		<rect x="0" y="48" width="6" height="6" />
		<rect x="36" y="48" width="6" height="6" />
		<rect x="48" y="48" width="6" height="6" />
		<rect x="72" y="48" width="6" height="6" />
		<rect x="78" y="48" width="6" height="6" />
		<rect x="84" y="48" width="6" height="6" />
		<rect x="90" y="48" width="6" height="6" />
		<rect x="102" y="48" width="6" height="6" />
		<rect x="120" y="48" width="6" height="6" />
		<rect x="132" y="48" width="6" height="6" />
		<rect x="144" y="48" width="6" height="6" />
		<rect x="150" y="48" width="6" height="6" />
		<rect x="156" y="48" width="6" height="6" />
		<rect x="174" y="48" width="6" height="6" />
		<rect x="180" y="48" width="6" height="6" />
		<rect x="186" y="48" width="6" height="6" />
		<rect x="6" y="54" width="6" height="6" />
		<rect x="24" y="54" width="6" height="6" />
		<rect x="48" y="54" width="6" height="6" />
		<rect x="60" y="54" width="6" height="6" />
		<rect x="66" y="54" width="6" height="6" />
		<rect x="72" y="54" width="6" height="6" />
		<rect x="84" y="54" width="6" height="6" />
		<rect x="90" y="54" width="6" height="6" />
		<rect x="96" y="54" width="6" height="6" />
		<rect x="114" y="54" width="6" height="6" />
		<rect x="132" y="54" width="6" height="6" />
		<rect x="138" y="54" width="6" height="6" />
		<rect x="144" y="54" width="6" height="6" />
		<rect x="168" y="54" width="6" height="6" />
		<rect x="174" y="54" width="6" height="6" />
		<rect x="180" y="54" width="6" height="6" />
		<rect x="0" y="60" width="6" height="6" />
		<rect x="12" y="60" width="6" height="6" />
		<rect x="18" y="60" width="6" height="6" />
		<rect x="30" y="60" width="6" height="6" />
		<rect x="36" y="60" width="6" height="6" />
		<rect x="60" y="60" width="6" height="6" />
		<rect x="90" y="60" width="6" height="6" />
		<rect x="96" y="60" width="6" height="6" />
		<rect x="108" y="60" width="6" height="6" />
		<rect x="120" y="60" width="6" height="6" />
		<rect x="126" y="60" width="6" height="6" />
		<rect x="132" y="60" width="6" height="6" />
		<rect x="150" y="60" width="6" height="6" />
		<rect x="168" y="60" width="6" height="6" />
		<rect x="180" y="60" width="6" height="6" />
		<rect x="18" y="66" width="6" height="6" />
		<rect x="30" y="66" width="6" height="6" />
		<rect x="48" y="66" width="6" height="6" />
		<rect x="54" y="66" width="6" height="6" />
		<rect x="72" y="66" width="6" height="6" />
		<rect x="84" y="66" width="6" height="6" />
		<rect x="90" y="66" width="6" height="6" />
		<rect x="96" y="66" width="6" height="6" />
		<rect x="132" y="66" width="6" height="6" />
		<rect x="138" y="66" width="6" height="6" />
		<rect x="144" y="66" width="6" height="6" />
		<rect x="156" y="66" width="6" height="6" />
		<rect x="162" y="66" width="6" height="6" />
		<rect x="168" y="66" width="6" height="6" />
		<rect x="174" y="66" width="6" height="6" />
		<rect x="180" y="66" width="6" height="6" />
		<rect x="192" y="66" width="6" height="6" />
		<rect x="12" y="72" width="6" height="6" />
		<rect x="24" y="72" width="6" height="6" />
		<rect x="36" y="72" width="6" height="6" />
		<rect x="78" y="72" width="6" height="6" />
		<rect x="84" y="72" width="6" height="6" />
		<rect x="96" y="72" width="6" height="6" />
		<rect x="102" y="72" width="6" height="6" />
		<rect x="108" y="72" width="6" height="6" />
		<rect x="114" y="72" width="6" height="6" />
		<rect x="120" y="72" width="6" height="6" />
		<rect x="138" y="72" width="6" height="6" />
		<rect x="156" y="72" width="6" height="6" />
		<rect x="186" y="72" width="6" height="6" />
		<rect x="192" y="72" width="6" height="6" />
		<rect x="6" y="78" width="6" height="6" />
		<rect x="18" y="78" width="6" height="6" />
		<rect x="42" y="78" width="6" height="6" />
		<rect x="54" y="78" width="6" height="6" />
		<rect x="60" y="78" width="6" height="6" />
		<rect x="78" y="78" width="6" height="6" />
		<rect x="84" y="78" width="6" height="6" />
		<rect x="96" y="78" width="6" height="6" />
		<rect x="120" y="78" width="6" height="6" />
		<rect x="138" y="78" width="6" height="6" />
		<rect x="156" y="78" width="6" height="6" />
		<rect x="162" y="78" width="6" height="6" />
		<rect x="174" y="78" width="6" height="6" />
		<rect x="186" y="78" width="6" height="6" />
		<rect x="192" y="78" width="6" height="6" />
		<rect x="0" y="84" width="6" height="6" />
		<rect x="36" y="84" width="6" height="6" />
		<rect x="42" y="84" width="6" height="6" />
		<rect x="60" y="84" width="6" height="6" />
		<rect x="72" y="84" width="6" height="6" />
		<rect x="108" y="84" width="6" height="6" />
		<rect x="114" y="84" width="6" height="6" />
		<rect x="126" y="84" width="6" height="6" />
		<rect x="132" y="84" width="6" height="6" />
		<rect x="150" y="84" width="6" height="6" />
		<rect x="156" y="84" width="6" height="6" />
		<rect x="174" y="84" width="6" height="6" />
		<rect x="180" y="84" width="6" height="6" />
		<rect x="186" y="84" width="6" height="6" />
		<rect x="0" y="90" width="6" height="6" />
		<rect x="12" y="90" width="6" height="6" />
		<rect x="24" y="90" width="6" height="6" />
		<rect x="42" y="90" width="6" height="6" />
		<rect x="48" y="90" width="6" height="6" />
		<rect x="54" y="90" width="6" height="6" />
		<rect x="66" y="90" width="6" height="6" />
		<rect x="78" y="90" width="6" height="6" />
		<rect x="84" y="90" width="6" height="6" />
		<rect x="90" y="90" width="6" height="6" />
		<rect x="108" y="90" width="6" height="6" />
		<rect x="114" y="90" width="6" height="6" />
		<rect x="150" y="90" width="6" height="6" />
		<rect x="162" y="90" width="6" height="6" />
		<rect x="174" y="90" width="6" height="6" />
		<rect x="180" y="90" width="6" height="6" />
		<rect x="192" y="90" width="6" height="6" />
		<rect x="6" y="96" width="6" height="6" />
		<rect x="12" y="96" width="6" height="6" />
		<rect x="18" y="96" width="6" height="6" />
		<rect x="30" y="96" width="6" height="6" />
		<rect x="36" y="96" width="6" height="6" />
		<rect x="42" y="96" width="6" height="6" />
		<rect x="48" y="96" width="6" height="6" />
		<rect x="54" y="96" width="6" height="6" />
		<rect x="60" y="96" width="6" height="6" />
		<rect x="66" y="96" width="6" height="6" />
		<rect x="78" y="96" width="6" height="6" />
		<rect x="102" y="96" width="6" height="6" />
		<rect x="114" y="96" width="6" height="6" />
		<rect x="132" y="96" width="6" height="6" />
		<rect x="138" y="96" width="6" height="6" />
		<rect x="150" y="96" width="6" height="6" />
		<rect x="162" y="96" width="6" height="6" />
		<rect x="168" y="96" width="6" height="6" />
		<rect x="174" y="96" width="6" height="6" />
		<rect x="192" y="96" width="6" height="6" />
		<rect x="0" y="102" width="6" height="6" />
		<rect x="12" y="102" width="6" height="6" />
		<rect x="18" y="102" width="6" height="6" />
		<rect x="60" y="102" width="6" height="6" />
		<rect x="72" y="102" width="6" height="6" />
		<rect x="78" y="102" width="6" height="6" />
		<rect x="84" y="102" width="6" height="6" />
		<rect x="90" y="102" width="6" height="6" />
		<rect x="96" y="102" width="6" height="6" />
		<rect x="102" y="102" width="6" height="6" />
		<rect x="108" y="102" width="6" height="6" />
		<rect x="114" y="102" width="6" height="6" />
		<rect x="120" y="102" width="6" height="6" />
		<rect x="132" y="102" width="6" height="6" />
		<rect x="138" y="102" width="6" height="6" />
		<rect x="156" y="102" width="6" height="6" />
		<rect x="174" y="102" width="6" height="6" />
		<rect x="180" y="102" width="6" height="6" />
		<rect x="186" y="102" width="6" height="6" />
		<rect x="192" y="102" width="6" height="6" />
		<rect x="12" y="108" width="6" height="6" />
		<rect x="18" y="108" width="6" height="6" />
		<rect x="24" y="108" width="6" height="6" />
		<rect x="30" y="108" width="6" height="6" />
		<rect x="36" y="108" width="6" height="6" />
		<rect x="42" y="108" width="6" height="6" />
		<rect x="48" y="108" width="6" height="6" />
		<rect x="54" y="108" width="6" height="6" />
		<rect x="66" y="108" width="6" height="6" />
		<rect x="84" y="108" width="6" height="6" />
		<rect x="90" y="108" width="6" height="6" />
		<rect x="96" y="108" width="6" height="6" />
		<rect x="114" y="108" width="6" height="6" />
		<rect x="132" y="108" width="6" height="6" />
		<rect x="138" y="108" width="6" height="6" />
		<rect x="150" y="108" width="6" height="6" />
		<rect x="162" y="108" width="6" height="6" />
		<rect x="174" y="108" width="6" height="6" />
		<rect x="180" y="108" width="6" height="6" />
		<rect x="192" y="108" width="6" height="6" />
		<rect x="6" y="114" width="6" height="6" />
		<rect x="24" y="114" width="6" height="6" />
		<rect x="30" y="114" width="6" height="6" />
		<rect x="60" y="114" width="6" height="6" />
		<rect x="66" y="114" width="6" height="6" />
		<rect x="72" y="114" width="6" height="6" />
		<rect x="78" y="114" width="6" height="6" />
		<rect x="90" y="114" width="6" height="6" />
		<rect x="102" y="114" width="6" height="6" />
		<rect x="108" y="114" width="6" height="6" />
		<rect x="114" y="114" width="6" height="6" />
		<rect x="132" y="114" width="6" height="6" />
		<rect x="138" y="114" width="6" height="6" />
		<rect x="144" y="114" width="6" height="6" />
		<rect x="150" y="114" width="6" height="6" />
		<rect x="168" y="114" width="6" height="6" />
		<rect x="174" y="114" width="6" height="6" />
		<rect x="180" y="114" width="6" height="6" />
		<rect x="186" y="114" width="6" height="6" />
		<rect x="0" y="120" width="6" height="6" />
		<rect x="24" y="120" width="6" height="6" />
		<rect x="30" y="120" width="6" height="6" />
		<rect x="36" y="120" width="6" height="6" />
		<rect x="42" y="120" width="6" height="6" />
		<rect x="48" y="120" width="6" height="6" />
		<rect x="54" y="120" width="6" height="6" />
		<rect x="60" y="120" width="6" height="6" />
		<rect x="84" y="120" width="6" height="6" />
		<rect x="90" y="120" width="6" height="6" />
		<rect x="96" y="120" width="6" height="6" />
		<rect x="120" y="120" width="6" height="6" />
		<rect x="144" y="120" width="6" height="6" />
		<rect x="162" y="120" width="6" height="6" />
		<rect x="168" y="120" width="6" height="6" />
		<rect x="174" y="120" width="6" height="6" />
		<rect x="0" y="126" width="6" height="6" />
		<rect x="12" y="126" width="6" height="6" />
		<rect x="30" y="126" width="6" height="6" />
		<rect x="42" y="126" width="6" height="6" />
		<rect x="72" y="126" width="6" height="6" />
		<rect x="96" y="126" width="6" height="6" />
		<rect x="102" y="126" width="6" height="6" />
		<rect x="108" y="126" width="6" height="6" />
		<rect x="120" y="126" width="6" height="6" />
		<rect x="132" y="126" width="6" height="6" />
		<rect x="138" y="126" width="6" height="6" />
		<rect x="144" y="126" width="6" height="6" />
		<rect x="168" y="126" width="6" height="6" />
		<rect x="180" y="126" width="6" height="6" />
		<rect x="0" y="132" width="6" height="6" />
		<rect x="36" y="132" width="6" height="6" />
		<rect x="48" y="132" width="6" height="6" />
		<rect x="54" y="132" width="6" height="6" />
		<rect x="72" y="132" width="6" height="6" />
		<rect x="84" y="132" width="6" height="6" />
		<rect x="90" y="132" width="6" height="6" />
		<rect x="96" y="132" width="6" height="6" />
		<rect x="120" y="132" width="6" height="6" />
		<rect x="126" y="132" width="6" height="6" />
		<rect x="132" y="132" width="6" height="6" />
		<rect x="144" y="132" width="6" height="6" />
		<rect x="150" y="132" width="6" height="6" />
		<rect x="168" y="132" width="6" height="6" />
		<rect x="174" y="132" width="6" height="6" />
		<rect x="186" y="132" width="6" height="6" />
		<rect x="0" y="138" width="6" height="6" />
		<rect x="30" y="138" width="6" height="6" />
		<rect x="78" y="138" width="6" height="6" />
		<rect x="84" y="138" width="6" height="6" />
		<rect x="108" y="138" width="6" height="6" />
		<rect x="132" y="138" width="6" height="6" />
		<rect x="174" y="138" width="6" height="6" />
		<rect x="180" y="138" width="6" height="6" />
		<rect x="0" y="144" width="6" height="6" />
		<rect x="6" y="144" width="6" height="6" />
		<rect x="12" y="144" width="6" height="6" />
		<rect x="24" y="144" width="6" height="6" />
		<rect x="30" y="144" width="6" height="6" />
		<rect x="36" y="144" width="6" height="6" />
		<rect x="48" y="144" width="6" height="6" />
		<rect x="54" y="144" width="6" height="6" />
		<rect x="78" y="144" width="6" height="6" />
		<rect x="90" y="144" width="6" height="6" />
		<rect x="108" y="144" width="6" height="6" />
		<rect x="114" y="144" width="6" height="6" />
		<rect x="120" y="144" width="6" height="6" />
		<rect x="138" y="144" width="6" height="6" />
		<rect x="144" y="144" width="6" height="6" />
		<rect x="150" y="144" width="6" height="6" />
		<rect x="156" y="144" width="6" height="6" />
		<rect x="162" y="144" width="6" height="6" />
		<rect x="168" y="144" width="6" height="6" />
		<rect x="186" y="144" width="6" height="6" />
		<rect x="192" y="144" width="6" height="6" />
		<rect x="48" y="150" width="6" height="6" />
		<rect x="72" y="150" width="6" height="6" />
		<rect x="78" y="150" width="6" height="6" />
		<rect x="84" y="150" width="6" height="6" />
		<rect x="90" y="150" width="6" height="6" />
		<rect x="96" y="150" width="6" height="6" />
		<rect x="108" y="150" width="6" height="6" />
		<rect x="114" y="150" width="6" height="6" />
		<rect x="120" y="150" width="6" height="6" />
		<rect x="126" y="150" width="6" height="6" />
		<rect x="132" y="150" width="6" height="6" />
		<rect x="144" y="150" width="6" height="6" />
		<rect x="168" y="150" width="6" height="6" />
		<rect x="180" y="150" width="6" height="6" />
		<rect x="192" y="150" width="6" height="6" />
		<rect x="0" y="156" width="6" height="6" />
		<rect x="6" y="156" width="6" height="6" />
		<rect x="12" y="156" width="6" height="6" />
		<rect x="18" y="156" width="6" height="6" />
		<rect x="24" y="156" width="6" height="6" />
		<rect x="30" y="156" width="6" height="6" />
		<rect x="36" y="156" width="6" height="6" />
		<rect x="54" y="156" width="6" height="6" />
		<rect x="60" y="156" width="6" height="6" />
		<rect x="66" y="156" width="6" height="6" />
		<rect x="72" y="156" width="6" height="6" />
		<rect x="78" y="156" width="6" height="6" />
		<rect x="90" y="156" width="6" height="6" />
		<rect x="108" y="156" width="6" height="6" />
		<rect x="120" y="156" width="6" height="6" />
		<rect x="132" y="156" width="6" height="6" />
		<rect x="138" y="156" width="6" height="6" />
		<rect x="144" y="156" width="6" height="6" />
		<rect x="156" y="156" width="6" height="6" />
		<rect x="168" y="156" width="6" height="6" />
		<rect x="180" y="156" width="6" height="6" />
		<rect x="186" y="156" width="6" height="6" />
		<rect x="0" y="162" width="6" height="6" />
		<rect x="36" y="162" width="6" height="6" />
		<rect x="54" y="162" width="6" height="6" />
		<rect x="60" y="162" width="6" height="6" />
		<rect x="66" y="162" width="6" height="6" />
		<rect x="84" y="162" width="6" height="6" />
		<rect x="96" y="162" width="6" height="6" />
		<rect x="114" y="162" width="6" height="6" />
		<rect x="138" y="162" width="6" height="6" />
		<rect x="144" y="162" width="6" height="6" />
		<rect x="168" y="162" width="6" height="6" />
		<rect x="174" y="162" width="6" height="6" />
		<rect x="180" y="162" width="6" height="6" />
		<rect x="186" y="162" width="6" height="6" />
		<rect x="0" y="168" width="6" height="6" />
		<rect x="12" y="168" width="6" height="6" />
		<rect x="18" y="168" width="6" height="6" />
		<rect x="24" y="168" width="6" height="6" />
		<rect x="36" y="168" width="6" height="6" />
		<rect x="72" y="168" width="6" height="6" />
		<rect x="78" y="168" width="6" height="6" />
		<rect x="90" y="168" width="6" height="6" />
		<rect x="108" y="168" width="6" height="6" />
		<rect x="114" y="168" width="6" height="6" />
		<rect x="126" y="168" width="6" height="6" />
		<rect x="144" y="168" width="6" height="6" />
		<rect x="150" y="168" width="6" height="6" />
		<rect x="156" y="168" width="6" height="6" />
		<rect x="162" y="168" width="6" height="6" />
		<rect x="168" y="168" width="6" height="6" />
		<rect x="174" y="168" width="6" height="6" />
		<rect x="0" y="174" width="6" height="6" />
		<rect x="12" y="174" width="6" height="6" />
		<rect x="18" y="174" width="6" height="6" />
		<rect x="24" y="174" width="6" height="6" />
		<rect x="36" y="174" width="6" height="6" />
		<rect x="60" y="174" width="6" height="6" />
		<rect x="78" y="174" width="6" height="6" />
		<rect x="84" y="174" width="6" height="6" />
		<rect x="96" y="174" width="6" height="6" />
		<rect x="102" y="174" width="6" height="6" />
		<rect x="120" y="174" width="6" height="6" />
		<rect x="138" y="174" width="6" height="6" />
		<rect x="150" y="174" width="6" height="6" />
		<rect x="162" y="174" width="6" height="6" />
		<rect x="168" y="174" width="6" height="6" />
		<rect x="186" y="174" width="6" height="6" />
		<rect x="192" y="174" width="6" height="6" />
		<rect x="0" y="180" width="6" height="6" />
		<rect x="12" y="180" width="6" height="6" />
		<rect x="18" y="180" width="6" height="6" />
		<rect x="24" y="180" width="6" height="6" />
		<rect x="36" y="180" width="6" height="6" />
		<rect x="54" y="180" width="6" height="6" />
		<rect x="60" y="180" width="6" height="6" />
		<rect x="66" y="180" width="6" height="6" />
		<rect x="78" y="180" width="6" height="6" />
		<rect x="96" y="180" width="6" height="6" />
		<rect x="120" y="180" width="6" height="6" />
		<rect x="132" y="180" width="6" height="6" />
		<rect x="150" y="180" width="6" height="6" />
		<rect x="162" y="180" width="6" height="6" />
		<rect x="168" y="180" width="6" height="6" />
		<rect x="180" y="180" width="6" height="6" />
		<rect x="186" y="180" width="6" height="6" />
		<rect x="192" y="180" width="6" height="6" />
		<rect x="0" y="186" width="6" height="6" />
		<rect x="36" y="186" width="6" height="6" />
		<rect x="54" y="186" width="6" height="6" />
		<rect x="60" y="186" width="6" height="6" />
		<rect x="66" y="186" width="6" height="6" />
		<rect x="78" y="186" width="6" height="6" />
		<rect x="84" y="186" width="6" height="6" />
		<rect x="90" y="186" width="6" height="6" />
		<rect x="96" y="186" width="6" height="6" />
		<rect x="114" y="186" width="6" height="6" />
		<rect x="120" y="186" width="6" height="6" />
		<rect x="138" y="186" width="6" height="6" />
		<rect x="150" y="186" width="6" height="6" />
		<rect x="156" y="186" width="6" height="6" />
		<rect x="162" y="186" width="6" height="6" />
		<rect x="168" y="186" width="6" height="6" />
		<rect x="174" y="186" width="6" height="6" />
		<rect x="180" y="186" width="6" height="6" />
		<rect x="0" y="192" width="6" height="6" />
		<rect x="6" y="192" width="6" height="6" />
		<rect x="12" y="192" width="6" height="6" />
		<rect x="18" y="192" width="6" height="6" />
		<rect x="24" y="192" width="6" height="6" />
		<rect x="30" y="192" width="6" height="6" />
		<rect x="36" y="192" width="6" height="6" />
		<rect x="48" y="192" width="6" height="6" />
		<rect x="60" y="192" width="6" height="6" />
		<rect x="72" y="192" width="6" height="6" />
		<rect x="84" y="192" width="6" height="6" />
		<rect x="96" y="192" width="6" height="6" />
		<rect x="102" y="192" width="6" height="6" />
		<rect x="114" y="192" width="6" height="6" />
		<rect x="132" y="192" width="6" height="6" />
		<rect x="144" y="192" width="6" height="6" />
		<rect x="150" y="192" width="6" height="6" />
		<rect x="162" y="192" width="6" height="6" />
		<rect x="174" y="192" width="6" height="6" />
		<rect x="186" y="192" width="6" height="6" />
	</g>
</svg>
